SplineFontDB: 3.0
FontName: pixelmix
FullName: pixelmix Regular
FamilyName: pixelmix
Weight: Book
Copyright: Copyright Andrew Tyler 2012\nfont@andrewtyler.net
Version: 1.0
ItalicAngle: 0
UnderlinePosition: 76
UnderlineWidth: 51
Ascent: 1024
Descent: 0
InvalidEm: 0
sfntRevision: 0x00010000
LayerCount: 2
Layer: 0 1 "Back" 1
Layer: 1 1 "Fore" 0
XUID: [1021 625 963893922 6329198]
StyleMap: 0x0040
FSType: 4
OS2Version: 2
OS2_WeightWidthSlopeOnly: 0
OS2_UseTypoMetrics: 0
CreationTime: 1268433997
ModificationTime: 1560318083
PfmFamily: 81
TTFWeight: 400
TTFWidth: 5
LineGap: 0
VLineGap: 0
Panose: 0 0 4 0 0 0 0 0 0 0
OS2TypoAscent: 1024
OS2TypoAOffset: 0
OS2TypoDescent: 0
OS2TypoDOffset: 0
OS2TypoLinegap: 0
OS2WinAscent: 1024
OS2WinAOffset: 0
OS2WinDescent: 0
OS2WinDOffset: 0
HheadAscent: 1024
HheadAOffset: 0
HheadDescent: 0
HheadDOffset: 0
OS2SubXSize: 512
OS2SubYSize: 512
OS2SubXOff: 0
OS2SubYOff: 0
OS2SupXSize: 512
OS2SupYSize: 512
OS2SupXOff: 0
OS2SupYOff: 512
OS2StrikeYSize: 51
OS2StrikeYPos: 204
OS2CapHeight: 896
OS2XHeight: 640
OS2Vendor: 'FSTR'
OS2CodePages: 000001fb.00000000
OS2UnicodeRanges: 8000000f.4000000a.00000000.00000000
MarkAttachClasses: 1
DEI: 91125
ShortTable: maxp 16
  1
  0
  419
  36
  9
  0
  0
  2
  0
  0
  0
  0
  0
  0
  0
  0
EndShort
LangName: 1033 "" "" "Regular" "FontForge 2.0 : pixelmix Regular : 1-2-2012" "" "Version 1.0" "" "" "Andrew Tyler" "Andrew Tyler" "" "http://www.andrewtyler.net" "http://www.andrewtyler.net" "Creative Commons Attribution BY NC ND" "http://creativecommons.org/licenses/by-nc-nd/3.0/us/" "" "" "" "" "Five big quacking zephyrs jolt my wax bed"
GaspTable: 1 65535 2 0
Encoding: UnicodeBmp
UnicodeInterp: none
NameList: AGL For New Fonts
DisplaySize: -128
AntiAlias: 1
FitToEm: 1
WinInfo: 68 17 11
BeginChars: 65537 419

StartChar: .notdef
Encoding: 65536 -1 0
Width: 1024
Flags: W
LayerCount: 2
Fore
SplineSet
0 0 m 1,0,-1
 0 1024 l 1,1,-1
 1024 1024 l 1,2,-1
 1024 0 l 1,3,-1
 0 0 l 1,0,-1
EndSplineSet
Validated: 1
EndChar

StartChar: exclam
Encoding: 33 33 4
Width: 256
GlyphClass: 2
Flags: W
LayerCount: 2
Fore
SplineSet
0 0 m 1,0,-1
 0 128 l 1,1,-1
 128 128 l 1,2,-1
 128 0 l 1,3,-1
 0 0 l 1,0,-1
0 256 m 1,4,-1
 0 896 l 1,5,-1
 128 896 l 1,6,-1
 128 256 l 1,7,-1
 0 256 l 1,4,-1
EndSplineSet
Validated: 1
EndChar

StartChar: quotedbl
Encoding: 34 34 5
Width: 512
GlyphClass: 2
Flags: W
LayerCount: 2
Fore
SplineSet
0 640 m 1,0,-1
 0 896 l 1,1,-1
 128 896 l 1,2,-1
 128 640 l 1,3,-1
 0 640 l 1,0,-1
256 640 m 1,4,-1
 256 896 l 1,5,-1
 384 896 l 1,6,-1
 384 640 l 1,7,-1
 256 640 l 1,4,-1
EndSplineSet
Validated: 1
EndChar

StartChar: numbersign
Encoding: 35 35 6
Width: 768
GlyphClass: 2
Flags: W
LayerCount: 2
Fore
SplineSet
384 256 m 1,0,-1
 384 640 l 1,1,-1
 256 640 l 1,2,-1
 256 256 l 1,3,-1
 384 256 l 1,0,-1
128 0 m 1,4,-1
 128 128 l 1,5,-1
 0 128 l 1,6,-1
 0 256 l 1,7,-1
 128 256 l 1,8,-1
 128 640 l 1,9,-1
 0 640 l 1,10,-1
 0 768 l 1,11,-1
 128 768 l 1,12,-1
 128 896 l 1,13,-1
 256 896 l 1,14,-1
 256 768 l 1,15,-1
 384 768 l 1,16,-1
 384 896 l 1,17,-1
 512 896 l 1,18,-1
 512 768 l 1,19,-1
 640 768 l 1,20,-1
 640 640 l 1,21,-1
 512 640 l 1,22,-1
 512 256 l 1,23,-1
 640 256 l 1,24,-1
 640 128 l 1,25,-1
 512 128 l 1,26,-1
 512 0 l 1,27,-1
 384 0 l 1,28,-1
 384 128 l 1,29,-1
 256 128 l 1,30,-1
 256 0 l 1,31,-1
 128 0 l 1,4,-1
EndSplineSet
Validated: 1
EndChar

StartChar: dollar
Encoding: 36 36 7
Width: 768
GlyphClass: 2
Flags: W
LayerCount: 2
Fore
SplineSet
0 128 m 1,0,-1
 0 256 l 1,1,-1
 128 256 l 1,2,-1
 128 128 l 1,3,-1
 0 128 l 1,0,-1
512 128 m 1,4,-1
 512 384 l 1,5,-1
 640 384 l 1,6,-1
 640 128 l 1,7,-1
 512 128 l 1,4,-1
0 512 m 1,8,-1
 0 768 l 1,9,-1
 128 768 l 1,10,-1
 128 512 l 1,11,-1
 0 512 l 1,8,-1
512 640 m 1,12,-1
 512 768 l 1,13,-1
 640 768 l 1,14,-1
 640 640 l 1,15,-1
 512 640 l 1,12,-1
128 0 m 1,16,-1
 128 128 l 1,17,-1
 256 128 l 1,18,-1
 256 384 l 1,19,-1
 128 384 l 1,20,-1
 128 512 l 1,21,-1
 256 512 l 1,22,-1
 256 768 l 1,23,-1
 128 768 l 1,24,-1
 128 896 l 1,25,-1
 512 896 l 1,26,-1
 512 768 l 1,27,-1
 384 768 l 1,28,-1
 384 512 l 1,29,-1
 512 512 l 1,30,-1
 512 384 l 1,31,-1
 384 384 l 1,32,-1
 384 128 l 1,33,-1
 512 128 l 1,34,-1
 512 0 l 1,35,-1
 128 0 l 1,16,-1
EndSplineSet
Validated: 5
EndChar

StartChar: percent
Encoding: 37 37 8
Width: 768
GlyphClass: 2
Flags: W
LayerCount: 2
Fore
SplineSet
0 0 m 1,0,-1
 0 128 l 1,1,-1
 128 128 l 1,2,-1
 128 0 l 1,3,-1
 0 0 l 1,0,-1
384 0 m 1,4,-1
 384 256 l 1,5,-1
 640 256 l 1,6,-1
 640 0 l 1,7,-1
 384 0 l 1,4,-1
128 128 m 1,8,-1
 128 384 l 1,9,-1
 256 384 l 1,10,-1
 256 128 l 1,11,-1
 128 128 l 1,8,-1
256 384 m 1,12,-1
 256 512 l 1,13,-1
 384 512 l 1,14,-1
 384 384 l 1,15,-1
 256 384 l 1,12,-1
384 512 m 1,16,-1
 384 768 l 1,17,-1
 512 768 l 1,18,-1
 512 512 l 1,19,-1
 384 512 l 1,16,-1
0 640 m 1,20,-1
 0 896 l 1,21,-1
 256 896 l 1,22,-1
 256 640 l 1,23,-1
 0 640 l 1,20,-1
512 768 m 1,24,-1
 512 896 l 1,25,-1
 640 896 l 1,26,-1
 640 768 l 1,27,-1
 512 768 l 1,24,-1
EndSplineSet
Validated: 5
EndChar

StartChar: ampersand
Encoding: 38 38 9
Width: 896
GlyphClass: 2
Flags: W
LayerCount: 2
Fore
SplineSet
127 897 m 1,0,-1
 258 897 l 1,1,-1
 258 770 l 1,2,-1
 127 770 l 1,3,-1
 127 897 l 1,0,-1
254 769 m 1,4,-1
 384 769 l 1,5,-1
 384 512 l 1,6,-1
 254 512 l 1,7,-1
 254 769 l 1,4,-1
0 770 m 1,8,-1
 128 770 l 1,9,-1
 128 512 l 1,10,-1
 0 512 l 1,11,-1
 0 770 l 1,8,-1
383 356 m 1025,12,-1
128 0 m 1,13,-1
 128 128 l 1,14,-1
 384 128 l 1,15,-1
 384 0 l 1,16,-1
 128 0 l 1,13,-1
512 0 m 1,17,-1
 512 128 l 1,18,-1
 640 128 l 1,19,-1
 640 0 l 1,20,-1
 512 0 l 1,17,-1
384 128 m 1,21,-1
 384 256 l 1,22,-1
 512 256 l 1,23,-1
 512 128 l 1,24,-1
 384 128 l 1,21,-1
0 128 m 1,25,-1
 0 384 l 1,26,-1
 128 384 l 1,27,-1
 128 128 l 1,28,-1
 0 128 l 1,25,-1
256 256 m 1,29,-1
 256 384 l 1,30,-1
 384 384 l 1,31,-1
 384 256 l 1,32,-1
 256 256 l 1,29,-1
512 256 m 1,33,-1
 512 384 l 1,34,-1
 640 384 l 1,35,-1
 640 256 l 1,36,-1
 512 256 l 1,33,-1
128 384 m 1,37,-1
 128 512 l 1,38,-1
 256 512 l 1,39,-1
 256 384 l 1,40,-1
 128 384 l 1,37,-1
384 512 m 1,41,-1
 256 512 l 1025,42,-1
128 512 m 1,43,-1
 0 512 l 1025,44,-1
EndSplineSet
EndChar

StartChar: quotesingle
Encoding: 39 39 10
Width: 256
GlyphClass: 2
Flags: W
LayerCount: 2
Fore
SplineSet
0 640 m 1,0,-1
 0 896 l 1,1,-1
 128 896 l 1,2,-1
 128 640 l 1,3,-1
 0 640 l 1,0,-1
EndSplineSet
Validated: 1
EndChar

StartChar: parenleft
Encoding: 40 40 11
Width: 512
GlyphClass: 2
Flags: W
LayerCount: 2
Fore
SplineSet
256 0 m 1,0,-1
 256 128 l 1,1,-1
 384 128 l 1,2,-1
 384 0 l 1,3,-1
 256 0 l 1,0,-1
128 128 m 1,4,-1
 128 256 l 1,5,-1
 256 256 l 1,6,-1
 256 128 l 1,7,-1
 128 128 l 1,4,-1
0 256 m 1,8,-1
 0 640 l 1,9,-1
 128 640 l 1,10,-1
 128 256 l 1,11,-1
 0 256 l 1,8,-1
128 640 m 1,12,-1
 128 768 l 1,13,-1
 256 768 l 1,14,-1
 256 640 l 1,15,-1
 128 640 l 1,12,-1
256 768 m 1,16,-1
 256 896 l 1,17,-1
 384 896 l 1,18,-1
 384 768 l 1,19,-1
 256 768 l 1,16,-1
EndSplineSet
Validated: 5
EndChar

StartChar: parenright
Encoding: 41 41 12
Width: 512
GlyphClass: 2
Flags: W
LayerCount: 2
Fore
SplineSet
0 0 m 1,0,-1
 0 128 l 1,1,-1
 128 128 l 1,2,-1
 128 0 l 1,3,-1
 0 0 l 1,0,-1
128 128 m 1,4,-1
 128 256 l 1,5,-1
 256 256 l 1,6,-1
 256 128 l 1,7,-1
 128 128 l 1,4,-1
256 256 m 1,8,-1
 256 640 l 1,9,-1
 384 640 l 1,10,-1
 384 256 l 1,11,-1
 256 256 l 1,8,-1
128 640 m 1,12,-1
 128 768 l 1,13,-1
 256 768 l 1,14,-1
 256 640 l 1,15,-1
 128 640 l 1,12,-1
0 768 m 1,16,-1
 0 896 l 1,17,-1
 128 896 l 1,18,-1
 128 768 l 1,19,-1
 0 768 l 1,16,-1
EndSplineSet
Validated: 5
EndChar

StartChar: asterisk
Encoding: 42 42 13
Width: 512
GlyphClass: 2
Flags: W
LayerCount: 2
Fore
SplineSet
128 512 m 1,0,-1
 128 640 l 1,1,-1
 0 640 l 1,2,-1
 0 768 l 1,3,-1
 128 768 l 1,4,-1
 128 896 l 1,5,-1
 256 896 l 1,6,-1
 256 768 l 1,7,-1
 384 768 l 1,8,-1
 384 640 l 1,9,-1
 256 640 l 1,10,-1
 256 512 l 1,11,-1
 128 512 l 1,0,-1
EndSplineSet
Validated: 1
EndChar

StartChar: plus
Encoding: 43 43 14
Width: 768
GlyphClass: 2
Flags: W
LayerCount: 2
Fore
SplineSet
256 128 m 1,0,-1
 256 384 l 1,1,-1
 0 384 l 1,2,-1
 0 512 l 1,3,-1
 256 512 l 1,4,-1
 256 768 l 1,5,-1
 384 768 l 1,6,-1
 384 512 l 1,7,-1
 640 512 l 1,8,-1
 640 384 l 1,9,-1
 384 384 l 1,10,-1
 384 128 l 1,11,-1
 256 128 l 1,0,-1
EndSplineSet
Validated: 1
EndChar

StartChar: comma
Encoding: 44 44 15
Width: 384
GlyphClass: 2
Flags: W
LayerCount: 2
Fore
SplineSet
128 0 m 1,0,-1
 128 128 l 1,1,-1
 0 128 l 1,2,-1
 0 256 l 1,3,-1
 256 256 l 1,4,-1
 256 0 l 1,5,-1
 128 0 l 1,0,-1
EndSplineSet
Validated: 1
EndChar

StartChar: hyphen
Encoding: 45 45 16
Width: 768
GlyphClass: 2
Flags: W
LayerCount: 2
Fore
SplineSet
0 384 m 1,0,-1
 0 512 l 1,1,-1
 640 512 l 1,2,-1
 640 384 l 1,3,-1
 0 384 l 1,0,-1
EndSplineSet
Validated: 1
EndChar

StartChar: period
Encoding: 46 46 17
Width: 384
GlyphClass: 2
Flags: W
LayerCount: 2
Fore
SplineSet
0 0 m 1,0,-1
 0 256 l 1,1,-1
 256 256 l 1,2,-1
 256 0 l 1,3,-1
 0 0 l 1,0,-1
EndSplineSet
Validated: 1
EndChar

StartChar: slash
Encoding: 47 47 18
Width: 512
GlyphClass: 2
Flags: W
LayerCount: 2
Fore
SplineSet
0 0 m 1,0,-1
 0 256 l 1,1,-1
 128 256 l 1,2,-1
 128 0 l 1,3,-1
 0 0 l 1,0,-1
128 256 m 1,4,-1
 128 640 l 1,5,-1
 256 640 l 1,6,-1
 256 256 l 1,7,-1
 128 256 l 1,4,-1
256 640 m 1,8,-1
 256 896 l 1,9,-1
 384 896 l 1,10,-1
 384 640 l 1,11,-1
 256 640 l 1,8,-1
EndSplineSet
Validated: 5
EndChar

StartChar: zero
Encoding: 48 48 19
Width: 768
GlyphClass: 2
Flags: W
LayerCount: 2
Fore
SplineSet
128 0 m 1,0,-1
 128 128 l 1,1,-1
 512 128 l 1,2,-1
 512 0 l 1,3,-1
 128 0 l 1,0,-1
256 384 m 1,4,-1
 256 512 l 1,5,-1
 384 512 l 1,6,-1
 384 384 l 1,7,-1
 256 384 l 1,4,-1
0 128 m 1,8,-1
 0 768 l 1,9,-1
 128 768 l 1,10,-1
 128 384 l 1,11,-1
 256 384 l 1,12,-1
 256 256 l 1,13,-1
 128 256 l 1,14,-1
 128 128 l 1,15,-1
 0 128 l 1,8,-1
512 128 m 1,16,-1
 512 512 l 1,17,-1
 384 512 l 1,18,-1
 384 640 l 1,19,-1
 512 640 l 1,20,-1
 512 768 l 1,21,-1
 640 768 l 1,22,-1
 640 128 l 1,23,-1
 512 128 l 1,16,-1
128 768 m 1,24,-1
 128 896 l 1,25,-1
 512 896 l 1,26,-1
 512 768 l 1,27,-1
 128 768 l 1,24,-1
EndSplineSet
Validated: 5
EndChar

StartChar: one
Encoding: 49 49 20
Width: 512
GlyphClass: 2
Flags: W
LayerCount: 2
Fore
SplineSet
0 0 m 1,0,-1
 0 128 l 1,1,-1
 128 128 l 1,2,-1
 128 640 l 1,3,-1
 0 640 l 1,4,-1
 0 768 l 1,5,-1
 128 768 l 1,6,-1
 128 896 l 1,7,-1
 256 896 l 1,8,-1
 256 128 l 1,9,-1
 384 128 l 1,10,-1
 384 0 l 1,11,-1
 0 0 l 1,0,-1
EndSplineSet
Validated: 1
EndChar

StartChar: two
Encoding: 50 50 21
Width: 768
GlyphClass: 2
Flags: W
LayerCount: 2
Fore
SplineSet
0 0 m 1,0,-1
 0 128 l 1,1,-1
 128 128 l 1,2,-1
 128 256 l 1,3,-1
 256 256 l 1,4,-1
 256 128 l 1,5,-1
 640 128 l 1,6,-1
 640 0 l 1,7,-1
 0 0 l 1,0,-1
256 256 m 1,8,-1
 256 384 l 1,9,-1
 384 384 l 1,10,-1
 384 256 l 1,11,-1
 256 256 l 1,8,-1
384 384 m 1,12,-1
 384 512 l 1,13,-1
 512 512 l 1,14,-1
 512 384 l 1,15,-1
 384 384 l 1,12,-1
0 640 m 1,16,-1
 0 768 l 1,17,-1
 128 768 l 1,18,-1
 128 640 l 1,19,-1
 0 640 l 1,16,-1
512 512 m 1,20,-1
 512 768 l 1,21,-1
 640 768 l 1,22,-1
 640 512 l 1,23,-1
 512 512 l 1,20,-1
128 768 m 1,24,-1
 128 896 l 1,25,-1
 512 896 l 1,26,-1
 512 768 l 1,27,-1
 128 768 l 1,24,-1
EndSplineSet
Validated: 5
EndChar

StartChar: three
Encoding: 51 51 22
Width: 768
GlyphClass: 2
Flags: W
LayerCount: 2
Fore
SplineSet
128 0 m 1,0,-1
 128 128 l 1,1,-1
 512 128 l 1,2,-1
 512 0 l 1,3,-1
 128 0 l 1,0,-1
0 128 m 1,4,-1
 0 256 l 1,5,-1
 128 256 l 1,6,-1
 128 128 l 1,7,-1
 0 128 l 1,4,-1
512 128 m 1,8,-1
 512 384 l 1,9,-1
 640 384 l 1,10,-1
 640 128 l 1,11,-1
 512 128 l 1,8,-1
384 384 m 1,12,-1
 384 512 l 1,13,-1
 512 512 l 1,14,-1
 512 384 l 1,15,-1
 384 384 l 1,12,-1
256 512 m 1,16,-1
 256 640 l 1,17,-1
 384 640 l 1,18,-1
 384 512 l 1,19,-1
 256 512 l 1,16,-1
384 640 m 1,20,-1
 384 768 l 1,21,-1
 0 768 l 1,22,-1
 0 896 l 1,23,-1
 640 896 l 1,24,-1
 640 768 l 1,25,-1
 512 768 l 1,26,-1
 512 640 l 1,27,-1
 384 640 l 1,20,-1
EndSplineSet
Validated: 5
EndChar

StartChar: four
Encoding: 52 52 23
Width: 768
GlyphClass: 2
Flags: W
LayerCount: 2
Fore
SplineSet
128 512 m 1,0,-1
 128 640 l 1,1,-1
 256 640 l 1,2,-1
 256 512 l 1,3,-1
 128 512 l 1,0,-1
384 0 m 1,4,-1
 384 256 l 1,5,-1
 0 256 l 1,6,-1
 0 512 l 1,7,-1
 128 512 l 1,8,-1
 128 384 l 1,9,-1
 384 384 l 1,10,-1
 384 640 l 1,11,-1
 256 640 l 1,12,-1
 256 768 l 1,13,-1
 384 768 l 1,14,-1
 384 896 l 1,15,-1
 512 896 l 1,16,-1
 512 384 l 1,17,-1
 640 384 l 1,18,-1
 640 256 l 1,19,-1
 512 256 l 1,20,-1
 512 0 l 1,21,-1
 384 0 l 1,4,-1
EndSplineSet
Validated: 5
EndChar

StartChar: five
Encoding: 53 53 24
Width: 768
GlyphClass: 2
Flags: W
LayerCount: 2
Fore
SplineSet
128 0 m 1,0,-1
 128 128 l 1,1,-1
 512 128 l 1,2,-1
 512 0 l 1,3,-1
 128 0 l 1,0,-1
0 128 m 1,4,-1
 0 256 l 1,5,-1
 128 256 l 1,6,-1
 128 128 l 1,7,-1
 0 128 l 1,4,-1
512 128 m 1,8,-1
 512 512 l 1,9,-1
 640 512 l 1,10,-1
 640 128 l 1,11,-1
 512 128 l 1,8,-1
0 512 m 1,12,-1
 0 896 l 1,13,-1
 640 896 l 1,14,-1
 640 768 l 1,15,-1
 128 768 l 1,16,-1
 128 640 l 1,17,-1
 512 640 l 1,18,-1
 512 512 l 1,19,-1
 0 512 l 1,12,-1
EndSplineSet
Validated: 5
EndChar

StartChar: six
Encoding: 54 54 25
Width: 768
GlyphClass: 2
Flags: W
LayerCount: 2
Fore
SplineSet
128 0 m 1,0,-1
 128 128 l 1,1,-1
 512 128 l 1,2,-1
 512 0 l 1,3,-1
 128 0 l 1,0,-1
512 128 m 1,4,-1
 512 384 l 1,5,-1
 640 384 l 1,6,-1
 640 128 l 1,7,-1
 512 128 l 1,4,-1
0 128 m 1,8,-1
 0 640 l 1,9,-1
 128 640 l 1,10,-1
 128 512 l 1,11,-1
 512 512 l 1,12,-1
 512 384 l 1,13,-1
 128 384 l 1,14,-1
 128 128 l 1,15,-1
 0 128 l 1,8,-1
128 640 m 1,16,-1
 128 768 l 1,17,-1
 256 768 l 1,18,-1
 256 640 l 1,19,-1
 128 640 l 1,16,-1
256 768 m 1,20,-1
 256 896 l 1,21,-1
 512 896 l 1,22,-1
 512 768 l 1,23,-1
 256 768 l 1,20,-1
EndSplineSet
Validated: 5
EndChar

StartChar: seven
Encoding: 55 55 26
Width: 768
GlyphClass: 2
Flags: W
LayerCount: 2
Fore
SplineSet
128 0 m 1,0,-1
 128 384 l 1,1,-1
 256 384 l 1,2,-1
 256 0 l 1,3,-1
 128 0 l 1,0,-1
256 384 m 1,4,-1
 256 512 l 1,5,-1
 384 512 l 1,6,-1
 384 384 l 1,7,-1
 256 384 l 1,4,-1
384 512 m 1,8,-1
 384 640 l 1,9,-1
 512 640 l 1,10,-1
 512 512 l 1,11,-1
 384 512 l 1,8,-1
512 640 m 1,12,-1
 512 768 l 1,13,-1
 0 768 l 1,14,-1
 0 896 l 1,15,-1
 640 896 l 1,16,-1
 640 640 l 1,17,-1
 512 640 l 1,12,-1
EndSplineSet
Validated: 5
EndChar

StartChar: eight
Encoding: 56 56 27
Width: 768
GlyphClass: 2
Flags: W
LayerCount: 2
Fore
SplineSet
128 0 m 1,0,-1
 128 128 l 1,1,-1
 512 128 l 1,2,-1
 512 0 l 1,3,-1
 128 0 l 1,0,-1
0 128 m 1,4,-1
 0 384 l 1,5,-1
 128 384 l 1,6,-1
 128 128 l 1,7,-1
 0 128 l 1,4,-1
512 128 m 1,8,-1
 512 384 l 1,9,-1
 640 384 l 1,10,-1
 640 128 l 1,11,-1
 512 128 l 1,8,-1
128 384 m 1,12,-1
 128 512 l 1,13,-1
 512 512 l 1,14,-1
 512 384 l 1,15,-1
 128 384 l 1,12,-1
0 512 m 1,16,-1
 0 768 l 1,17,-1
 128 768 l 1,18,-1
 128 512 l 1,19,-1
 0 512 l 1,16,-1
512 512 m 1,20,-1
 512 768 l 1,21,-1
 640 768 l 1,22,-1
 640 512 l 1,23,-1
 512 512 l 1,20,-1
128 768 m 1,24,-1
 128 896 l 1,25,-1
 512 896 l 1,26,-1
 512 768 l 1,27,-1
 128 768 l 1,24,-1
EndSplineSet
Validated: 5
EndChar

StartChar: nine
Encoding: 57 57 28
Width: 768
GlyphClass: 2
Flags: W
LayerCount: 2
Fore
SplineSet
128 0 m 1,0,-1
 128 128 l 1,1,-1
 384 128 l 1,2,-1
 384 0 l 1,3,-1
 128 0 l 1,0,-1
384 128 m 1,4,-1
 384 256 l 1,5,-1
 512 256 l 1,6,-1
 512 128 l 1,7,-1
 384 128 l 1,4,-1
0 512 m 1,8,-1
 0 768 l 1,9,-1
 128 768 l 1,10,-1
 128 512 l 1,11,-1
 0 512 l 1,8,-1
512 256 m 1,12,-1
 512 384 l 1,13,-1
 128 384 l 1,14,-1
 128 512 l 1,15,-1
 512 512 l 1,16,-1
 512 768 l 1,17,-1
 640 768 l 1,18,-1
 640 256 l 1,19,-1
 512 256 l 1,12,-1
128 768 m 1,20,-1
 128 896 l 1,21,-1
 512 896 l 1,22,-1
 512 768 l 1,23,-1
 128 768 l 1,20,-1
EndSplineSet
Validated: 5
EndChar

StartChar: colon
Encoding: 58 58 29
Width: 256
GlyphClass: 2
Flags: W
LayerCount: 2
Fore
SplineSet
0 128 m 1,0,-1
 0 256 l 1,1,-1
 128 256 l 1,2,-1
 128 128 l 1,3,-1
 0 128 l 1,0,-1
0 640 m 1,4,-1
 0 768 l 1,5,-1
 128 768 l 1,6,-1
 128 640 l 1,7,-1
 0 640 l 1,4,-1
EndSplineSet
Validated: 1
EndChar

StartChar: semicolon
Encoding: 59 59 30
Width: 384
GlyphClass: 2
Flags: W
LayerCount: 2
Fore
SplineSet
128 0 m 1,0,-1
 128 128 l 1,1,-1
 0 128 l 1,2,-1
 0 256 l 1,3,-1
 256 256 l 1,4,-1
 256 0 l 1,5,-1
 128 0 l 1,0,-1
128 640 m 1,6,-1
 128 768 l 1,7,-1
 256 768 l 1,8,-1
 256 640 l 1,9,-1
 128 640 l 1,6,-1
EndSplineSet
Validated: 1
EndChar

StartChar: less
Encoding: 60 60 31
Width: 640
GlyphClass: 2
Flags: W
LayerCount: 2
Fore
SplineSet
384 0 m 1,0,-1
 384 128 l 1,1,-1
 512 128 l 1,2,-1
 512 0 l 1,3,-1
 384 0 l 1,0,-1
256 128 m 1,4,-1
 256 256 l 1,5,-1
 384 256 l 1,6,-1
 384 128 l 1,7,-1
 256 128 l 1,4,-1
128 256 m 1,8,-1
 128 384 l 1,9,-1
 256 384 l 1,10,-1
 256 256 l 1,11,-1
 128 256 l 1,8,-1
0 384 m 1,12,-1
 0 512 l 1,13,-1
 128 512 l 1,14,-1
 128 384 l 1,15,-1
 0 384 l 1,12,-1
128 512 m 1,16,-1
 128 640 l 1,17,-1
 256 640 l 1,18,-1
 256 512 l 1,19,-1
 128 512 l 1,16,-1
256 640 m 1,20,-1
 256 768 l 1,21,-1
 384 768 l 1,22,-1
 384 640 l 1,23,-1
 256 640 l 1,20,-1
384 768 m 1,24,-1
 384 896 l 1,25,-1
 512 896 l 1,26,-1
 512 768 l 1,27,-1
 384 768 l 1,24,-1
EndSplineSet
Validated: 5
EndChar

StartChar: equal
Encoding: 61 61 32
Width: 768
GlyphClass: 2
Flags: W
LayerCount: 2
Fore
SplineSet
0 256 m 1,0,-1
 0 384 l 1,1,-1
 640 384 l 1,2,-1
 640 256 l 1,3,-1
 0 256 l 1,0,-1
0 512 m 1,4,-1
 0 640 l 1,5,-1
 640 640 l 1,6,-1
 640 512 l 1,7,-1
 0 512 l 1,4,-1
EndSplineSet
Validated: 1
EndChar

StartChar: greater
Encoding: 62 62 33
Width: 640
GlyphClass: 2
Flags: W
LayerCount: 2
Fore
SplineSet
0 0 m 1,0,-1
 0 128 l 1,1,-1
 128 128 l 1,2,-1
 128 0 l 1,3,-1
 0 0 l 1,0,-1
128 128 m 1,4,-1
 128 256 l 1,5,-1
 256 256 l 1,6,-1
 256 128 l 1,7,-1
 128 128 l 1,4,-1
256 256 m 1,8,-1
 256 384 l 1,9,-1
 384 384 l 1,10,-1
 384 256 l 1,11,-1
 256 256 l 1,8,-1
384 384 m 1,12,-1
 384 512 l 1,13,-1
 512 512 l 1,14,-1
 512 384 l 1,15,-1
 384 384 l 1,12,-1
256 512 m 1,16,-1
 256 640 l 1,17,-1
 384 640 l 1,18,-1
 384 512 l 1,19,-1
 256 512 l 1,16,-1
128 640 m 1,20,-1
 128 768 l 1,21,-1
 256 768 l 1,22,-1
 256 640 l 1,23,-1
 128 640 l 1,20,-1
0 768 m 1,24,-1
 0 896 l 1,25,-1
 128 896 l 1,26,-1
 128 768 l 1,27,-1
 0 768 l 1,24,-1
EndSplineSet
Validated: 5
EndChar

StartChar: question
Encoding: 63 63 34
Width: 640
GlyphClass: 2
Flags: W
LayerCount: 2
Fore
SplineSet
128 0 m 1,0,-1
 128 128 l 1,1,-1
 256 128 l 1,2,-1
 256 0 l 1,3,-1
 128 0 l 1,0,-1
128 256 m 1,4,-1
 128 384 l 1,5,-1
 256 384 l 1,6,-1
 256 256 l 1,7,-1
 128 256 l 1,4,-1
256 384 m 1,8,-1
 256 512 l 1,9,-1
 384 512 l 1,10,-1
 384 384 l 1,11,-1
 256 384 l 1,8,-1
0 640 m 1,12,-1
 0 768 l 1,13,-1
 128 768 l 1,14,-1
 128 640 l 1,15,-1
 0 640 l 1,12,-1
384 512 m 1,16,-1
 384 768 l 1,17,-1
 512 768 l 1,18,-1
 512 512 l 1,19,-1
 384 512 l 1,16,-1
128 768 m 1,20,-1
 128 896 l 1,21,-1
 384 896 l 1,22,-1
 384 768 l 1,23,-1
 128 768 l 1,20,-1
EndSplineSet
Validated: 5
EndChar

StartChar: at
Encoding: 64 64 35
Width: 1024
GlyphClass: 2
Flags: W
LayerCount: 2
Fore
SplineSet
128 0 m 1,0,-1
 128 128 l 1,1,-1
 768 128 l 1,2,-1
 768 0 l 1,3,-1
 128 0 l 1,0,-1
512 384 m 1,4,-1
 512 512 l 1,5,-1
 384 512 l 1,6,-1
 384 384 l 1,7,-1
 512 384 l 1,4,-1
0 128 m 1,8,-1
 0 768 l 1,9,-1
 128 768 l 1,10,-1
 128 128 l 1,11,-1
 0 128 l 1,8,-1
256 256 m 1,12,-1
 256 640 l 1,13,-1
 640 640 l 1,14,-1
 640 384 l 1,15,-1
 768 384 l 1,16,-1
 768 768 l 1,17,-1
 896 768 l 1,18,-1
 896 256 l 1,19,-1
 256 256 l 1,12,-1
128 768 m 1,20,-1
 128 896 l 1,21,-1
 768 896 l 1,22,-1
 768 768 l 1,23,-1
 128 768 l 1,20,-1
EndSplineSet
Validated: 5
EndChar

StartChar: A
Encoding: 65 65 36
Width: 768
GlyphClass: 2
Flags: W
LayerCount: 2
Fore
SplineSet
0 0 m 1,0,-1
 0 768 l 1,1,-1
 128 768 l 1,2,-1
 128 512 l 1,3,-1
 512 512 l 1,4,-1
 512 768 l 1,5,-1
 640 768 l 1,6,-1
 640 0 l 1,7,-1
 512 0 l 1,8,-1
 512 384 l 1,9,-1
 128 384 l 1,10,-1
 128 0 l 1,11,-1
 0 0 l 1,0,-1
128 768 m 1,12,-1
 128 896 l 1,13,-1
 512 896 l 1,14,-1
 512 768 l 1,15,-1
 128 768 l 1,12,-1
EndSplineSet
Validated: 5
EndChar

StartChar: B
Encoding: 66 66 37
Width: 768
GlyphClass: 2
Flags: W
LayerCount: 2
Fore
SplineSet
512 128 m 1,0,-1
 512 384 l 1,1,-1
 640 384 l 1,2,-1
 640 128 l 1,3,-1
 512 128 l 1,0,-1
512 512 m 1,4,-1
 512 768 l 1,5,-1
 640 768 l 1,6,-1
 640 512 l 1,7,-1
 512 512 l 1,4,-1
0 0 m 1,8,-1
 0 896 l 1,9,-1
 512 896 l 1,10,-1
 512 768 l 1,11,-1
 128 768 l 1,12,-1
 128 512 l 1,13,-1
 512 512 l 1,14,-1
 512 384 l 1,15,-1
 128 384 l 1,16,-1
 128 128 l 1,17,-1
 512 128 l 1,18,-1
 512 0 l 1,19,-1
 0 0 l 1,8,-1
EndSplineSet
Validated: 5
EndChar

StartChar: C
Encoding: 67 67 38
Width: 768
GlyphClass: 2
Flags: W
LayerCount: 2
Fore
SplineSet
128 0 m 1,0,-1
 128 128 l 1,1,-1
 512 128 l 1,2,-1
 512 0 l 1,3,-1
 128 0 l 1,0,-1
512 128 m 1,4,-1
 512 256 l 1,5,-1
 640 256 l 1,6,-1
 640 128 l 1,7,-1
 512 128 l 1,4,-1
0 128 m 1,8,-1
 0 768 l 1,9,-1
 128 768 l 1,10,-1
 128 128 l 1,11,-1
 0 128 l 1,8,-1
512 640 m 1,12,-1
 512 768 l 1,13,-1
 640 768 l 1,14,-1
 640 640 l 1,15,-1
 512 640 l 1,12,-1
128 768 m 1,16,-1
 128 896 l 1,17,-1
 512 896 l 1,18,-1
 512 768 l 1,19,-1
 128 768 l 1,16,-1
EndSplineSet
Validated: 5
EndChar

StartChar: D
Encoding: 68 68 39
Width: 768
GlyphClass: 2
Flags: W
LayerCount: 2
Fore
SplineSet
512 128 m 1,0,-1
 512 768 l 1,1,-1
 640 768 l 1,2,-1
 640 128 l 1,3,-1
 512 128 l 1,0,-1
0 0 m 1,4,-1
 0 896 l 1,5,-1
 512 896 l 1,6,-1
 512 768 l 1,7,-1
 128 768 l 1,8,-1
 128 128 l 1,9,-1
 512 128 l 1,10,-1
 512 0 l 1,11,-1
 0 0 l 1,4,-1
EndSplineSet
Validated: 5
EndChar

StartChar: E
Encoding: 69 69 40
Width: 768
GlyphClass: 2
Flags: W
LayerCount: 2
Fore
SplineSet
0 0 m 1,0,-1
 0 896 l 1,1,-1
 514 896 l 1,2,-1
 514 768 l 1,3,-1
 128 768 l 1,4,-1
 128 512 l 1,5,-1
 512 512 l 1,6,-1
 512 384 l 1,7,-1
 128 384 l 1,8,-1
 128 128 l 1,9,-1
 513 128 l 1,10,-1
 513 0 l 1,11,-1
 0 0 l 1,0,-1
EndSplineSet
EndChar

StartChar: F
Encoding: 70 70 41
Width: 768
GlyphClass: 2
Flags: W
LayerCount: 2
Fore
SplineSet
0 0 m 1,0,-1
 0 896 l 1,1,-1
 512 896 l 1,2,-1
 512 768 l 1,3,-1
 128 768 l 1,4,-1
 128 512 l 1,5,-1
 512 512 l 1,6,-1
 512 384 l 1,7,-1
 128 384 l 1,8,-1
 128 0 l 1,9,-1
 0 0 l 1,0,-1
EndSplineSet
EndChar

StartChar: G
Encoding: 71 71 42
Width: 768
GlyphClass: 2
Flags: W
LayerCount: 2
Fore
SplineSet
128 0 m 1,0,-1
 128 128 l 1,1,-1
 512 128 l 1,2,-1
 512 384 l 1,3,-1
 256 384 l 1,4,-1
 256 512 l 1,5,-1
 640 512 l 1,6,-1
 640 0 l 1,7,-1
 128 0 l 1,0,-1
0 128 m 1,8,-1
 0 768 l 1,9,-1
 128 768 l 1,10,-1
 128 128 l 1,11,-1
 0 128 l 1,8,-1
512 640 m 1,12,-1
 512 768 l 1,13,-1
 640 768 l 1,14,-1
 640 640 l 1,15,-1
 512 640 l 1,12,-1
128 768 m 1,16,-1
 128 896 l 1,17,-1
 512 896 l 1,18,-1
 512 768 l 1,19,-1
 128 768 l 1,16,-1
EndSplineSet
Validated: 5
EndChar

StartChar: H
Encoding: 72 72 43
Width: 768
GlyphClass: 2
Flags: W
LayerCount: 2
Fore
SplineSet
0 0 m 1,0,-1
 0 896 l 1,1,-1
 128 896 l 1,2,-1
 128 512 l 1,3,-1
 512 512 l 1,4,-1
 512 896 l 1,5,-1
 640 896 l 1,6,-1
 640 0 l 1,7,-1
 512 0 l 1,8,-1
 512 384 l 1,9,-1
 128 384 l 1,10,-1
 128 0 l 1,11,-1
 0 0 l 1,0,-1
EndSplineSet
Validated: 1
EndChar

StartChar: I
Encoding: 73 73 44
Width: 512
GlyphClass: 2
Flags: W
LayerCount: 2
Fore
SplineSet
0 0 m 1,0,-1
 0 128 l 1,1,-1
 128 128 l 1,2,-1
 128 768 l 1,3,-1
 0 768 l 1,4,-1
 0 896 l 1,5,-1
 384 896 l 1,6,-1
 384 768 l 1,7,-1
 256 768 l 1,8,-1
 256 128 l 1,9,-1
 384 128 l 1,10,-1
 384 0 l 1,11,-1
 0 0 l 1,0,-1
EndSplineSet
Validated: 1
EndChar

StartChar: J
Encoding: 74 74 45
Width: 768
GlyphClass: 2
Flags: W
LayerCount: 2
Fore
SplineSet
128 0 m 1,0,-1
 128 128 l 1,1,-1
 384 128 l 1,2,-1
 384 0 l 1,3,-1
 128 0 l 1,0,-1
0 128 m 1,4,-1
 0 256 l 1,5,-1
 128 256 l 1,6,-1
 128 128 l 1,7,-1
 0 128 l 1,4,-1
384 128 m 1,8,-1
 384 768 l 1,9,-1
 256 768 l 1,10,-1
 256 896 l 1,11,-1
 640 896 l 1,12,-1
 640 768 l 1,13,-1
 512 768 l 1,14,-1
 512 128 l 1,15,-1
 384 128 l 1,8,-1
EndSplineSet
Validated: 5
EndChar

StartChar: K
Encoding: 75 75 46
Width: 768
GlyphClass: 2
Flags: W
LayerCount: 2
Fore
SplineSet
512 0 m 1,0,-1
 512 128 l 1,1,-1
 640 128 l 1,2,-1
 640 0 l 1,3,-1
 512 0 l 1,0,-1
384 128 m 1,4,-1
 384 256 l 1,5,-1
 512 256 l 1,6,-1
 512 128 l 1,7,-1
 384 128 l 1,4,-1
256 256 m 1,8,-1
 256 384 l 1,9,-1
 384 384 l 1,10,-1
 384 256 l 1,11,-1
 256 256 l 1,8,-1
256 512 m 1,12,-1
 256 640 l 1,13,-1
 384 640 l 1,14,-1
 384 512 l 1,15,-1
 256 512 l 1,12,-1
384 640 m 1,16,-1
 384 768 l 1,17,-1
 512 768 l 1,18,-1
 512 640 l 1,19,-1
 384 640 l 1,16,-1
0 0 m 1,20,-1
 0 896 l 1,21,-1
 128 896 l 1,22,-1
 128 512 l 1,23,-1
 256 512 l 1,24,-1
 256 384 l 1,25,-1
 128 384 l 1,26,-1
 128 0 l 1,27,-1
 0 0 l 1,20,-1
512 768 m 1,28,-1
 512 896 l 1,29,-1
 640 896 l 1,30,-1
 640 768 l 1,31,-1
 512 768 l 1,28,-1
EndSplineSet
Validated: 5
EndChar

StartChar: L
Encoding: 76 76 47
Width: 768
GlyphClass: 2
Flags: W
LayerCount: 2
Fore
SplineSet
0 0 m 1,0,-1
 0 896 l 1,1,-1
 128 896 l 1,2,-1
 128 128 l 1,3,-1
 513 128 l 5,4,-1
 513 0 l 5,5,-1
 0 0 l 1,0,-1
EndSplineSet
EndChar

StartChar: M
Encoding: 77 77 48
Width: 768
GlyphClass: 2
Flags: W
LayerCount: 2
Fore
SplineSet
256 384 m 1,0,-1
 256 640 l 1,1,-1
 384 640 l 1,2,-1
 384 384 l 1,3,-1
 256 384 l 1,0,-1
0 0 m 1,4,-1
 0 896 l 1,5,-1
 128 896 l 1,6,-1
 128 768 l 1,7,-1
 256 768 l 1,8,-1
 256 640 l 1,9,-1
 128 640 l 1,10,-1
 128 0 l 1,11,-1
 0 0 l 1,4,-1
512 0 m 1,12,-1
 512 640 l 1,13,-1
 384 640 l 1,14,-1
 384 768 l 1,15,-1
 512 768 l 1,16,-1
 512 896 l 1,17,-1
 640 896 l 1,18,-1
 640 0 l 1,19,-1
 512 0 l 1,12,-1
EndSplineSet
Validated: 5
EndChar

StartChar: N
Encoding: 78 78 49
Width: 768
GlyphClass: 2
Flags: W
LayerCount: 2
Fore
SplineSet
256 384 m 1,0,-1
 256 512 l 1,1,-1
 384 512 l 1,2,-1
 384 384 l 1,3,-1
 256 384 l 1,0,-1
0 0 m 1,4,-1
 0 896 l 1,5,-1
 128 896 l 1,6,-1
 128 640 l 1,7,-1
 256 640 l 1,8,-1
 256 512 l 1,9,-1
 128 512 l 1,10,-1
 128 0 l 1,11,-1
 0 0 l 1,4,-1
512 0 m 1,12,-1
 512 256 l 1,13,-1
 384 256 l 1,14,-1
 384 384 l 1,15,-1
 512 384 l 1,16,-1
 512 896 l 1,17,-1
 640 896 l 1,18,-1
 640 0 l 1,19,-1
 512 0 l 1,12,-1
EndSplineSet
Validated: 5
EndChar

StartChar: O
Encoding: 79 79 50
Width: 768
GlyphClass: 2
Flags: W
LayerCount: 2
Fore
SplineSet
128 0 m 1,0,-1
 128 128 l 1,1,-1
 512 128 l 1,2,-1
 512 0 l 1,3,-1
 128 0 l 1,0,-1
0 128 m 1,4,-1
 0 768 l 1,5,-1
 128 768 l 1,6,-1
 128 128 l 1,7,-1
 0 128 l 1,4,-1
512 128 m 1,8,-1
 512 768 l 1,9,-1
 640 768 l 1,10,-1
 640 128 l 1,11,-1
 512 128 l 1,8,-1
128 768 m 1,12,-1
 128 896 l 1,13,-1
 512 896 l 1,14,-1
 512 768 l 1,15,-1
 128 768 l 1,12,-1
EndSplineSet
Validated: 5
EndChar

StartChar: P
Encoding: 80 80 51
Width: 768
GlyphClass: 2
Flags: W
LayerCount: 2
Fore
SplineSet
512 512 m 1,0,-1
 512 768 l 1,1,-1
 640 768 l 1,2,-1
 640 512 l 1,3,-1
 512 512 l 1,0,-1
0 0 m 1,4,-1
 0 896 l 1,5,-1
 512 896 l 1,6,-1
 512 768 l 1,7,-1
 128 768 l 1,8,-1
 128 512 l 1,9,-1
 512 512 l 1,10,-1
 512 384 l 1,11,-1
 128 384 l 1,12,-1
 128 0 l 1,13,-1
 0 0 l 1,4,-1
EndSplineSet
Validated: 5
EndChar

StartChar: Q
Encoding: 81 81 52
Width: 768
GlyphClass: 2
Flags: W
LayerCount: 2
Fore
SplineSet
128 0 m 1,0,-1
 128 128 l 1,1,-1
 384 128 l 1,2,-1
 384 0 l 1,3,-1
 128 0 l 1,0,-1
512 0 m 1,4,-1
 512 128 l 1,5,-1
 640 128 l 1,6,-1
 640 0 l 1,7,-1
 512 0 l 1,4,-1
384 128 m 1,8,-1
 384 256 l 1,9,-1
 512 256 l 1,10,-1
 512 128 l 1,11,-1
 384 128 l 1,8,-1
256 256 m 1,12,-1
 256 384 l 1,13,-1
 384 384 l 1,14,-1
 384 256 l 1,15,-1
 256 256 l 1,12,-1
0 128 m 1,16,-1
 0 768 l 1,17,-1
 128 768 l 1,18,-1
 128 128 l 1,19,-1
 0 128 l 1,16,-1
512 256 m 1,20,-1
 512 768 l 1,21,-1
 640 768 l 1,22,-1
 640 256 l 1,23,-1
 512 256 l 1,20,-1
128 768 m 1,24,-1
 128 896 l 1,25,-1
 512 896 l 1,26,-1
 512 768 l 1,27,-1
 128 768 l 1,24,-1
EndSplineSet
Validated: 5
EndChar

StartChar: R
Encoding: 82 82 53
Width: 768
GlyphClass: 2
Flags: W
LayerCount: 2
Fore
SplineSet
512 0 m 1,0,-1
 512 128 l 1,1,-1
 640 128 l 1,2,-1
 640 0 l 1,3,-1
 512 0 l 1,0,-1
384 128 m 1,4,-1
 384 256 l 1,5,-1
 512 256 l 1,6,-1
 512 128 l 1,7,-1
 384 128 l 1,4,-1
512 512 m 1,8,-1
 512 768 l 1,9,-1
 640 768 l 1,10,-1
 640 512 l 1,11,-1
 512 512 l 1,8,-1
0 0 m 1,12,-1
 0 896 l 1,13,-1
 512 896 l 1,14,-1
 512 768 l 1,15,-1
 128 768 l 1,16,-1
 128 512 l 1,17,-1
 512 512 l 1,18,-1
 512 384 l 1,19,-1
 384 384 l 1,20,-1
 384 256 l 1,21,-1
 256 256 l 1,22,-1
 256 384 l 1,23,-1
 128 384 l 1,24,-1
 128 0 l 1,25,-1
 0 0 l 1,12,-1
EndSplineSet
Validated: 5
EndChar

StartChar: S
Encoding: 83 83 54
Width: 768
GlyphClass: 2
Flags: W
LayerCount: 2
Fore
SplineSet
0 0 m 1,0,-1
 0 128 l 1,1,-1
 512 128 l 1,2,-1
 512 0 l 1,3,-1
 0 0 l 1,0,-1
512 128 m 1,4,-1
 512 384 l 1,5,-1
 640 384 l 1,6,-1
 640 128 l 1,7,-1
 512 128 l 1,4,-1
128 384 m 1,8,-1
 128 512 l 1,9,-1
 512 512 l 1,10,-1
 512 384 l 1,11,-1
 128 384 l 1,8,-1
0 512 m 1,12,-1
 0 768 l 1,13,-1
 128 768 l 1,14,-1
 128 512 l 1,15,-1
 0 512 l 1,12,-1
128 768 m 1,16,-1
 128 896 l 1,17,-1
 640 896 l 1,18,-1
 640 768 l 1,19,-1
 128 768 l 1,16,-1
EndSplineSet
Validated: 5
EndChar

StartChar: T
Encoding: 84 84 55
Width: 768
GlyphClass: 2
Flags: W
LayerCount: 2
Fore
SplineSet
256 0 m 1,0,-1
 256 768 l 1,1,-1
 0 768 l 1,2,-1
 0 896 l 1,3,-1
 640 896 l 1,4,-1
 640 768 l 1,5,-1
 384 768 l 1,6,-1
 384 0 l 1,7,-1
 256 0 l 1,0,-1
EndSplineSet
Validated: 1
EndChar

StartChar: U
Encoding: 85 85 56
Width: 768
GlyphClass: 2
Flags: W
LayerCount: 2
Fore
SplineSet
128 0 m 1,0,-1
 128 128 l 1,1,-1
 512 128 l 1,2,-1
 512 0 l 1,3,-1
 128 0 l 1,0,-1
0 128 m 1,4,-1
 0 896 l 1,5,-1
 128 896 l 1,6,-1
 128 128 l 1,7,-1
 0 128 l 1,4,-1
512 128 m 1,8,-1
 512 896 l 1,9,-1
 640 896 l 1,10,-1
 640 128 l 1,11,-1
 512 128 l 1,8,-1
EndSplineSet
Validated: 5
EndChar

StartChar: V
Encoding: 86 86 57
Width: 768
GlyphClass: 2
Flags: W
LayerCount: 2
Fore
SplineSet
256 0 m 1,0,-1
 256 128 l 1,1,-1
 384 128 l 1,2,-1
 384 0 l 1,3,-1
 256 0 l 1,0,-1
128 128 m 1,4,-1
 128 384 l 1,5,-1
 256 384 l 1,6,-1
 256 128 l 1,7,-1
 128 128 l 1,4,-1
384 128 m 1,8,-1
 384 384 l 1,9,-1
 512 384 l 1,10,-1
 512 128 l 1,11,-1
 384 128 l 1,8,-1
0 384 m 1,12,-1
 0 896 l 1,13,-1
 128 896 l 1,14,-1
 128 384 l 1,15,-1
 0 384 l 1,12,-1
512 384 m 1,16,-1
 512 896 l 1,17,-1
 640 896 l 1,18,-1
 640 384 l 1,19,-1
 512 384 l 1,16,-1
EndSplineSet
Validated: 5
EndChar

StartChar: W
Encoding: 87 87 58
Width: 768
GlyphClass: 2
Flags: W
LayerCount: 2
Fore
SplineSet
128 0 m 1,0,-1
 128 128 l 1,1,-1
 256 128 l 1,2,-1
 256 0 l 1,3,-1
 128 0 l 1,0,-1
384 0 m 1,4,-1
 384 128 l 1,5,-1
 512 128 l 1,6,-1
 512 0 l 1,7,-1
 384 0 l 1,4,-1
256 128 m 1,8,-1
 256 512 l 1,9,-1
 384 512 l 1,10,-1
 384 128 l 1,11,-1
 256 128 l 1,8,-1
0 128 m 1,12,-1
 0 896 l 1,13,-1
 128 896 l 1,14,-1
 128 128 l 1,15,-1
 0 128 l 1,12,-1
512 128 m 1,16,-1
 512 896 l 1,17,-1
 640 896 l 1,18,-1
 640 128 l 1,19,-1
 512 128 l 1,16,-1
EndSplineSet
Validated: 5
EndChar

StartChar: X
Encoding: 88 88 59
Width: 768
GlyphClass: 2
Flags: W
LayerCount: 2
Fore
SplineSet
0 0 m 1,0,-1
 0 256 l 1,1,-1
 128 256 l 1,2,-1
 128 0 l 1,3,-1
 0 0 l 1,0,-1
512 0 m 1,4,-1
 512 256 l 1,5,-1
 640 256 l 1,6,-1
 640 0 l 1,7,-1
 512 0 l 1,4,-1
128 256 m 1,8,-1
 128 384 l 1,9,-1
 256 384 l 1,10,-1
 256 256 l 1,11,-1
 128 256 l 1,8,-1
384 256 m 1,12,-1
 384 384 l 1,13,-1
 512 384 l 1,14,-1
 512 256 l 1,15,-1
 384 256 l 1,12,-1
256 384 m 1,16,-1
 256 512 l 1,17,-1
 384 512 l 1,18,-1
 384 384 l 1,19,-1
 256 384 l 1,16,-1
128 512 m 1,20,-1
 128 640 l 1,21,-1
 256 640 l 1,22,-1
 256 512 l 1,23,-1
 128 512 l 1,20,-1
384 512 m 1,24,-1
 384 640 l 1,25,-1
 512 640 l 1,26,-1
 512 512 l 1,27,-1
 384 512 l 1,24,-1
0 640 m 1,28,-1
 0 896 l 1,29,-1
 128 896 l 1,30,-1
 128 640 l 1,31,-1
 0 640 l 1,28,-1
512 640 m 1,32,-1
 512 896 l 1,33,-1
 640 896 l 1,34,-1
 640 640 l 1,35,-1
 512 640 l 1,32,-1
EndSplineSet
Validated: 5
EndChar

StartChar: Y
Encoding: 89 89 60
Width: 768
GlyphClass: 2
Flags: W
LayerCount: 2
Fore
SplineSet
256 0 m 1,0,-1
 256 384 l 1,1,-1
 384 384 l 1,2,-1
 384 0 l 1,3,-1
 256 0 l 1,0,-1
128 384 m 1,4,-1
 128 512 l 1,5,-1
 256 512 l 1,6,-1
 256 384 l 1,7,-1
 128 384 l 1,4,-1
384 384 m 1,8,-1
 384 512 l 1,9,-1
 512 512 l 1,10,-1
 512 384 l 1,11,-1
 384 384 l 1,8,-1
0 512 m 1,12,-1
 0 896 l 1,13,-1
 128 896 l 1,14,-1
 128 512 l 1,15,-1
 0 512 l 1,12,-1
512 512 m 1,16,-1
 512 896 l 1,17,-1
 640 896 l 1,18,-1
 640 512 l 1,19,-1
 512 512 l 1,16,-1
EndSplineSet
Validated: 5
EndChar

StartChar: Z
Encoding: 90 90 61
Width: 768
GlyphClass: 2
Flags: W
LayerCount: 2
Fore
SplineSet
0 0 m 1,0,-1
 0 256 l 1,1,-1
 128 256 l 1,2,-1
 128 128 l 1,3,-1
 640 128 l 1,4,-1
 640 0 l 1,5,-1
 0 0 l 1,0,-1
128 256 m 1,6,-1
 128 384 l 1,7,-1
 256 384 l 1,8,-1
 256 256 l 1,9,-1
 128 256 l 1,6,-1
256 384 m 1,10,-1
 256 512 l 1,11,-1
 384 512 l 1,12,-1
 384 384 l 1,13,-1
 256 384 l 1,10,-1
384 512 m 1,14,-1
 384 640 l 1,15,-1
 512 640 l 1,16,-1
 512 512 l 1,17,-1
 384 512 l 1,14,-1
512 640 m 1,18,-1
 512 768 l 1,19,-1
 0 768 l 1,20,-1
 0 896 l 1,21,-1
 640 896 l 1,22,-1
 640 640 l 1,23,-1
 512 640 l 1,18,-1
EndSplineSet
Validated: 5
EndChar

StartChar: bracketleft
Encoding: 91 91 62
Width: 384
GlyphClass: 2
Flags: W
LayerCount: 2
Fore
SplineSet
0 0 m 1,0,-1
 0 896 l 1,1,-1
 256 896 l 1,2,-1
 256 768 l 1,3,-1
 128 768 l 1,4,-1
 128 128 l 1,5,-1
 256 128 l 1,6,-1
 256 0 l 1,7,-1
 0 0 l 1,0,-1
EndSplineSet
Validated: 1
EndChar

StartChar: backslash
Encoding: 92 92 63
Width: 512
GlyphClass: 2
Flags: W
LayerCount: 2
Fore
SplineSet
256 0 m 1,0,-1
 256 256 l 1,1,-1
 384 256 l 1,2,-1
 384 0 l 1,3,-1
 256 0 l 1,0,-1
128 256 m 1,4,-1
 128 640 l 1,5,-1
 256 640 l 1,6,-1
 256 256 l 1,7,-1
 128 256 l 1,4,-1
0 640 m 1,8,-1
 0 896 l 1,9,-1
 128 896 l 1,10,-1
 128 640 l 1,11,-1
 0 640 l 1,8,-1
EndSplineSet
Validated: 5
EndChar

StartChar: bracketright
Encoding: 93 93 64
Width: 384
GlyphClass: 2
Flags: W
LayerCount: 2
Fore
SplineSet
0 0 m 1,0,-1
 0 128 l 1,1,-1
 128 128 l 1,2,-1
 128 768 l 1,3,-1
 0 768 l 1,4,-1
 0 896 l 1,5,-1
 256 896 l 1,6,-1
 256 0 l 1,7,-1
 0 0 l 1,0,-1
EndSplineSet
Validated: 1
EndChar

StartChar: asciicircum
Encoding: 94 94 65
Width: 768
GlyphClass: 2
Flags: W
LayerCount: 2
Fore
SplineSet
0 512 m 1,0,-1
 0 640 l 1,1,-1
 128 640 l 1,2,-1
 128 512 l 1,3,-1
 0 512 l 1,0,-1
512 512 m 1,4,-1
 512 640 l 1,5,-1
 640 640 l 1,6,-1
 640 512 l 1,7,-1
 512 512 l 1,4,-1
128 640 m 1,8,-1
 128 768 l 1,9,-1
 256 768 l 1,10,-1
 256 640 l 1,11,-1
 128 640 l 1,8,-1
384 640 m 1,12,-1
 384 768 l 1,13,-1
 512 768 l 1,14,-1
 512 640 l 1,15,-1
 384 640 l 1,12,-1
256 768 m 1,16,-1
 256 896 l 1,17,-1
 384 896 l 1,18,-1
 384 768 l 1,19,-1
 256 768 l 1,16,-1
EndSplineSet
Validated: 5
EndChar

StartChar: underscore
Encoding: 95 95 66
Width: 640
GlyphClass: 2
Flags: W
LayerCount: 2
Fore
SplineSet
0 0 m 1,0,-1
 0 128 l 1,1,-1
 512 128 l 1,2,-1
 512 0 l 1,3,-1
 0 0 l 1,0,-1
EndSplineSet
Validated: 1
EndChar

StartChar: grave
Encoding: 96 96 67
Width: 384
GlyphClass: 2
Flags: W
LayerCount: 2
Fore
SplineSet
128 640 m 1,0,-1
 128 768 l 1,1,-1
 256 768 l 1,2,-1
 256 640 l 1,3,-1
 128 640 l 1,0,-1
0 768 m 1,4,-1
 0 896 l 1,5,-1
 128 896 l 1,6,-1
 128 768 l 1,7,-1
 0 768 l 1,4,-1
EndSplineSet
Validated: 5
EndChar

StartChar: a
Encoding: 97 97 68
Width: 768
GlyphClass: 2
Flags: W
LayerCount: 2
Fore
SplineSet
0 128 m 1,0,-1
 0 256 l 1,1,-1
 128 256 l 1,2,-1
 128 128 l 1,3,-1
 0 128 l 1,0,-1
128 0 m 1,4,-1
 128 128 l 1,5,-1
 512 128 l 1,6,-1
 512 256 l 1,7,-1
 128 256 l 1,8,-1
 128 384 l 1,9,-1
 512 384 l 1,10,-1
 512 512 l 1,11,-1
 640 512 l 1,12,-1
 640 0 l 1,13,-1
 128 0 l 1,4,-1
128 512 m 1,14,-1
 128 640 l 1,15,-1
 512 640 l 1,16,-1
 512 512 l 1,17,-1
 128 512 l 1,14,-1
EndSplineSet
Validated: 5
EndChar

StartChar: b
Encoding: 98 98 69
Width: 768
GlyphClass: 2
Flags: W
LayerCount: 2
Fore
SplineSet
512 128 m 1,0,-1
 512 512 l 1,1,-1
 640 512 l 1,2,-1
 640 128 l 1,3,-1
 512 128 l 1,0,-1
256 512 m 1,4,-1
 256 640 l 1,5,-1
 512 640 l 1,6,-1
 512 512 l 1,7,-1
 256 512 l 1,4,-1
0 0 m 1,8,-1
 0 896 l 1,9,-1
 128 896 l 1,10,-1
 128 512 l 1,11,-1
 256 512 l 1,12,-1
 256 384 l 1,13,-1
 128 384 l 1,14,-1
 128 128 l 1,15,-1
 512 128 l 1,16,-1
 512 0 l 1,17,-1
 0 0 l 1,8,-1
EndSplineSet
Validated: 5
EndChar

StartChar: c
Encoding: 99 99 70
Width: 768
GlyphClass: 2
Flags: W
LayerCount: 2
Fore
SplineSet
128 0 m 1,0,-1
 128 128 l 1,1,-1
 512 128 l 1,2,-1
 512 0 l 1,3,-1
 128 0 l 1,0,-1
512 128 m 1025,4,-1
0 128 m 1,5,-1
 0 512 l 1,6,-1
 128 512 l 1,7,-1
 128 128 l 1,8,-1
 0 128 l 1,5,-1
128 512 m 1,9,-1
 128 640 l 1,10,-1
 512 640 l 1,11,-1
 512 512 l 1,12,-1
 128 512 l 1,9,-1
EndSplineSet
EndChar

StartChar: d
Encoding: 100 100 71
Width: 768
GlyphClass: 2
Flags: W
LayerCount: 2
Fore
SplineSet
0 128 m 1,0,-1
 0 512 l 1,1,-1
 128 512 l 1,2,-1
 128 128 l 1,3,-1
 0 128 l 1,0,-1
128 512 m 1,4,-1
 128 640 l 1,5,-1
 384 640 l 1,6,-1
 384 512 l 1,7,-1
 128 512 l 1,4,-1
128 0 m 1,8,-1
 128 128 l 1,9,-1
 512 128 l 1,10,-1
 512 384 l 1,11,-1
 384 384 l 1,12,-1
 384 512 l 1,13,-1
 512 512 l 1,14,-1
 512 896 l 1,15,-1
 640 896 l 1,16,-1
 640 0 l 1,17,-1
 128 0 l 1,8,-1
EndSplineSet
Validated: 5
EndChar

StartChar: e
Encoding: 101 101 72
Width: 768
GlyphClass: 2
Flags: W
LayerCount: 2
Fore
SplineSet
128 0 m 1,0,-1
 128 128 l 1,1,-1
 640 128 l 1,2,-1
 640 0 l 1,3,-1
 128 0 l 1,0,-1
0 128 m 1,4,-1
 0 512 l 1,5,-1
 128 512 l 1,6,-1
 128 384 l 1,7,-1
 512 384 l 1,8,-1
 512 512 l 1,9,-1
 640 512 l 1,10,-1
 640 256 l 1,11,-1
 128 256 l 1,12,-1
 128 128 l 1,13,-1
 0 128 l 1,4,-1
128 512 m 1,14,-1
 128 640 l 1,15,-1
 512 640 l 1,16,-1
 512 512 l 1,17,-1
 128 512 l 1,14,-1
EndSplineSet
EndChar

StartChar: f
Encoding: 102 102 73
Width: 768
GlyphClass: 2
Flags: W
LayerCount: 2
Fore
SplineSet
128 0 m 1,0,-1
 128 384 l 1,1,-1
 0 384 l 1,2,-1
 0 512 l 1,3,-1
 128 512 l 1,4,-1
 128 896 l 1,5,-1
 256 896 l 1,6,-1
 256 512 l 1,7,-1
 384 512 l 1,8,-1
 384 384 l 1,9,-1
 256 384 l 1,10,-1
 256 0 l 1,11,-1
 128 0 l 1,0,-1
256 896 m 1,12,-1
 256 1024 l 1,13,-1
 385 1024 l 5,14,-1
 385 896 l 5,15,-1
 256 896 l 1,12,-1
EndSplineSet
EndChar

StartChar: g
Encoding: 103 103 74
Width: 768
GlyphClass: 2
Flags: W
LayerCount: 2
Fore
SplineSet
128 -128 m 1,0,-1
 128 0 l 1,1,-1
 512 0 l 1,2,-1
 512 -128 l 1,3,-1
 128 -128 l 1,0,-1
0 256 m 1,4,-1
 0 512 l 1,5,-1
 128 512 l 1,6,-1
 128 256 l 1,7,-1
 0 256 l 1,4,-1
512 0 m 1,8,-1
 512 128 l 1,9,-1
 128 128 l 1,10,-1
 128 256 l 1,11,-1
 512 256 l 1,12,-1
 512 512 l 1,13,-1
 128 512 l 1,14,-1
 128 640 l 1,15,-1
 640 640 l 1,16,-1
 640 0 l 1,17,-1
 512 0 l 1,8,-1
EndSplineSet
Validated: 5
EndChar

StartChar: h
Encoding: 104 104 75
Width: 768
GlyphClass: 2
Flags: W
LayerCount: 2
Fore
SplineSet
512 0 m 1,0,-1
 512 512 l 1,1,-1
 640 512 l 1,2,-1
 640 0 l 1,3,-1
 512 0 l 1,0,-1
256 512 m 1,4,-1
 256 640 l 1,5,-1
 512 640 l 1,6,-1
 512 512 l 1,7,-1
 256 512 l 1,4,-1
0 0 m 1,8,-1
 0 896 l 1,9,-1
 128 896 l 1,10,-1
 128 512 l 1,11,-1
 256 512 l 1,12,-1
 256 384 l 1,13,-1
 128 384 l 1,14,-1
 128 0 l 1,15,-1
 0 0 l 1,8,-1
EndSplineSet
Validated: 5
EndChar

StartChar: i
Encoding: 105 105 76
Width: 512
GlyphClass: 2
Flags: W
LayerCount: 2
Fore
SplineSet
0 0 m 1,0,-1
 0 128 l 1,1,-1
 128 128 l 1,2,-1
 128 512 l 1,3,-1
 0 512 l 1,4,-1
 0 640 l 1,5,-1
 256 640 l 1,6,-1
 256 128 l 1,7,-1
 384 128 l 1,8,-1
 384 0 l 1,9,-1
 0 0 l 1,0,-1
128 768 m 1,10,-1
 128 896 l 1,11,-1
 256 896 l 1,12,-1
 256 768 l 1,13,-1
 128 768 l 1,10,-1
EndSplineSet
Validated: 1
EndChar

StartChar: j
Encoding: 106 106 77
Width: 640
GlyphClass: 2
Flags: W
LayerCount: 2
Fore
SplineSet
128 -127 m 5,0,-1
 128 1 l 5,1,-1
 384 1 l 5,2,-1
 384 -127 l 5,3,-1
 128 -127 l 5,0,-1
0 1 m 5,4,-1
 0 129 l 5,5,-1
 128 129 l 5,6,-1
 128 1 l 5,7,-1
 0 1 l 5,4,-1
384 1 m 5,8,-1
 384 513 l 5,9,-1
 512 513 l 5,10,-1
 512 1 l 5,11,-1
 384 1 l 5,8,-1
384 641 m 5,12,-1
 384 769 l 5,13,-1
 512 769 l 5,14,-1
 512 641 l 5,15,-1
 384 641 l 5,12,-1
EndSplineSet
EndChar

StartChar: k
Encoding: 107 107 78
Width: 640
GlyphClass: 2
Flags: W
LayerCount: 2
Fore
SplineSet
384 0 m 1,0,-1
 384 128 l 1,1,-1
 512 128 l 1,2,-1
 512 0 l 1,3,-1
 384 0 l 1,0,-1
256 128 m 1,4,-1
 256 256 l 1,5,-1
 384 256 l 1,6,-1
 384 128 l 1,7,-1
 256 128 l 1,4,-1
256 384 m 1,8,-1
 256 512 l 1,9,-1
 384 512 l 1,10,-1
 384 384 l 1,11,-1
 256 384 l 1,8,-1
384 512 m 1,12,-1
 384 640 l 1,13,-1
 512 640 l 1,14,-1
 512 512 l 1,15,-1
 384 512 l 1,12,-1
0 0 m 1,16,-1
 0 896 l 1,17,-1
 128 896 l 1,18,-1
 128 384 l 1,19,-1
 256 384 l 1,20,-1
 256 256 l 1,21,-1
 128 256 l 1,22,-1
 128 0 l 1,23,-1
 0 0 l 1,16,-1
EndSplineSet
Validated: 5
EndChar

StartChar: l
Encoding: 108 108 79
Width: 512
GlyphClass: 2
Flags: W
LayerCount: 2
Fore
SplineSet
0 0 m 1,0,-1
 0 128 l 1,1,-1
 128 128 l 1,2,-1
 128 768 l 1,3,-1
 0 768 l 1,4,-1
 0 896 l 1,5,-1
 256 896 l 1,6,-1
 256 128 l 1,7,-1
 384 128 l 1,8,-1
 384 0 l 1,9,-1
 0 0 l 1,0,-1
EndSplineSet
Validated: 1
EndChar

StartChar: m
Encoding: 109 109 80
Width: 768
GlyphClass: 2
Flags: W
LayerCount: 2
Fore
SplineSet
256 256 m 1,0,-1
 256 512 l 1,1,-1
 384 512 l 1,2,-1
 384 256 l 1,3,-1
 256 256 l 1,0,-1
512 0 m 1,4,-1
 512 512 l 1,5,-1
 640 512 l 1,6,-1
 640 0 l 1,7,-1
 512 0 l 1,4,-1
0 0 m 1,8,-1
 0 640 l 1,9,-1
 256 640 l 1,10,-1
 256 512 l 1,11,-1
 128 512 l 1,12,-1
 128 0 l 1,13,-1
 0 0 l 1,8,-1
384 512 m 1,14,-1
 384 640 l 1,15,-1
 512 640 l 1,16,-1
 512 512 l 1,17,-1
 384 512 l 1,14,-1
EndSplineSet
Validated: 5
EndChar

StartChar: n
Encoding: 110 110 81
Width: 768
GlyphClass: 2
Flags: W
LayerCount: 2
Fore
SplineSet
512 0 m 1,0,-1
 512 512 l 1,1,-1
 640 512 l 1,2,-1
 640 0 l 1,3,-1
 512 0 l 1,0,-1
0 0 m 1,4,-1
 0 640 l 1,5,-1
 128 640 l 1,6,-1
 128 512 l 1,7,-1
 256 512 l 1,8,-1
 256 384 l 1,9,-1
 128 384 l 1,10,-1
 128 0 l 1,11,-1
 0 0 l 1,4,-1
256 512 m 1,12,-1
 256 640 l 1,13,-1
 512 640 l 1,14,-1
 512 512 l 1,15,-1
 256 512 l 1,12,-1
EndSplineSet
Validated: 5
EndChar

StartChar: o
Encoding: 111 111 82
Width: 768
GlyphClass: 2
Flags: W
LayerCount: 2
Fore
SplineSet
128 0 m 1,0,-1
 128 128 l 1,1,-1
 512 128 l 1,2,-1
 512 0 l 1,3,-1
 128 0 l 1,0,-1
0 128 m 1,4,-1
 0 512 l 1,5,-1
 128 512 l 1,6,-1
 128 128 l 1,7,-1
 0 128 l 1,4,-1
512 128 m 1,8,-1
 512 512 l 1,9,-1
 640 512 l 1,10,-1
 640 128 l 1,11,-1
 512 128 l 1,8,-1
128 512 m 1,12,-1
 128 640 l 1,13,-1
 512 640 l 1,14,-1
 512 512 l 1,15,-1
 128 512 l 1,12,-1
EndSplineSet
Validated: 5
EndChar

StartChar: p
Encoding: 112 112 83
Width: 768
GlyphClass: 2
Flags: W
LayerCount: 2
Fore
SplineSet
512 257 m 1,0,-1
 512 511 l 1,1,-1
 640 511 l 1,2,-1
 640 257 l 1,3,-1
 512 257 l 1,0,-1
0 -127 m 1,4,-1
 0 641 l 1,5,-1
 512 641 l 1,6,-1
 512 511 l 1,7,-1
 128 511 l 1,8,-1
 128 257 l 1,9,-1
 512 257 l 1,10,-1
 512 129 l 1,11,-1
 128 129 l 1,12,-1
 128 -127 l 1,13,-1
 0 -127 l 1,4,-1
EndSplineSet
EndChar

StartChar: q
Encoding: 113 113 84
Width: 768
GlyphClass: 2
Flags: W
LayerCount: 2
Fore
SplineSet
128 257 m 5,0,-1
 128 511 l 5,1,-1
 0 511 l 5,2,-1
 0 257 l 5,3,-1
 128 257 l 5,0,-1
640 -127 m 5,4,-1
 640 641 l 5,5,-1
 128 641 l 5,6,-1
 128 511 l 5,7,-1
 512 511 l 5,8,-1
 512 257 l 5,9,-1
 128 257 l 5,10,-1
 128 129 l 5,11,-1
 512 129 l 5,12,-1
 512 -127 l 5,13,-1
 640 -127 l 5,4,-1
EndSplineSet
EndChar

StartChar: r
Encoding: 114 114 85
Width: 768
GlyphClass: 2
Flags: W
LayerCount: 2
Fore
SplineSet
512 384 m 1,0,-1
 512 512 l 1,1,-1
 640 512 l 1,2,-1
 640 384 l 1,3,-1
 512 384 l 1,0,-1
0 0 m 1,4,-1
 0 640 l 1,5,-1
 128 640 l 1,6,-1
 128 512 l 1,7,-1
 256 512 l 1,8,-1
 256 384 l 1,9,-1
 128 384 l 1,10,-1
 128 0 l 1,11,-1
 0 0 l 1,4,-1
256 512 m 1,12,-1
 256 640 l 1,13,-1
 512 640 l 1,14,-1
 512 512 l 1,15,-1
 256 512 l 1,12,-1
EndSplineSet
Validated: 5
EndChar

StartChar: s
Encoding: 115 115 86
Width: 768
GlyphClass: 2
Flags: W
LayerCount: 2
Fore
SplineSet
0 0 m 1,0,-1
 0 128 l 1,1,-1
 512 128 l 1,2,-1
 512 0 l 1,3,-1
 0 0 l 1,0,-1
512 128 m 1,4,-1
 512 256 l 1,5,-1
 640 256 l 1,6,-1
 640 128 l 1,7,-1
 512 128 l 1,4,-1
128 256 m 1,8,-1
 128 384 l 1,9,-1
 512 384 l 1,10,-1
 512 256 l 1,11,-1
 128 256 l 1,8,-1
0 384 m 1,12,-1
 0 512 l 1,13,-1
 128 512 l 1,14,-1
 128 384 l 1,15,-1
 0 384 l 1,12,-1
128 512 m 1,16,-1
 128 640 l 1,17,-1
 639 640 l 1,18,-1
 639 512 l 1,19,-1
 128 512 l 1,16,-1
EndSplineSet
Validated: 5
EndChar

StartChar: t
Encoding: 116 116 87
Width: 768
GlyphClass: 2
Flags: W
LayerCount: 2
Fore
SplineSet
256 0 m 1,0,-1
 256 128 l 1,1,-1
 512 128 l 5,2,-1
 512 0 l 5,3,-1
 256 0 l 1,0,-1
385 128 m 1025,4,-1
128 128 m 1,5,-1
 128 512 l 1,6,-1
 0 512 l 1,7,-1
 0 640 l 1,8,-1
 128 640 l 1,9,-1
 128 896 l 1,10,-1
 256 896 l 1,11,-1
 256 640 l 1,12,-1
 384 640 l 1,13,-1
 384 512 l 1,14,-1
 256 512 l 1,15,-1
 256 128 l 1,16,-1
 128 128 l 1,5,-1
EndSplineSet
EndChar

StartChar: u
Encoding: 117 117 88
Width: 768
GlyphClass: 2
Flags: W
LayerCount: 2
Fore
SplineSet
128 0 m 1,0,-1
 128 128 l 1,1,-1
 512 128 l 1,2,-1
 512 0 l 1,3,-1
 128 0 l 1,0,-1
0 128 m 1,4,-1
 0 640 l 1,5,-1
 128 640 l 1,6,-1
 128 128 l 1,7,-1
 0 128 l 1,4,-1
512 128 m 1,8,-1
 512 640 l 1,9,-1
 640 640 l 1,10,-1
 640 128 l 1,11,-1
 512 128 l 1,8,-1
EndSplineSet
Validated: 5
EndChar

StartChar: v
Encoding: 118 118 89
Width: 768
GlyphClass: 2
Flags: W
LayerCount: 2
Fore
SplineSet
256 0 m 1,0,-1
 256 128 l 1,1,-1
 384 128 l 1,2,-1
 384 0 l 1,3,-1
 256 0 l 1,0,-1
128 128 m 1,4,-1
 128 256 l 1,5,-1
 256 256 l 1,6,-1
 256 128 l 1,7,-1
 128 128 l 1,4,-1
384 128 m 1,8,-1
 384 256 l 1,9,-1
 512 256 l 1,10,-1
 512 128 l 1,11,-1
 384 128 l 1,8,-1
0 256 m 1,12,-1
 0 640 l 1,13,-1
 128 640 l 1,14,-1
 128 256 l 1,15,-1
 0 256 l 1,12,-1
512 256 m 1,16,-1
 512 640 l 1,17,-1
 640 640 l 1,18,-1
 640 256 l 1,19,-1
 512 256 l 1,16,-1
EndSplineSet
Validated: 5
EndChar

StartChar: w
Encoding: 119 119 90
Width: 768
GlyphClass: 2
Flags: W
LayerCount: 2
Fore
SplineSet
128 0 m 1,0,-1
 128 128 l 1,1,-1
 256 128 l 1,2,-1
 256 0 l 1,3,-1
 128 0 l 1,0,-1
384 0 m 1,4,-1
 384 128 l 1,5,-1
 512 128 l 1,6,-1
 512 0 l 1,7,-1
 384 0 l 1,4,-1
256 128 m 1,8,-1
 256 384 l 1,9,-1
 384 384 l 1,10,-1
 384 128 l 1,11,-1
 256 128 l 1,8,-1
0 128 m 1,12,-1
 0 640 l 1,13,-1
 128 640 l 1,14,-1
 128 128 l 1,15,-1
 0 128 l 1,12,-1
512 128 m 1,16,-1
 512 640 l 1,17,-1
 640 640 l 1,18,-1
 640 128 l 1,19,-1
 512 128 l 1,16,-1
EndSplineSet
Validated: 5
EndChar

StartChar: x
Encoding: 120 120 91
Width: 768
GlyphClass: 2
Flags: W
LayerCount: 2
Fore
SplineSet
0 0 m 1,0,-1
 0 128 l 1,1,-1
 128 128 l 1,2,-1
 128 0 l 1,3,-1
 0 0 l 1,0,-1
512 0 m 1,4,-1
 512 128 l 1,5,-1
 640 128 l 1,6,-1
 640 0 l 1,7,-1
 512 0 l 1,4,-1
128 128 m 1,8,-1
 128 256 l 1,9,-1
 256 256 l 1,10,-1
 256 128 l 1,11,-1
 128 128 l 1,8,-1
384 128 m 1,12,-1
 384 256 l 1,13,-1
 512 256 l 1,14,-1
 512 128 l 1,15,-1
 384 128 l 1,12,-1
256 256 m 1,16,-1
 256 384 l 1,17,-1
 384 384 l 1,18,-1
 384 256 l 1,19,-1
 256 256 l 1,16,-1
128 384 m 1,20,-1
 128 512 l 1,21,-1
 256 512 l 1,22,-1
 256 384 l 1,23,-1
 128 384 l 1,20,-1
384 384 m 1,24,-1
 384 512 l 1,25,-1
 512 512 l 1,26,-1
 512 384 l 1,27,-1
 384 384 l 1,24,-1
0 512 m 1,28,-1
 0 640 l 1,29,-1
 128 640 l 1,30,-1
 128 512 l 1,31,-1
 0 512 l 1,28,-1
512 512 m 1,32,-1
 512 640 l 1,33,-1
 640 640 l 1,34,-1
 640 512 l 1,35,-1
 512 512 l 1,32,-1
EndSplineSet
Validated: 5
EndChar

StartChar: y
Encoding: 121 121 92
Width: 768
GlyphClass: 2
Flags: W
LayerCount: 2
Fore
SplineSet
128 -127 m 1,0,-1
 128 1 l 1,1,-1
 512 1 l 1,2,-1
 512 -127 l 1,3,-1
 128 -127 l 1,0,-1
0 257 m 1,4,-1
 0 641 l 1,5,-1
 128 641 l 1,6,-1
 128 257 l 1,7,-1
 0 257 l 1,4,-1
512 1 m 1,8,-1
 512 129 l 1,9,-1
 128 129 l 1,10,-1
 128 257 l 1,11,-1
 512 257 l 1,12,-1
 512 641 l 1,13,-1
 640 641 l 1,14,-1
 640 1 l 1,15,-1
 512 1 l 1,8,-1
EndSplineSet
EndChar

StartChar: z
Encoding: 122 122 93
Width: 768
GlyphClass: 2
Flags: W
LayerCount: 2
Fore
SplineSet
0 0 m 1,0,-1
 0 128 l 1,1,-1
 128 128 l 1,2,-1
 128 256 l 1,3,-1
 256 256 l 1,4,-1
 256 128 l 1,5,-1
 640 128 l 1,6,-1
 640 0 l 1,7,-1
 0 0 l 1,0,-1
256 256 m 1,8,-1
 256 384 l 1,9,-1
 384 384 l 1,10,-1
 384 256 l 1,11,-1
 256 256 l 1,8,-1
384 384 m 1,12,-1
 384 512 l 1,13,-1
 0 512 l 1,14,-1
 0 640 l 1,15,-1
 640 640 l 1,16,-1
 640 512 l 1,17,-1
 512 512 l 1,18,-1
 512 384 l 1,19,-1
 384 384 l 1,12,-1
EndSplineSet
Validated: 5
EndChar

StartChar: braceleft
Encoding: 123 123 94
Width: 512
GlyphClass: 2
Flags: W
LayerCount: 2
Fore
SplineSet
128 0 m 1,0,-1
 128 384 l 1,1,-1
 256 384 l 1,2,-1
 256 128 l 1,3,-1
 384 128 l 1,4,-1
 384 0 l 1,5,-1
 128 0 l 1,0,-1
0 384 m 1,6,-1
 0 512 l 1,7,-1
 128 512 l 1,8,-1
 128 384 l 1,9,-1
 0 384 l 1,6,-1
128 512 m 1,10,-1
 128 896 l 1,11,-1
 384 896 l 1,12,-1
 384 768 l 1,13,-1
 256 768 l 1,14,-1
 256 512 l 1,15,-1
 128 512 l 1,10,-1
EndSplineSet
Validated: 5
EndChar

StartChar: bar
Encoding: 124 124 95
Width: 256
GlyphClass: 2
Flags: W
LayerCount: 2
Fore
SplineSet
0 0 m 1,0,-1
 0 896 l 1,1,-1
 128 896 l 1,2,-1
 128 0 l 1,3,-1
 0 0 l 1,0,-1
EndSplineSet
Validated: 1
EndChar

StartChar: braceright
Encoding: 125 125 96
Width: 512
GlyphClass: 2
Flags: W
LayerCount: 2
Fore
SplineSet
0 0 m 1,0,-1
 0 128 l 1,1,-1
 128 128 l 1,2,-1
 128 384 l 1,3,-1
 256 384 l 1,4,-1
 256 0 l 1,5,-1
 0 0 l 1,0,-1
256 384 m 1,6,-1
 256 512 l 1,7,-1
 384 512 l 1,8,-1
 384 384 l 1,9,-1
 256 384 l 1,6,-1
128 512 m 1,10,-1
 128 768 l 1,11,-1
 0 768 l 1,12,-1
 0 896 l 1,13,-1
 256 896 l 1,14,-1
 256 512 l 1,15,-1
 128 512 l 1,10,-1
EndSplineSet
Validated: 5
EndChar

StartChar: asciitilde
Encoding: 126 126 97
Width: 768
GlyphClass: 2
Flags: W
LayerCount: 2
Fore
SplineSet
384 256 m 1,0,-1
 384 384 l 1,1,-1
 512 384 l 1,2,-1
 512 256 l 1,3,-1
 384 256 l 1,0,-1
0 384 m 1,4,-1
 0 512 l 1,5,-1
 128 512 l 1,6,-1
 128 384 l 1,7,-1
 0 384 l 1,4,-1
256 384 m 1,8,-1
 256 512 l 1,9,-1
 384 512 l 1,10,-1
 384 384 l 1,11,-1
 256 384 l 1,8,-1
512 384 m 1,12,-1
 512 512 l 1,13,-1
 640 512 l 1,14,-1
 640 384 l 1,15,-1
 512 384 l 1,12,-1
128 512 m 1,16,-1
 128 640 l 1,17,-1
 256 640 l 1,18,-1
 256 512 l 1,19,-1
 128 512 l 1,16,-1
EndSplineSet
Validated: 5
EndChar

StartChar: uni00A0
Encoding: 160 160 98
Width: 640
GlyphClass: 2
Flags: W
LayerCount: 2
Fore
SplineSet
0 0 m 1,0,-1
 0 128 l 1,1,-1
 640 128 l 1,2,-1
 640 0 l 1,3,-1
 0 0 l 1,0,-1
EndSplineSet
Validated: 1
EndChar

StartChar: exclamdown
Encoding: 161 161 99
Width: 512
GlyphClass: 2
Flags: W
LayerCount: 2
Fore
SplineSet
128 -2 m 1,0,-1
 128 126 l 1,1,-1
 128 128 l 1,2,-1
 128 512 l 1,3,-1
 128 512 l 1,4,-1
 128 640 l 1,5,-1
 256 640 l 1,6,-1
 256 128 l 1,7,-1
 256 128 l 1,8,-1
 256 0 l 1,9,-1
 128 -2 l 1,0,-1
128 768 m 1,10,-1
 128 896 l 1,11,-1
 256 896 l 1,12,-1
 256 768 l 1,13,-1
 128 768 l 1,10,-1
EndSplineSet
EndChar

StartChar: cent
Encoding: 162 162 100
Width: 768
GlyphClass: 2
Flags: W
LayerCount: 2
Fore
SplineSet
254 897 m 1,0,-1
 384 897 l 1,1,-1
 384 0 l 1,2,-1
 254 0 l 1,3,-1
 254 897 l 1,0,-1
128 127 m 1,4,-1
 128 255 l 1,5,-1
 512 255 l 1,6,-1
 512 127 l 1,7,-1
 128 127 l 1,4,-1
512 255 m 1025,8,-1
0 255 m 1,9,-1
 0 639 l 1,10,-1
 128 639 l 1,11,-1
 128 255 l 1,12,-1
 0 255 l 1,9,-1
128 639 m 1,13,-1
 128 767 l 1,14,-1
 512 767 l 1,15,-1
 512 639 l 1,16,-1
 128 639 l 1,13,-1
EndSplineSet
EndChar

StartChar: sterling
Encoding: 163 163 101
Width: 768
GlyphClass: 2
Flags: W
LayerCount: 2
Fore
SplineSet
0 512 m 1,0,-1
 130 512 l 1,1,-1
 130 384 l 1,2,-1
 0 384 l 1,3,-1
 0 512 l 1,0,-1
0 0 m 25,4,-1
 509 0 l 1,5,-1
 513 128 l 1,6,-1
 256 130 l 1,7,-1
 255 258 l 1,8,-1
 255 387 l 1,9,-1
 512 385 l 1,10,-1
 513 514 l 1,11,-1
 256 514 l 1,12,-1
 258 768 l 1,13,-1
 513 770 l 1,14,-1
 511 898 l 1,15,-1
 257 898 l 1,16,-1
 258 770 l 1,17,-1
 128 767 l 1,18,-1
 128 129 l 1,19,-1
 0 128 l 1,20,-1
 0 0 l 25,4,-1
EndSplineSet
EndChar

StartChar: currency
Encoding: 164 164 102
Width: 768
GlyphClass: 2
Flags: W
LayerCount: 2
Fore
SplineSet
255 512 m 5,0,-1
 385 512 l 1,1,-1
 385 383 l 1,2,-1
 255 383 l 1,3,-1
 255 512 l 5,0,-1
0 130 m 25,4,-1
 128 129 l 1,5,-1
 125 256 l 1,6,-1
 514 257 l 1,7,-1
 513 129 l 1,8,-1
 641 128 l 1,9,-1
 639 257 l 1,10,-1
 514 257 l 1,11,-1
 511 640 l 1,12,-1
 640 641 l 1,13,-1
 640 769 l 1,14,-1
 511 767 l 1,15,-1
 511 640 l 1,16,-1
 125 639 l 1,17,-1
 126 768 l 1,18,-1
 0 767 l 1,19,-1
 0 640 l 1,20,-1
 126 639 l 1,21,-1
 126 256 l 1,22,-1
 0 256 l 1,23,-1
 0 130 l 25,4,-1
EndSplineSet
EndChar

StartChar: yen
Encoding: 165 165 103
Width: 768
GlyphClass: 2
Flags: W
LayerCount: 2
Fore
SplineSet
0 512 m 5,0,-1
 642 512 l 1,1,-1
 642 384 l 1,2,-1
 0 384 l 1,3,-1
 0 512 l 5,0,-1
0 256 m 1,4,-1
 639 256 l 1,5,-1
 639 130 l 1,6,-1
 0 130 l 1,7,-1
 0 256 l 1,4,-1
256 0 m 1,8,-1
 256 512 l 1,9,-1
 384 512 l 1,10,-1
 384 0 l 1,11,-1
 256 0 l 1,8,-1
128 512 m 1,12,-1
 128 640 l 1,13,-1
 256 640 l 1,14,-1
 256 512 l 1,15,-1
 128 512 l 1,12,-1
384 512 m 1,16,-1
 384 640 l 1,17,-1
 512 640 l 1,18,-1
 512 512 l 1,19,-1
 384 512 l 1,16,-1
0 640 m 1,20,-1
 0 896 l 1,21,-1
 128 896 l 1,22,-1
 128 640 l 1,23,-1
 0 640 l 1,20,-1
512 640 m 1,24,-1
 512 898 l 1,25,-1
 640 898 l 1,26,-1
 640 640 l 1,27,-1
 512 640 l 1,24,-1
EndSplineSet
EndChar

StartChar: brokenbar
Encoding: 166 166 104
Width: 256
GlyphClass: 2
Flags: W
LayerCount: 2
Fore
SplineSet
0 0 m 1,0,-1
 0 384 l 1,1,-1
 128 384 l 1,2,-1
 128 0 l 1,3,-1
 0 0 l 1,0,-1
0 512 m 1,4,-1
 0 896 l 1,5,-1
 128 896 l 1,6,-1
 128 512 l 1,7,-1
 0 512 l 1,4,-1
EndSplineSet
Validated: 1
EndChar

StartChar: section
Encoding: 167 167 105
Width: 768
GlyphClass: 2
Flags: W
LayerCount: 2
Fore
SplineSet
0 647 m 25,0,-1
 0 257 l 25,1,-1
 128 258 l 1,2,-1
 127 383 l 1,3,-1
 384 385 l 1,4,-1
 384 514 l 1,5,-1
 130 514 l 1,6,-1
 128 643 l 1,7,-1
 0 643 l 1025,8,-1
126 768 m 1,9,-1
 511 768 l 1,10,-1
 511 639 l 1,11,-1
 126 639 l 1,12,-1
 126 768 l 1,9,-1
383 7 m 25,13,-1
 384 129 l 1,14,-1
 127 129 l 1,15,-1
 125 258 l 1,16,-1
 384 258 l 1,17,-1
 384 388 l 1,18,-1
 512 388 l 1,19,-1
 512 1 l 1,20,-1
 384 0 l 1025,21,-1
0 0 m 1,22,-1
 386 0 l 1,23,-1
 386 -125 l 1,24,-1
 0 -125 l 1,25,-1
 0 0 l 1,22,-1
EndSplineSet
EndChar

StartChar: dieresis
Encoding: 168 168 106
Width: 768
GlyphClass: 2
Flags: W
LayerCount: 2
Fore
SplineSet
386 895 m 1,0,-1
 510 895 l 1,1,-1
 510 767 l 1,2,-1
 386 767 l 1,3,-1
 386 895 l 1,0,-1
126 896 m 1,4,-1
 254 896 l 1,5,-1
 254 767 l 1,6,-1
 126 767 l 1,7,-1
 126 896 l 1,4,-1
EndSplineSet
EndChar

StartChar: copyright
Encoding: 169 169 107
Width: 896
GlyphClass: 2
Flags: W
LayerCount: 2
Fore
SplineSet
128 0 m 1,0,-1
 128 128 l 1,1,-1
 640 128 l 1,2,-1
 640 0 l 1,3,-1
 128 0 l 1,0,-1
256 256 m 1,4,-1
 256 640 l 1,5,-1
 512 640 l 1,6,-1
 512 512 l 1,7,-1
 384 512 l 1,8,-1
 384 384 l 1,9,-1
 512 384 l 1,10,-1
 512 256 l 1,11,-1
 256 256 l 1,4,-1
0 128 m 1,12,-1
 0 768 l 1,13,-1
 128 768 l 1,14,-1
 128 128 l 1,15,-1
 0 128 l 1,12,-1
640 128 m 1,16,-1
 640 768 l 1,17,-1
 768 768 l 1,18,-1
 768 128 l 1,19,-1
 640 128 l 1,16,-1
128 768 m 1,20,-1
 128 896 l 1,21,-1
 640 896 l 1,22,-1
 640 768 l 1,23,-1
 128 768 l 1,20,-1
EndSplineSet
Validated: 5
EndChar

StartChar: ordfeminine
Encoding: 170 170 108
Width: 768
GlyphClass: 2
Flags: W
LayerCount: 2
Fore
SplineSet
0 383 m 1,0,-1
 0 511 l 1,1,-1
 128 511 l 1,2,-1
 128 383 l 1,3,-1
 0 383 l 1,0,-1
128 255 m 1,4,-1
 128 383 l 1,5,-1
 512 383 l 1,6,-1
 512 511 l 1,7,-1
 128 511 l 1,8,-1
 128 639 l 1,9,-1
 512 639 l 1,10,-1
 512 767 l 1,11,-1
 640 767 l 1,12,-1
 640 255 l 1,13,-1
 128 255 l 1,4,-1
128 767 m 1,14,-1
 128 895 l 1,15,-1
 512 895 l 1,16,-1
 512 767 l 1,17,-1
 128 767 l 1,14,-1
EndSplineSet
EndChar

StartChar: guillemotleft
Encoding: 171 171 109
Width: 768
GlyphClass: 2
Flags: W
LayerCount: 2
Fore
SplineSet
128 0 m 1,0,-1
 128 128 l 1,1,-1
 256 128 l 1,2,-1
 256 0 l 1,3,-1
 128 0 l 1,0,-1
512 0 m 1,4,-1
 512 128 l 1,5,-1
 640 128 l 1,6,-1
 640 0 l 1,7,-1
 512 0 l 1,4,-1
0 128 m 1,8,-1
 0 256 l 1,9,-1
 128 256 l 1,10,-1
 128 128 l 1,11,-1
 0 128 l 1,8,-1
384 128 m 1,12,-1
 384 256 l 1,13,-1
 512 256 l 1,14,-1
 512 128 l 1,15,-1
 384 128 l 1,12,-1
128 256 m 1,16,-1
 128 384 l 1,17,-1
 256 384 l 1,18,-1
 256 256 l 1,19,-1
 128 256 l 1,16,-1
512 256 m 1,20,-1
 512 384 l 1,21,-1
 640 384 l 1,22,-1
 640 256 l 1,23,-1
 512 256 l 1,20,-1
EndSplineSet
Validated: 5
EndChar

StartChar: logicalnot
Encoding: 172 172 110
Width: 768
GlyphClass: 2
Flags: W
LayerCount: 2
Fore
SplineSet
511 256 m 1,0,-1
 511 386 l 1,1,-1
 642 386 l 1,2,-1
 642 256 l 1,3,-1
 511 256 l 1,0,-1
1 512 m 1,4,-1
 642 512 l 1,5,-1
 642 386 l 1,6,-1
 1 386 l 1,7,-1
 1 512 l 1,4,-1
EndSplineSet
EndChar

StartChar: uni00AD
Encoding: 173 173 111
Width: 512
GlyphClass: 2
Flags: W
LayerCount: 2
Fore
SplineSet
0 384 m 1,0,-1
 0 512 l 1,1,-1
 384 512 l 1,2,-1
 384 384 l 1,3,-1
 0 384 l 1,0,-1
EndSplineSet
Validated: 1
EndChar

StartChar: registered
Encoding: 174 174 112
Width: 768
GlyphClass: 2
Flags: W
LayerCount: 2
Fore
SplineSet
382 385 m 1,0,-1
 510 385 l 1,1,-1
 510 259 l 1,2,-1
 382 259 l 1,3,-1
 382 385 l 1,0,-1
256 639 m 1,4,-1
 384 639 l 1,5,-1
 385 386 l 1,6,-1
 257 386 l 1,7,-1
 256 639 l 1,4,-1
126 639 m 1,8,-1
 256 639 l 1,9,-1
 256 257 l 1,10,-1
 126 257 l 1,11,-1
 126 639 l 1,8,-1
642 767 m 1,12,-1
 768 767 l 1,13,-1
 768 127 l 1,14,-1
 642 127 l 1,15,-1
 642 767 l 1,12,-1
-129 768 m 1,16,-1
 0 768 l 1,17,-1
 0 128 l 1,18,-1
 -129 128 l 1,19,-1
 -129 768 l 1,16,-1
0 896 m 1,20,-1
 642 896 l 1,21,-1
 642 767 l 1,22,-1
 0 767 l 1,23,-1
 0 896 l 1,20,-1
0 128 m 1,24,-1
 640 128 l 1,25,-1
 640 0 l 1,26,-1
 0 0 l 1,27,-1
 0 128 l 1,24,-1
EndSplineSet
EndChar

StartChar: macron
Encoding: 175 175 113
Width: 768
GlyphClass: 2
Flags: W
LayerCount: 2
Fore
SplineSet
0 768 m 1,0,-1
 0 896 l 1,1,-1
 640 896 l 1,2,-1
 640 768 l 1,3,-1
 0 768 l 1,0,-1
EndSplineSet
Validated: 1
EndChar

StartChar: degree
Encoding: 176 176 114
Width: 640
GlyphClass: 2
Flags: W
LayerCount: 2
Fore
SplineSet
128 384 m 1,0,-1
 128 512 l 1,1,-1
 384 512 l 1,2,-1
 384 384 l 1,3,-1
 128 384 l 1,0,-1
0 512 m 1,4,-1
 0 768 l 1,5,-1
 128 768 l 1,6,-1
 128 512 l 1,7,-1
 0 512 l 1,4,-1
384 512 m 1,8,-1
 384 768 l 1,9,-1
 512 768 l 1,10,-1
 512 512 l 1,11,-1
 384 512 l 1,8,-1
128 768 m 1,12,-1
 128 896 l 1,13,-1
 384 896 l 1,14,-1
 384 768 l 1,15,-1
 128 768 l 1,12,-1
EndSplineSet
Validated: 5
EndChar

StartChar: plusminus
Encoding: 177 177 115
Width: 768
GlyphClass: 2
Flags: W
LayerCount: 2
Fore
SplineSet
0 0 m 1,0,-1
 0 128 l 1,1,-1
 640 128 l 1,2,-1
 640 0 l 1,3,-1
 0 0 l 1,0,-1
256 256 m 1,4,-1
 256 512 l 1,5,-1
 0 512 l 1,6,-1
 0 640 l 1,7,-1
 256 640 l 1,8,-1
 256 896 l 1,9,-1
 384 896 l 1,10,-1
 384 640 l 1,11,-1
 640 640 l 1,12,-1
 640 512 l 1,13,-1
 384 512 l 1,14,-1
 384 256 l 1,15,-1
 256 256 l 1,4,-1
EndSplineSet
Validated: 1
EndChar

StartChar: uni00B2
Encoding: 178 178 116
Width: 768
GlyphClass: 2
Flags: W
LayerCount: 2
Fore
SplineSet
127 256 m 1,0,-1
 127 381 l 1,1,-1
 512 381 l 1,2,-1
 512 256 l 1,3,-1
 127 256 l 1,0,-1
128 513 m 1,4,-1
 256 513 l 1,5,-1
 256 381 l 1,6,-1
 128 381 l 1,7,-1
 128 513 l 1,4,-1
254 637 m 1,8,-1
 382 637 l 1,9,-1
 382 514 l 1,10,-1
 254 514 l 1,11,-1
 254 637 l 1,8,-1
382 766 m 1,12,-1
 513 766 l 1,13,-1
 513 645 l 1,14,-1
 382 645 l 1,15,-1
 382 766 l 1,12,-1
130 896 m 1,16,-1
 384 896 l 1,17,-1
 384 766 l 1,18,-1
 130 766 l 1,19,-1
 130 896 l 1,16,-1
EndSplineSet
EndChar

StartChar: uni00B3
Encoding: 179 179 117
Width: 768
GlyphClass: 2
Flags: W
LayerCount: 2
Fore
SplineSet
382 514 m 1,0,-1
 511 514 l 1,1,-1
 511 382 l 1,2,-1
 382 382 l 1,3,-1
 382 514 l 1,0,-1
384 769 m 1,4,-1
 510 769 l 1,5,-1
 510 637 l 1,6,-1
 384 637 l 1,7,-1
 384 769 l 1,4,-1
127 385 m 1,8,-1
 383 385 l 1,9,-1
 383 258 l 1,10,-1
 127 258 l 1,11,-1
 127 385 l 1,8,-1
126 640 m 1,12,-1
 385 640 l 1,13,-1
 385 517 l 1,14,-1
 126 517 l 1,15,-1
 126 640 l 1,12,-1
130 769 m 1,16,-1
 130 898 l 1,17,-1
 384 898 l 1,18,-1
 384 769 l 1,19,-1
 130 769 l 1,16,-1
EndSplineSet
EndChar

StartChar: acute
Encoding: 180 180 118
Width: 768
GlyphClass: 2
Flags: W
LayerCount: 2
Fore
SplineSet
253 697 m 1025,0,-1
127 769 m 1,1,-1
 257 769 l 1,2,-1
 257 639 l 1,3,-1
 127 639 l 1,4,-1
 127 769 l 1,1,-1
254 768 m 1,5,-1
 254 897 l 1,6,-1
 382 897 l 1,7,-1
 382 768 l 1,8,-1
 254 768 l 1,5,-1
EndSplineSet
EndChar

StartChar: uni00B5
Encoding: 181 181 119
Width: 768
GlyphClass: 2
Flags: W
LayerCount: 2
Fore
SplineSet
512 130 m 1,0,-1
 512 255 l 1,1,-1
 640 255 l 1,2,-1
 640 130 l 1,3,-1
 512 130 l 1,0,-1
385 636 m 1,4,-1
 514 636 l 1,5,-1
 514 255 l 1,6,-1
 385 255 l 1,7,-1
 385 636 l 1,4,-1
384 127 m 1,8,-1
 126 127 l 1,9,-1
 126 257 l 1,10,-1
 384 257 l 1,11,-1
 384 127 l 1,8,-1
0 -125 m 1,12,-1
 0 641 l 1,13,-1
 128 641 l 1,14,-1
 128 -125 l 1,15,-1
 0 -125 l 1,12,-1
EndSplineSet
EndChar

StartChar: paragraph
Encoding: 182 182 120
Width: 768
GlyphClass: 2
Flags: W
LayerCount: 2
Fore
SplineSet
0 766 m 5,0,-1
 124 766 l 1,1,-1
 124 642 l 1,2,-1
 0 642 l 1,3,-1
 0 766 l 5,0,-1
124 894 m 1,4,-1
 260 894 l 1,5,-1
 260 512 l 1,6,-1
 124 512 l 1,7,-1
 124 894 l 1,4,-1
388 513 m 1,8,-1
 388 637 l 1,9,-1
 510 637 l 1,10,-1
 510 513 l 1,11,-1
 388 513 l 1,8,-1
382 771 m 1,12,-1
 382 897 l 1,13,-1
 510 897 l 1,14,-1
 510 771 l 1,15,-1
 382 771 l 1,12,-1
255 897 m 1,16,-1
 385 897 l 1,17,-1
 385 0 l 1,18,-1
 255 0 l 1,19,-1
 255 897 l 1,16,-1
510 1 m 1,20,-1
 510 897 l 1,21,-1
 640 896 l 1,22,-1
 640 0 l 1,23,-1
 510 1 l 1,20,-1
EndSplineSet
EndChar

StartChar: periodcentered
Encoding: 183 183 121
Width: 256
GlyphClass: 2
Flags: W
LayerCount: 2
Fore
SplineSet
0 384 m 1,0,-1
 0 512 l 1,1,-1
 128 512 l 1,2,-1
 128 384 l 1,3,-1
 0 384 l 1,0,-1
EndSplineSet
Validated: 1
EndChar

StartChar: cedilla
Encoding: 184 184 122
Width: 768
GlyphClass: 2
Flags: W
LayerCount: 2
Fore
SplineSet
127 -129 m 1,0,-1
 127 0 l 1,1,-1
 256 0 l 1,2,-1
 256 -129 l 1,3,-1
 127 -129 l 1,0,-1
258 126 m 1,4,-1
 384 126 l 1,5,-1
 384 -125 l 1,6,-1
 258 -125 l 1,7,-1
 258 126 l 1,4,-1
EndSplineSet
EndChar

StartChar: uni00B9
Encoding: 185 185 123
Width: 768
GlyphClass: 2
Flags: W
LayerCount: 2
Fore
SplineSet
126 769 m 1,0,-1
 126 896 l 1,1,-1
 255 896 l 1,2,-1
 255 769 l 1,3,-1
 126 769 l 1,0,-1
126 510 m 1,4,-1
 512 510 l 1,5,-1
 512 384 l 1,6,-1
 126 384 l 1,7,-1
 126 510 l 1,4,-1
256 895 m 1,8,-1
 386 895 l 1,9,-1
 386 510 l 1,10,-1
 256 510 l 1,11,-1
 256 895 l 1,8,-1
EndSplineSet
EndChar

StartChar: ordmasculine
Encoding: 186 186 124
Width: 768
GlyphClass: 2
Flags: W
LayerCount: 2
Fore
SplineSet
511 768 m 1,0,-1
 511 639 l 1,1,-1
 386 639 l 1,2,-1
 386 768 l 1,3,-1
 511 768 l 1,0,-1
256 513 m 1,4,-1
 256 641 l 1,5,-1
 384 641 l 1,6,-1
 384 513 l 1,7,-1
 256 513 l 1,4,-1
126 639 m 1,8,-1
 126 767 l 1,9,-1
 256 767 l 1,10,-1
 256 639 l 1,11,-1
 126 639 l 1,8,-1
256 767 m 1,12,-1
 256 898 l 1,13,-1
 384 898 l 1,14,-1
 384 767 l 1,15,-1
 256 767 l 1,12,-1
EndSplineSet
EndChar

StartChar: guillemotright
Encoding: 187 187 125
Width: 768
GlyphClass: 2
Flags: W
LayerCount: 2
Fore
SplineSet
0 0 m 1,0,-1
 0 128 l 1,1,-1
 128 128 l 1,2,-1
 128 0 l 1,3,-1
 0 0 l 1,0,-1
384 0 m 1,4,-1
 384 128 l 1,5,-1
 512 128 l 1,6,-1
 512 0 l 1,7,-1
 384 0 l 1,4,-1
128 128 m 1,8,-1
 128 256 l 1,9,-1
 256 256 l 1,10,-1
 256 128 l 1,11,-1
 128 128 l 1,8,-1
512 128 m 1,12,-1
 512 256 l 1,13,-1
 640 256 l 1,14,-1
 640 128 l 1,15,-1
 512 128 l 1,12,-1
0 256 m 1,16,-1
 0 384 l 1,17,-1
 128 384 l 1,18,-1
 128 256 l 1,19,-1
 0 256 l 1,16,-1
384 256 m 1,20,-1
 384 384 l 1,21,-1
 512 384 l 1,22,-1
 512 256 l 1,23,-1
 384 256 l 1,20,-1
EndSplineSet
Validated: 5
EndChar

StartChar: onequarter
Encoding: 188 188 126
Width: 768
GlyphClass: 2
Flags: W
LayerCount: 2
Fore
SplineSet
639 0 m 1,0,-1
 639 128 l 1,1,-1
 768 128 l 1,2,-1
 768 0 l 1,3,-1
 639 0 l 1,0,-1
768 384 m 1,4,-1
 896 384 l 1,5,-1
 896 -126 l 1,6,-1
 768 -126 l 1,7,-1
 768 384 l 1,4,-1
510 386 m 1,8,-1
 639 386 l 1,9,-1
 639 1 l 1,10,-1
 510 1 l 1,11,-1
 510 386 l 1,8,-1
-129 512 m 1,12,-1
 254 512 l 1,13,-1
 254 383 l 1,14,-1
 -129 383 l 1,15,-1
 -129 512 l 1,12,-1
0 512 m 1,16,-1
 0 766 l 1,17,-1
 126 766 l 1,18,-1
 126 512 l 1,19,-1
 0 512 l 1,16,-1
-130 896 m 1,20,-1
 126 896 l 1,21,-1
 126 766 l 1,22,-1
 -130 766 l 1,23,-1
 -130 896 l 1,20,-1
768 896 m 1,24,-1
 896 896 l 1,25,-1
 896 767 l 1,26,-1
 768 767 l 1,27,-1
 768 896 l 1,24,-1
-130 0 m 1,28,-1
 0 0 l 1,29,-1
 0 -126 l 1,30,-1
 -130 -126 l 1,31,-1
 -130 0 l 1,28,-1
637 769 m 1,32,-1
 768 769 l 1,33,-1
 768 639 l 1,34,-1
 637 639 l 1,35,-1
 637 769 l 1,32,-1
510 637 m 1,36,-1
 639 637 l 1,37,-1
 639 511 l 1,38,-1
 510 511 l 1,39,-1
 510 637 l 1,36,-1
386 511 m 1,40,-1
 512 511 l 1,41,-1
 512 386 l 1,42,-1
 386 386 l 1,43,-1
 386 511 l 1,40,-1
254 383 m 1,44,-1
 382 383 l 1,45,-1
 382 256 l 1,46,-1
 254 256 l 1,47,-1
 254 383 l 1,44,-1
126 255 m 1,48,-1
 254 255 l 1,49,-1
 254 128 l 1,50,-1
 126 128 l 1,51,-1
 126 255 l 1,48,-1
128 129 m 1,52,-1
 128 0 l 1,53,-1
 0 0 l 1,54,-1
 0 129 l 1,55,-1
 128 129 l 1,52,-1
EndSplineSet
EndChar

StartChar: onehalf
Encoding: 189 189 127
Width: 768
GlyphClass: 2
Flags: W
LayerCount: 2
Fore
SplineSet
512 -126 m 1,0,-1
 512 0 l 1,1,-1
 898 0 l 1,2,-1
 898 -126 l 1,3,-1
 512 -126 l 1,0,-1
640 0 m 1,4,-1
 640 130 l 1,5,-1
 768 130 l 1,6,-1
 768 0 l 1,7,-1
 640 0 l 1,4,-1
768 130 m 1,8,-1
 768 256 l 1,9,-1
 896 256 l 1,10,-1
 896 130 l 1,11,-1
 768 130 l 1,8,-1
510 259 m 1,12,-1
 510 384 l 1,13,-1
 768 384 l 1,14,-1
 768 259 l 1,15,-1
 510 259 l 1,12,-1
-129 512 m 1,16,-1
 254 512 l 1,17,-1
 254 383 l 1,18,-1
 -129 383 l 1,19,-1
 -129 512 l 1,16,-1
0 512 m 1,20,-1
 0 766 l 1,21,-1
 126 766 l 1,22,-1
 126 512 l 1,23,-1
 0 512 l 1,20,-1
-130 896 m 1,24,-1
 126 896 l 1,25,-1
 126 766 l 1,26,-1
 -130 766 l 1,27,-1
 -130 896 l 1,24,-1
768 896 m 1,28,-1
 896 896 l 1,29,-1
 896 767 l 1,30,-1
 768 767 l 1,31,-1
 768 896 l 1,28,-1
-130 0 m 1,32,-1
 0 0 l 1,33,-1
 0 -126 l 1,34,-1
 -130 -126 l 1,35,-1
 -130 0 l 1,32,-1
637 769 m 1,36,-1
 768 769 l 1,37,-1
 768 639 l 1,38,-1
 637 639 l 1,39,-1
 637 769 l 1,36,-1
510 637 m 1,40,-1
 639 637 l 1,41,-1
 639 511 l 1,42,-1
 510 511 l 1,43,-1
 510 637 l 1,40,-1
386 511 m 1,44,-1
 512 511 l 1,45,-1
 512 386 l 1,46,-1
 386 386 l 1,47,-1
 386 511 l 1,44,-1
254 383 m 1,48,-1
 382 383 l 1,49,-1
 382 256 l 1,50,-1
 254 256 l 1,51,-1
 254 383 l 1,48,-1
126 255 m 1,52,-1
 254 255 l 1,53,-1
 254 128 l 1,54,-1
 126 128 l 1,55,-1
 126 255 l 1,52,-1
128 129 m 1,56,-1
 128 0 l 1,57,-1
 0 0 l 1,58,-1
 0 129 l 1,59,-1
 128 129 l 1,56,-1
EndSplineSet
EndChar

StartChar: threequarters
Encoding: 190 190 128
Width: 768
GlyphClass: 2
Flags: W
LayerCount: 2
Fore
SplineSet
257 768 m 1,0,-1
 257 640 l 1,1,-1
 130 640 l 1,2,-1
 130 768 l 1,3,-1
 257 768 l 1,0,-1
255 511 m 1,4,-1
 255 382 l 1,5,-1
 126 382 l 1,6,-1
 126 511 l 1,7,-1
 255 511 l 1,4,-1
-128 382 m 1,8,-1
 126 382 l 1,9,-1
 126 255 l 1,10,-1
 -128 255 l 1,11,-1
 -128 382 l 1,8,-1
-130 638 m 1,12,-1
 130 638 l 1,13,-1
 130 512 l 1,14,-1
 -130 512 l 1,15,-1
 -130 638 l 1,12,-1
-128 897 m 1,16,-1
 130 897 l 1,17,-1
 130 770 l 1,18,-1
 -128 770 l 1,19,-1
 -128 897 l 1,16,-1
639 0 m 1,20,-1
 639 128 l 1,21,-1
 768 128 l 1,22,-1
 768 0 l 1,23,-1
 639 0 l 1,20,-1
768 384 m 1,24,-1
 896 384 l 1,25,-1
 896 -126 l 1,26,-1
 768 -126 l 1,27,-1
 768 384 l 1,24,-1
510 386 m 1,28,-1
 639 386 l 1,29,-1
 639 1 l 1,30,-1
 510 1 l 1,31,-1
 510 386 l 1,28,-1
768 896 m 1,32,-1
 896 896 l 1,33,-1
 896 767 l 1,34,-1
 768 767 l 1,35,-1
 768 896 l 1,32,-1
-130 0 m 1,36,-1
 0 0 l 1,37,-1
 0 -126 l 1,38,-1
 -130 -126 l 1,39,-1
 -130 0 l 1,36,-1
637 769 m 1,40,-1
 768 769 l 1,41,-1
 768 639 l 1,42,-1
 637 639 l 1,43,-1
 637 769 l 1,40,-1
510 637 m 1,44,-1
 639 637 l 1,45,-1
 639 511 l 1,46,-1
 510 511 l 1,47,-1
 510 637 l 1,44,-1
386 511 m 1,48,-1
 512 511 l 1,49,-1
 512 386 l 1,50,-1
 386 386 l 1,51,-1
 386 511 l 1,48,-1
254 383 m 1,52,-1
 382 383 l 1,53,-1
 382 256 l 1,54,-1
 254 256 l 1,55,-1
 254 383 l 1,52,-1
126 255 m 1,56,-1
 254 255 l 1,57,-1
 254 128 l 1,58,-1
 126 128 l 1,59,-1
 126 255 l 1,56,-1
128 129 m 1,60,-1
 128 0 l 1,61,-1
 0 0 l 1,62,-1
 0 129 l 1,63,-1
 128 129 l 1,60,-1
EndSplineSet
EndChar

StartChar: questiondown
Encoding: 191 191 129
Width: 640
GlyphClass: 2
Flags: W
LayerCount: 2
Fore
SplineSet
128 768 m 5,0,-1
 128 640 l 5,1,-1
 256 640 l 5,2,-1
 256 768 l 5,3,-1
 128 768 l 5,0,-1
128 512 m 5,4,-1
 128 384 l 5,5,-1
 256 384 l 5,6,-1
 256 512 l 5,7,-1
 128 512 l 5,4,-1
256 384 m 5,8,-1
 256 256 l 5,9,-1
 384 256 l 5,10,-1
 384 384 l 5,11,-1
 256 384 l 5,8,-1
0 128 m 5,12,-1
 0 0 l 5,13,-1
 128 0 l 5,14,-1
 128 128 l 5,15,-1
 0 128 l 5,12,-1
384 256 m 5,16,-1
 384 0 l 5,17,-1
 512 0 l 5,18,-1
 512 256 l 5,19,-1
 384 256 l 5,16,-1
128 0 m 5,20,-1
 128 -128 l 5,21,-1
 384 -128 l 5,22,-1
 384 0 l 5,23,-1
 128 0 l 5,20,-1
EndSplineSet
EndChar

StartChar: Agrave
Encoding: 192 192 130
Width: 768
GlyphClass: 2
Flags: W
LayerCount: 2
Fore
SplineSet
512 1151 m 5,0,-1
 512 1026 l 5,1,-1
 386 1026 l 5,2,-1
 386 1151 l 5,3,-1
 512 1151 l 5,0,-1
254 1282 m 5,4,-1
 386 1282 l 5,5,-1
 386 1150 l 5,6,-1
 254 1150 l 5,7,-1
 254 1282 l 5,4,-1
0 0 m 5,8,-1
 0 768 l 5,9,-1
 128 768 l 5,10,-1
 128 512 l 5,11,-1
 512 512 l 5,12,-1
 512 768 l 5,13,-1
 640 768 l 5,14,-1
 640 0 l 5,15,-1
 512 0 l 5,16,-1
 512 384 l 5,17,-1
 128 384 l 5,18,-1
 128 0 l 5,19,-1
 0 0 l 5,8,-1
128 768 m 5,20,-1
 128 896 l 5,21,-1
 512 896 l 5,22,-1
 512 768 l 5,23,-1
 128 768 l 5,20,-1
EndSplineSet
EndChar

StartChar: Aacute
Encoding: 193 193 131
Width: 768
GlyphClass: 2
Flags: W
LayerCount: 2
Fore
SplineSet
127 1151 m 1,0,-1
 127 1026 l 1,1,-1
 253 1026 l 1,2,-1
 253 1151 l 1,3,-1
 127 1151 l 1,0,-1
385 1282 m 1,4,-1
 253 1282 l 1,5,-1
 253 1150 l 1,6,-1
 385 1150 l 1,7,-1
 385 1282 l 1,4,-1
639 0 m 1,8,-1
 639 768 l 1,9,-1
 511 768 l 1,10,-1
 511 512 l 1,11,-1
 127 512 l 1,12,-1
 127 768 l 1,13,-1
 -1 768 l 1,14,-1
 -1 0 l 1,15,-1
 127 0 l 1,16,-1
 127 384 l 1,17,-1
 511 384 l 1,18,-1
 511 0 l 1,19,-1
 639 0 l 1,8,-1
511 768 m 1,20,-1
 511 896 l 1,21,-1
 127 896 l 1,22,-1
 127 768 l 1,23,-1
 511 768 l 1,20,-1
EndSplineSet
EndChar

StartChar: Acircumflex
Encoding: 194 194 132
Width: 768
GlyphClass: 2
Flags: W
LayerCount: 2
Fore
SplineSet
254 1281 m 1,0,-1
 382 1281 l 1,1,-1
 382 1151 l 1,2,-1
 254 1151 l 1,3,-1
 254 1281 l 1,0,-1
382 1151 m 1,4,-1
 514 1151 l 1,5,-1
 514 1026 l 1,6,-1
 382 1026 l 1,7,-1
 382 1151 l 1,4,-1
128 1024 m 1,8,-1
 128 1152 l 1,9,-1
 258 1152 l 1,10,-1
 258 1024 l 1,11,-1
 128 1024 l 1,8,-1
0 0 m 1,12,-1
 0 768 l 1,13,-1
 128 768 l 1,14,-1
 128 512 l 1,15,-1
 512 512 l 1,16,-1
 512 768 l 1,17,-1
 640 768 l 1,18,-1
 640 0 l 1,19,-1
 512 0 l 1,20,-1
 512 384 l 1,21,-1
 128 384 l 1,22,-1
 128 0 l 1,23,-1
 0 0 l 1,12,-1
128 768 m 1,24,-1
 128 896 l 1,25,-1
 512 896 l 1,26,-1
 512 768 l 1,27,-1
 128 768 l 1,24,-1
EndSplineSet
EndChar

StartChar: Atilde
Encoding: 195 195 133
Width: 768
GlyphClass: 2
Flags: W
LayerCount: 2
Fore
SplineSet
0 0 m 1,0,-1
 0 768 l 1,1,-1
 128 768 l 1,2,-1
 128 512 l 1,3,-1
 512 512 l 1,4,-1
 512 768 l 1,5,-1
 640 768 l 1,6,-1
 640 0 l 1,7,-1
 512 0 l 1,8,-1
 512 384 l 1,9,-1
 128 384 l 1,10,-1
 128 0 l 1,11,-1
 0 0 l 1,0,-1
128 768 m 1,12,-1
 128 896 l 1,13,-1
 512 896 l 1,14,-1
 512 768 l 1,15,-1
 128 768 l 1,12,-1
EndSplineSet
EndChar

StartChar: Adieresis
Encoding: 196 196 134
Width: 768
GlyphClass: 2
Flags: W
LayerCount: 2
Fore
SplineSet
0 0 m 1,0,-1
 0 768 l 1,1,-1
 128 768 l 1,2,-1
 128 512 l 1,3,-1
 512 512 l 1,4,-1
 512 768 l 1,5,-1
 640 768 l 1,6,-1
 640 0 l 1,7,-1
 512 0 l 1,8,-1
 512 384 l 1,9,-1
 128 384 l 1,10,-1
 128 0 l 1,11,-1
 0 0 l 1,0,-1
128 768 m 1,12,-1
 128 896 l 1,13,-1
 512 896 l 1,14,-1
 512 768 l 1,15,-1
 128 768 l 1,12,-1
EndSplineSet
EndChar

StartChar: Aring
Encoding: 197 197 135
Width: 768
GlyphClass: 2
Flags: W
LayerCount: 2
Fore
SplineSet
0 0 m 1,0,-1
 0 768 l 1,1,-1
 128 768 l 1,2,-1
 128 512 l 1,3,-1
 512 512 l 1,4,-1
 512 768 l 1,5,-1
 640 768 l 1,6,-1
 640 0 l 1,7,-1
 512 0 l 1,8,-1
 512 384 l 1,9,-1
 128 384 l 1,10,-1
 128 0 l 1,11,-1
 0 0 l 1,0,-1
128 768 m 1,12,-1
 128 896 l 1,13,-1
 512 896 l 1,14,-1
 512 768 l 1,15,-1
 128 768 l 1,12,-1
EndSplineSet
EndChar

StartChar: AE
Encoding: 198 198 136
Width: 768
GlyphClass: 2
Flags: W
LayerCount: 2
Fore
SplineSet
-130 510 m 1,0,-1
 0 510 l 1,1,-1
 0 385 l 1,2,-1
 -130 385 l 1,3,-1
 -130 510 l 1,0,-1
126 896 m 1,4,-1
 258 896 l 1,5,-1
 258 766 l 1,6,-1
 126 766 l 1,7,-1
 126 896 l 1,4,-1
0 768 m 1,8,-1
 128 768 l 1,9,-1
 128 512 l 1,10,-1
 0 512 l 1,11,-1
 0 768 l 1,8,-1
-258 254 m 1,12,-1
 -128 254 l 1,13,-1
 -128 0 l 1,14,-1
 -258 0 l 1,15,-1
 -258 254 l 1,12,-1
-129 386 m 1,16,-1
 256 386 l 1,17,-1
 256 255 l 1,18,-1
 -129 255 l 1,19,-1
 -129 386 l 1,16,-1
256 0 m 1,20,-1
 256 896 l 1,21,-1
 638 898 l 1,22,-1
 638 770 l 1,23,-1
 384 768 l 1,24,-1
 384 512 l 1,25,-1
 638 512 l 1,26,-1
 638 384 l 1,27,-1
 384 384 l 1,28,-1
 384 128 l 1,29,-1
 638 128 l 1,30,-1
 638 0 l 1,31,-1
 256 0 l 1,20,-1
EndSplineSet
EndChar

StartChar: Ccedilla
Encoding: 199 199 137
Width: 768
GlyphClass: 2
Flags: W
LayerCount: 2
Fore
SplineSet
254 -126 m 1,0,-1
 254 0 l 1,1,-1
 386 0 l 1,2,-1
 386 -126 l 1,3,-1
 254 -126 l 1,0,-1
128 0 m 1,4,-1
 128 128 l 1,5,-1
 512 128 l 1,6,-1
 512 0 l 1,7,-1
 128 0 l 1,4,-1
512 128 m 1,8,-1
 512 256 l 1,9,-1
 640 256 l 1,10,-1
 640 128 l 1,11,-1
 512 128 l 1,8,-1
0 128 m 1,12,-1
 0 768 l 1,13,-1
 128 768 l 1,14,-1
 128 128 l 1,15,-1
 0 128 l 1,12,-1
512 640 m 1,16,-1
 512 768 l 1,17,-1
 640 768 l 1,18,-1
 640 640 l 1,19,-1
 512 640 l 1,16,-1
128 768 m 1,20,-1
 128 896 l 1,21,-1
 512 896 l 1,22,-1
 512 768 l 1,23,-1
 128 768 l 1,20,-1
EndSplineSet
EndChar

StartChar: Egrave
Encoding: 200 200 138
Width: 768
GlyphClass: 2
Flags: W
LayerCount: 2
Fore
SplineSet
128 1281 m 1,0,-1
 256 1281 l 1,1,-1
 256 1152 l 1,2,-1
 128 1152 l 1,3,-1
 128 1281 l 1,0,-1
385 1024 m 1,4,-1
 256 1024 l 1,5,-1
 256 1150 l 1,6,-1
 385 1150 l 1,7,-1
 385 1024 l 1,4,-1
0 0 m 1,8,-1
 0 896 l 1,9,-1
 514 896 l 1,10,-1
 514 768 l 1,11,-1
 128 768 l 1,12,-1
 128 512 l 1,13,-1
 512 512 l 1,14,-1
 512 384 l 1,15,-1
 128 384 l 1,16,-1
 128 128 l 1,17,-1
 513 128 l 1,18,-1
 513 0 l 1,19,-1
 0 0 l 1,8,-1
EndSplineSet
EndChar

StartChar: Eacute
Encoding: 201 201 139
Width: 768
GlyphClass: 2
Flags: W
LayerCount: 2
Fore
SplineSet
390 1281 m 5,0,-1
 262 1281 l 5,1,-1
 262 1152 l 5,2,-1
 390 1152 l 5,3,-1
 390 1281 l 5,0,-1
133 1024 m 5,4,-1
 262 1024 l 5,5,-1
 262 1150 l 5,6,-1
 133 1150 l 5,7,-1
 133 1024 l 5,4,-1
-6 0 m 5,8,-1
 -6 896 l 5,9,-1
 508 896 l 5,10,-1
 508 768 l 5,11,-1
 122 768 l 5,12,-1
 122 512 l 5,13,-1
 506 512 l 5,14,-1
 506 384 l 5,15,-1
 122 384 l 5,16,-1
 122 128 l 5,17,-1
 507 128 l 5,18,-1
 507 0 l 5,19,-1
 -6 0 l 5,8,-1
EndSplineSet
EndChar

StartChar: Ecircumflex
Encoding: 202 202 140
Width: 768
GlyphClass: 2
Flags: W
LayerCount: 2
Fore
SplineSet
508 1025 m 5,0,-1
 382 1025 l 1,1,-1
 382 1151 l 1,2,-1
 508 1151 l 1,3,-1
 508 1025 l 5,0,-1
390 1281 m 1,4,-1
 262 1281 l 1,5,-1
 262 1152 l 1,6,-1
 390 1152 l 1,7,-1
 390 1281 l 1,4,-1
133 1024 m 1,8,-1
 262 1024 l 1,9,-1
 262 1150 l 1,10,-1
 133 1150 l 1,11,-1
 133 1024 l 1,8,-1
-6 0 m 1,12,-1
 -6 896 l 1,13,-1
 508 896 l 1,14,-1
 508 768 l 1,15,-1
 122 768 l 1,16,-1
 122 512 l 1,17,-1
 506 512 l 1,18,-1
 506 384 l 1,19,-1
 122 384 l 1,20,-1
 122 128 l 1,21,-1
 507 128 l 1,22,-1
 507 0 l 1,23,-1
 -6 0 l 1,12,-1
EndSplineSet
EndChar

StartChar: Edieresis
Encoding: 203 203 141
Width: 768
GlyphClass: 2
Flags: W
LayerCount: 2
Fore
SplineSet
126 1152 m 5,0,-1
 254 1152 l 1,1,-1
 254 1024 l 1,2,-1
 126 1024 l 1,3,-1
 126 1152 l 5,0,-1
383 1152 m 1,4,-1
 513 1152 l 1,5,-1
 513 1022 l 1,6,-1
 383 1022 l 1,7,-1
 383 1152 l 1,4,-1
0 0 m 1,8,-1
 0 896 l 1,9,-1
 514 896 l 1,10,-1
 514 768 l 1,11,-1
 128 768 l 1,12,-1
 128 512 l 1,13,-1
 512 512 l 1,14,-1
 512 384 l 1,15,-1
 128 384 l 1,16,-1
 128 128 l 1,17,-1
 513 128 l 1,18,-1
 513 0 l 1,19,-1
 0 0 l 1,8,-1
EndSplineSet
EndChar

StartChar: Igrave
Encoding: 204 204 142
Width: 512
GlyphClass: 2
Flags: W
LayerCount: 2
Fore
SplineSet
128 1282 m 1,0,-1
 258 1282 l 1,1,-1
 258 1153 l 1,2,-1
 128 1153 l 1,3,-1
 128 1282 l 1,0,-1
258 1153 m 1,4,-1
 386 1153 l 1,5,-1
 386 1024 l 1,6,-1
 258 1024 l 1,7,-1
 258 1153 l 1,4,-1
0 0 m 1,8,-1
 0 128 l 1,9,-1
 128 128 l 1,10,-1
 128 768 l 1,11,-1
 0 768 l 1,12,-1
 0 896 l 1,13,-1
 384 896 l 1,14,-1
 384 768 l 1,15,-1
 256 768 l 1,16,-1
 256 128 l 1,17,-1
 384 128 l 1,18,-1
 384 0 l 1,19,-1
 0 0 l 1,8,-1
EndSplineSet
EndChar

StartChar: Iacute
Encoding: 205 205 143
Width: 512
GlyphClass: 2
Flags: W
LayerCount: 2
Fore
SplineSet
386 1282 m 1,0,-1
 256 1282 l 1,1,-1
 256 1153 l 1,2,-1
 386 1153 l 1,3,-1
 386 1282 l 1,0,-1
256 1153 m 1,4,-1
 128 1153 l 1,5,-1
 128 1024 l 1,6,-1
 256 1024 l 1,7,-1
 256 1153 l 1,4,-1
0 0 m 1,8,-1
 0 128 l 1,9,-1
 128 128 l 1,10,-1
 128 768 l 1,11,-1
 0 768 l 1,12,-1
 0 896 l 1,13,-1
 384 896 l 1,14,-1
 384 768 l 1,15,-1
 256 768 l 1,16,-1
 256 128 l 1,17,-1
 384 128 l 1,18,-1
 384 0 l 1,19,-1
 0 0 l 1,8,-1
EndSplineSet
EndChar

StartChar: Icircumflex
Encoding: 206 206 144
Width: 512
GlyphClass: 2
Flags: W
LayerCount: 2
Fore
SplineSet
126 1283 m 5,0,-1
 256 1283 l 1,1,-1
 256 1151 l 1,2,-1
 126 1151 l 1,3,-1
 126 1283 l 5,0,-1
256 1151 m 1,4,-1
 386 1151 l 1,5,-1
 386 1025 l 1,6,-1
 256 1025 l 1,7,-1
 256 1151 l 1,4,-1
0 1153 m 1,8,-1
 130 1153 l 1,9,-1
 130 1024 l 1,10,-1
 0 1024 l 1,11,-1
 0 1153 l 1,8,-1
0 0 m 1,12,-1
 0 128 l 1,13,-1
 128 128 l 1,14,-1
 128 768 l 1,15,-1
 0 768 l 1,16,-1
 0 896 l 1,17,-1
 384 896 l 1,18,-1
 384 768 l 1,19,-1
 256 768 l 1,20,-1
 256 128 l 1,21,-1
 384 128 l 1,22,-1
 384 0 l 1,23,-1
 0 0 l 1,12,-1
EndSplineSet
EndChar

StartChar: Idieresis
Encoding: 207 207 145
Width: 512
GlyphClass: 2
Flags: W
LayerCount: 2
Fore
SplineSet
256 1151 m 1,0,-1
 386 1151 l 1,1,-1
 386 1025 l 1,2,-1
 256 1025 l 1,3,-1
 256 1151 l 1,0,-1
0 1153 m 1,4,-1
 130 1153 l 1,5,-1
 130 1024 l 1,6,-1
 0 1024 l 1,7,-1
 0 1153 l 1,4,-1
0 0 m 1,8,-1
 0 128 l 1,9,-1
 128 128 l 1,10,-1
 128 768 l 1,11,-1
 0 768 l 1,12,-1
 0 896 l 1,13,-1
 384 896 l 1,14,-1
 384 768 l 1,15,-1
 256 768 l 1,16,-1
 256 128 l 1,17,-1
 384 128 l 1,18,-1
 384 0 l 1,19,-1
 0 0 l 1,8,-1
EndSplineSet
EndChar

StartChar: Eth
Encoding: 208 208 146
Width: 768
GlyphClass: 2
Flags: W
LayerCount: 2
Fore
SplineSet
-130 515 m 5,0,-1
 254 515 l 1,1,-1
 254 381 l 1,2,-1
 -130 381 l 1,3,-1
 -130 515 l 5,0,-1
512 128 m 1,4,-1
 512 768 l 1,5,-1
 640 768 l 1,6,-1
 640 128 l 1,7,-1
 512 128 l 1,4,-1
0 0 m 1,8,-1
 0 896 l 1,9,-1
 512 896 l 1,10,-1
 512 768 l 1,11,-1
 128 768 l 1,12,-1
 128 128 l 1,13,-1
 512 128 l 1,14,-1
 512 0 l 1,15,-1
 0 0 l 1,8,-1
EndSplineSet
EndChar

StartChar: Ntilde
Encoding: 209 209 147
Width: 768
GlyphClass: 2
Flags: W
LayerCount: 2
Fore
SplineSet
512 1026 m 1,0,-1
 383 1026 l 1,1,-1
 383 1154 l 1,2,-1
 512 1154 l 1,3,-1
 512 1026 l 1,0,-1
512 1280 m 1,4,-1
 640 1280 l 1,5,-1
 640 1153 l 1,6,-1
 512 1153 l 1,7,-1
 512 1280 l 1,4,-1
254 1279 m 1,8,-1
 384 1279 l 1,9,-1
 384 1153 l 1,10,-1
 254 1153 l 1,11,-1
 254 1279 l 1,8,-1
126 1151 m 1,12,-1
 256 1151 l 1,13,-1
 256 1024 l 1,14,-1
 126 1024 l 1,15,-1
 126 1151 l 1,12,-1
256 384 m 1,16,-1
 256 512 l 1,17,-1
 384 512 l 1,18,-1
 384 384 l 1,19,-1
 256 384 l 1,16,-1
0 0 m 1,20,-1
 0 896 l 1,21,-1
 128 896 l 1,22,-1
 128 640 l 1,23,-1
 256 640 l 1,24,-1
 256 512 l 1,25,-1
 128 512 l 1,26,-1
 128 0 l 1,27,-1
 0 0 l 1,20,-1
512 0 m 1,28,-1
 512 256 l 1,29,-1
 384 256 l 1,30,-1
 384 384 l 1,31,-1
 512 384 l 1,32,-1
 512 896 l 1,33,-1
 640 896 l 1,34,-1
 640 0 l 1,35,-1
 512 0 l 1,28,-1
EndSplineSet
EndChar

StartChar: Ograve
Encoding: 210 210 148
Width: 768
GlyphClass: 2
Flags: W
LayerCount: 2
Fore
SplineSet
512 1026 m 1,0,-1
 383 1026 l 1,1,-1
 383 1153 l 1,2,-1
 512 1153 l 1,3,-1
 512 1026 l 1,0,-1
256 1282 m 1,4,-1
 383 1282 l 1,5,-1
 383 1153 l 1,6,-1
 256 1153 l 1,7,-1
 256 1282 l 1,4,-1
128 0 m 1,8,-1
 128 128 l 1,9,-1
 512 128 l 1,10,-1
 512 0 l 1,11,-1
 128 0 l 1,8,-1
0 128 m 1,12,-1
 0 768 l 1,13,-1
 128 768 l 1,14,-1
 128 128 l 1,15,-1
 0 128 l 1,12,-1
512 128 m 1,16,-1
 512 768 l 1,17,-1
 640 768 l 1,18,-1
 640 128 l 1,19,-1
 512 128 l 1,16,-1
128 768 m 1,20,-1
 128 896 l 1,21,-1
 512 896 l 1,22,-1
 512 768 l 1,23,-1
 128 768 l 1,20,-1
EndSplineSet
EndChar

StartChar: Oacute
Encoding: 211 211 149
Width: 768
GlyphClass: 2
Flags: W
LayerCount: 2
Fore
SplineSet
126 1026 m 5,0,-1
 255 1026 l 5,1,-1
 255 1153 l 5,2,-1
 126 1153 l 5,3,-1
 126 1026 l 5,0,-1
382 1282 m 5,4,-1
 255 1282 l 5,5,-1
 255 1153 l 5,6,-1
 382 1153 l 5,7,-1
 382 1282 l 5,4,-1
128 0 m 1,8,-1
 128 128 l 1,9,-1
 512 128 l 1,10,-1
 512 0 l 1,11,-1
 128 0 l 1,8,-1
0 128 m 1,12,-1
 0 768 l 1,13,-1
 128 768 l 1,14,-1
 128 128 l 1,15,-1
 0 128 l 1,12,-1
512 128 m 1,16,-1
 512 768 l 1,17,-1
 640 768 l 1,18,-1
 640 128 l 1,19,-1
 512 128 l 1,16,-1
128 768 m 1,20,-1
 128 896 l 1,21,-1
 512 896 l 1,22,-1
 512 768 l 1,23,-1
 128 768 l 1,20,-1
EndSplineSet
EndChar

StartChar: Ocircumflex
Encoding: 212 212 150
Width: 768
GlyphClass: 2
Flags: W
LayerCount: 2
Fore
SplineSet
383 1024 m 5,0,-1
 383 1153 l 1,1,-1
 512 1153 l 1,2,-1
 512 1024 l 1,3,-1
 383 1024 l 5,0,-1
126 1026 m 1,4,-1
 255 1026 l 1,5,-1
 255 1153 l 1,6,-1
 126 1153 l 1,7,-1
 126 1026 l 1,4,-1
382 1282 m 1,8,-1
 255 1282 l 1,9,-1
 255 1153 l 1,10,-1
 382 1153 l 1,11,-1
 382 1282 l 1,8,-1
128 0 m 1,12,-1
 128 128 l 1,13,-1
 512 128 l 1,14,-1
 512 0 l 1,15,-1
 128 0 l 1,12,-1
0 128 m 1,16,-1
 0 768 l 1,17,-1
 128 768 l 1,18,-1
 128 128 l 1,19,-1
 0 128 l 1,16,-1
512 128 m 1,20,-1
 512 768 l 1,21,-1
 640 768 l 1,22,-1
 640 128 l 1,23,-1
 512 128 l 1,20,-1
128 768 m 1,24,-1
 128 896 l 1,25,-1
 512 896 l 1,26,-1
 512 768 l 1,27,-1
 128 768 l 1,24,-1
EndSplineSet
EndChar

StartChar: Otilde
Encoding: 213 213 151
Width: 768
GlyphClass: 2
Flags: W
LayerCount: 2
Fore
SplineSet
509 1281 m 5,0,-1
 640 1281 l 1,1,-1
 640 1152 l 1,2,-1
 509 1152 l 1,3,-1
 509 1281 l 5,0,-1
383 1024 m 1,4,-1
 383 1153 l 1,5,-1
 512 1153 l 1,6,-1
 512 1024 l 1,7,-1
 383 1024 l 1,4,-1
126 1026 m 1,8,-1
 255 1026 l 1,9,-1
 255 1153 l 1,10,-1
 126 1153 l 1,11,-1
 126 1026 l 1,8,-1
382 1282 m 1,12,-1
 255 1282 l 1,13,-1
 255 1153 l 1,14,-1
 382 1153 l 1,15,-1
 382 1282 l 1,12,-1
128 0 m 1,16,-1
 128 128 l 1,17,-1
 512 128 l 1,18,-1
 512 0 l 1,19,-1
 128 0 l 1,16,-1
0 128 m 1,20,-1
 0 768 l 1,21,-1
 128 768 l 1,22,-1
 128 128 l 1,23,-1
 0 128 l 1,20,-1
512 128 m 1,24,-1
 512 768 l 1,25,-1
 640 768 l 1,26,-1
 640 128 l 1,27,-1
 512 128 l 1,24,-1
128 768 m 1,28,-1
 128 896 l 1,29,-1
 512 896 l 1,30,-1
 512 768 l 1,31,-1
 128 768 l 1,28,-1
EndSplineSet
EndChar

StartChar: Odieresis
Encoding: 214 214 152
Width: 768
GlyphClass: 2
Flags: W
LayerCount: 2
Fore
SplineSet
384 1152 m 1,0,-1
 510 1152 l 1,1,-1
 510 1025 l 1,2,-1
 384 1025 l 1,3,-1
 384 1152 l 1,0,-1
130 1150 m 1,4,-1
 256 1150 l 1,5,-1
 256 1024 l 1,6,-1
 130 1024 l 1,7,-1
 130 1150 l 1,4,-1
128 0 m 1,8,-1
 128 128 l 1,9,-1
 512 128 l 1,10,-1
 512 0 l 1,11,-1
 128 0 l 1,8,-1
0 128 m 1,12,-1
 0 768 l 1,13,-1
 128 768 l 1,14,-1
 128 128 l 1,15,-1
 0 128 l 1,12,-1
512 128 m 1,16,-1
 512 768 l 1,17,-1
 640 768 l 1,18,-1
 640 128 l 1,19,-1
 512 128 l 1,16,-1
128 768 m 1,20,-1
 128 896 l 1,21,-1
 512 896 l 1,22,-1
 512 768 l 1,23,-1
 128 768 l 1,20,-1
EndSplineSet
EndChar

StartChar: multiply
Encoding: 215 215 153
Width: 768
GlyphClass: 2
Flags: W
LayerCount: 2
Fore
SplineSet
0 128 m 5,0,-1
 0 256 l 5,1,-1
 128 256 l 5,2,-1
 128 128 l 5,3,-1
 0 128 l 5,0,-1
512 128 m 5,4,-1
 512 256 l 5,5,-1
 640 256 l 5,6,-1
 640 128 l 5,7,-1
 512 128 l 5,4,-1
128 256 m 5,8,-1
 128 384 l 5,9,-1
 256 384 l 5,10,-1
 256 256 l 5,11,-1
 128 256 l 5,8,-1
384 256 m 5,12,-1
 384 384 l 5,13,-1
 512 384 l 5,14,-1
 512 256 l 5,15,-1
 384 256 l 5,12,-1
256 384 m 5,16,-1
 256 512 l 5,17,-1
 384 512 l 5,18,-1
 384 384 l 5,19,-1
 256 384 l 5,16,-1
128 512 m 5,20,-1
 128 640 l 5,21,-1
 256 640 l 5,22,-1
 256 512 l 5,23,-1
 128 512 l 5,20,-1
384 512 m 5,24,-1
 384 640 l 5,25,-1
 512 640 l 5,26,-1
 512 512 l 5,27,-1
 384 512 l 5,24,-1
0 640 m 5,28,-1
 0 768 l 5,29,-1
 128 768 l 5,30,-1
 128 640 l 5,31,-1
 0 640 l 5,28,-1
512 640 m 5,32,-1
 512 768 l 5,33,-1
 640 768 l 5,34,-1
 640 640 l 5,35,-1
 512 640 l 5,32,-1
EndSplineSet
EndChar

StartChar: Oslash
Encoding: 216 216 154
Width: 768
GlyphClass: 2
Flags: W
LayerCount: 2
Fore
SplineSet
254 898 m 1,0,-1
 642 898 l 1,1,-1
 642 768 l 1,2,-1
 254 768 l 1,3,-1
 254 898 l 1,0,-1
254 1 m 1,4,-1
 254 130 l 1,5,-1
 642 130 l 1,6,-1
 642 1 l 1,7,-1
 254 1 l 1,4,-1
127 768 m 1,8,-1
 258 768 l 1,9,-1
 258 258 l 1,10,-1
 127 258 l 1,11,-1
 127 768 l 1,8,-1
768 130 m 1,12,-1
 642 130 l 1,13,-1
 642 642 l 1,14,-1
 768 642 l 1,15,-1
 768 130 l 1,12,-1
766 898 m 1,16,-1
 894 898 l 1,17,-1
 894 766 l 1,18,-1
 766 766 l 1,19,-1
 766 898 l 1,16,-1
642 768 m 1,20,-1
 770 768 l 1,21,-1
 770 642 l 1,22,-1
 642 642 l 1,23,-1
 642 768 l 1,20,-1
509 642 m 1,24,-1
 641 642 l 1,25,-1
 641 511 l 1,26,-1
 509 511 l 1,27,-1
 509 642 l 1,24,-1
381 509 m 1,28,-1
 512 509 l 1,29,-1
 512 385 l 1,30,-1
 381 385 l 1,31,-1
 381 509 l 1,28,-1
253 386 m 1,32,-1
 383 385 l 1,33,-1
 383 257 l 1,34,-1
 253 258 l 1,35,-1
 253 386 l 1,32,-1
127 258 m 1,36,-1
 258 258 l 1,37,-1
 258 130 l 1,38,-1
 127 130 l 1,39,-1
 127 258 l 1,36,-1
127 0 m 1,40,-1
 0 0 l 1,41,-1
 0 127 l 1,42,-1
 127 127 l 1,43,-1
 127 0 l 1,40,-1
EndSplineSet
EndChar

StartChar: Ugrave
Encoding: 217 217 155
Width: 768
GlyphClass: 2
Flags: W
LayerCount: 2
Fore
SplineSet
256 1277 m 5,0,-1
 384 1277 l 1,1,-1
 384 1151 l 1,2,-1
 256 1151 l 1,3,-1
 256 1277 l 5,0,-1
384 1151 m 1,4,-1
 512 1151 l 1,5,-1
 512 1023 l 1,6,-1
 384 1023 l 1,7,-1
 384 1151 l 1,4,-1
128 0 m 1,8,-1
 128 128 l 1,9,-1
 512 128 l 1,10,-1
 512 0 l 1,11,-1
 128 0 l 1,8,-1
0 128 m 1,12,-1
 0 896 l 1,13,-1
 128 896 l 1,14,-1
 128 128 l 1,15,-1
 0 128 l 1,12,-1
512 128 m 1,16,-1
 512 896 l 1,17,-1
 640 896 l 1,18,-1
 640 128 l 1,19,-1
 512 128 l 1,16,-1
EndSplineSet
EndChar

StartChar: Uacute
Encoding: 218 218 156
Width: 768
GlyphClass: 2
Flags: W
LayerCount: 2
Fore
SplineSet
384 1277 m 1,0,-1
 256 1277 l 1,1,-1
 256 1151 l 1,2,-1
 384 1151 l 1,3,-1
 384 1277 l 1,0,-1
256 1151 m 1,4,-1
 128 1151 l 1,5,-1
 128 1023 l 1,6,-1
 256 1023 l 1,7,-1
 256 1151 l 1,4,-1
128 0 m 1,8,-1
 128 128 l 1,9,-1
 512 128 l 1,10,-1
 512 0 l 1,11,-1
 128 0 l 1,8,-1
0 128 m 1,12,-1
 0 896 l 1,13,-1
 128 896 l 1,14,-1
 128 128 l 1,15,-1
 0 128 l 1,12,-1
512 128 m 1,16,-1
 512 896 l 1,17,-1
 640 896 l 1,18,-1
 640 128 l 1,19,-1
 512 128 l 1,16,-1
EndSplineSet
EndChar

StartChar: Ucircumflex
Encoding: 219 219 157
Width: 768
GlyphClass: 2
Flags: W
LayerCount: 2
Fore
SplineSet
382 1024 m 5,0,-1
 382 1150 l 1,1,-1
 514 1150 l 1,2,-1
 514 1024 l 1,3,-1
 382 1024 l 5,0,-1
384 1277 m 1,4,-1
 256 1277 l 1,5,-1
 256 1151 l 1,6,-1
 384 1151 l 1,7,-1
 384 1277 l 1,4,-1
256 1151 m 1,8,-1
 128 1151 l 1,9,-1
 128 1023 l 1,10,-1
 256 1023 l 1,11,-1
 256 1151 l 1,8,-1
128 0 m 1,12,-1
 128 128 l 1,13,-1
 512 128 l 1,14,-1
 512 0 l 1,15,-1
 128 0 l 1,12,-1
0 128 m 1,16,-1
 0 896 l 1,17,-1
 128 896 l 1,18,-1
 128 128 l 1,19,-1
 0 128 l 1,16,-1
512 128 m 1,20,-1
 512 896 l 1,21,-1
 640 896 l 1,22,-1
 640 128 l 1,23,-1
 512 128 l 1,20,-1
EndSplineSet
EndChar

StartChar: Udieresis
Encoding: 220 220 158
Width: 768
GlyphClass: 2
Flags: W
LayerCount: 2
Fore
SplineSet
384 1151 m 5,0,-1
 510 1151 l 1,1,-1
 510 1027 l 1,2,-1
 384 1027 l 1,3,-1
 384 1151 l 5,0,-1
124 1153 m 1,4,-1
 254 1153 l 1,5,-1
 254 1025 l 1,6,-1
 124 1025 l 1,7,-1
 124 1153 l 1,4,-1
128 0 m 1,8,-1
 128 128 l 1,9,-1
 512 128 l 1,10,-1
 512 0 l 1,11,-1
 128 0 l 1,8,-1
0 128 m 1,12,-1
 0 896 l 1,13,-1
 128 896 l 1,14,-1
 128 128 l 1,15,-1
 0 128 l 1,12,-1
512 128 m 1,16,-1
 512 896 l 1,17,-1
 640 896 l 1,18,-1
 640 128 l 1,19,-1
 512 128 l 1,16,-1
EndSplineSet
EndChar

StartChar: Yacute
Encoding: 221 221 159
Width: 768
GlyphClass: 2
Flags: W
LayerCount: 2
Fore
SplineSet
253 1280 m 1,0,-1
 382 1280 l 1,1,-1
 382 1151 l 1,2,-1
 253 1151 l 1,3,-1
 253 1280 l 1,0,-1
126 1149 m 1,4,-1
 256 1149 l 1,5,-1
 256 1023 l 1,6,-1
 126 1023 l 1,7,-1
 126 1149 l 1,4,-1
256 0 m 1,8,-1
 256 384 l 1,9,-1
 384 384 l 1,10,-1
 384 0 l 1,11,-1
 256 0 l 1,8,-1
128 384 m 1,12,-1
 128 512 l 1,13,-1
 256 512 l 1,14,-1
 256 384 l 1,15,-1
 128 384 l 1,12,-1
384 384 m 1,16,-1
 384 512 l 1,17,-1
 512 512 l 1,18,-1
 512 384 l 1,19,-1
 384 384 l 1,16,-1
0 512 m 1,20,-1
 0 896 l 1,21,-1
 128 896 l 1,22,-1
 128 512 l 1,23,-1
 0 512 l 1,20,-1
512 512 m 1,24,-1
 512 896 l 1,25,-1
 640 896 l 1,26,-1
 640 512 l 1,27,-1
 512 512 l 1,24,-1
EndSplineSet
EndChar

StartChar: Thorn
Encoding: 222 222 160
Width: 768
GlyphClass: 2
Flags: W
LayerCount: 2
Fore
SplineSet
510 513 m 5,0,-1
 510 254 l 1,1,-1
 384 254 l 1,2,-1
 384 513 l 1,3,-1
 510 513 l 5,0,-1
384 254 m 1,4,-1
 384 130 l 1,5,-1
 126 130 l 1,6,-1
 126 254 l 1,7,-1
 384 254 l 1,4,-1
384 640 m 1,8,-1
 384 514 l 1,9,-1
 128 514 l 1,10,-1
 128 640 l 1,11,-1
 384 640 l 1,8,-1
0 -126 m 1,12,-1
 0 896 l 1,13,-1
 128 896 l 1,14,-1
 128 -126 l 1,15,-1
 0 -126 l 1,12,-1
EndSplineSet
EndChar

StartChar: germandbls
Encoding: 223 223 161
Width: 768
GlyphClass: 2
Flags: W
LayerCount: 2
Fore
SplineSet
638 127 m 1,0,-1
 510 127 l 1,1,-1
 510 381 l 1,2,-1
 638 381 l 1,3,-1
 638 127 l 1,0,-1
513 387 m 1,4,-1
 128 387 l 1,5,-1
 128 511 l 1,6,-1
 513 511 l 1,7,-1
 513 387 l 1,4,-1
513 511 m 1,8,-1
 384 511 l 1,9,-1
 384 637 l 1,10,-1
 513 637 l 1,11,-1
 513 511 l 1,8,-1
641 641 m 1,12,-1
 510 641 l 1,13,-1
 510 769 l 1,14,-1
 641 769 l 1,15,-1
 641 641 l 1,12,-1
508 0 m 1,16,-1
 132 0 l 1,17,-1
 132 128 l 1,18,-1
 508 128 l 1,19,-1
 508 0 l 1,16,-1
127 897 m 1,20,-1
 510 897 l 1,21,-1
 510 769 l 1,22,-1
 127 769 l 1,23,-1
 127 897 l 1,20,-1
0 -125 m 1,24,-1
 0 771 l 1,25,-1
 129 769 l 1,26,-1
 129 -127 l 1,27,-1
 0 -125 l 1,24,-1
EndSplineSet
EndChar

StartChar: agrave
Encoding: 224 224 162
Width: 768
GlyphClass: 2
Flags: W
LayerCount: 2
Fore
SplineSet
254 1025 m 1,0,-1
 386 1025 l 1,1,-1
 386 896 l 1,2,-1
 254 896 l 1,3,-1
 254 1025 l 1,0,-1
383 898 m 1,4,-1
 512 898 l 1,5,-1
 512 769 l 1,6,-1
 383 769 l 1,7,-1
 383 898 l 1,4,-1
0 128 m 1,8,-1
 0 256 l 1,9,-1
 128 256 l 1,10,-1
 128 128 l 1,11,-1
 0 128 l 1,8,-1
128 0 m 1,12,-1
 128 128 l 1,13,-1
 512 128 l 1,14,-1
 512 256 l 1,15,-1
 128 256 l 1,16,-1
 128 384 l 1,17,-1
 512 384 l 1,18,-1
 512 512 l 1,19,-1
 640 512 l 1,20,-1
 640 0 l 1,21,-1
 128 0 l 1,12,-1
128 512 m 1,22,-1
 128 640 l 1,23,-1
 512 640 l 1,24,-1
 512 512 l 1,25,-1
 128 512 l 1,22,-1
EndSplineSet
EndChar

StartChar: aacute
Encoding: 225 225 163
Width: 768
GlyphClass: 2
Flags: W
LayerCount: 2
Fore
SplineSet
386 1025 m 5,0,-1
 254 1025 l 5,1,-1
 254 896 l 5,2,-1
 386 896 l 5,3,-1
 386 1025 l 5,0,-1
257 898 m 5,4,-1
 128 898 l 5,5,-1
 128 769 l 5,6,-1
 257 769 l 5,7,-1
 257 898 l 5,4,-1
0 128 m 1,8,-1
 0 256 l 1,9,-1
 128 256 l 1,10,-1
 128 128 l 1,11,-1
 0 128 l 1,8,-1
128 0 m 1,12,-1
 128 128 l 1,13,-1
 512 128 l 1,14,-1
 512 256 l 1,15,-1
 128 256 l 1,16,-1
 128 384 l 1,17,-1
 512 384 l 1,18,-1
 512 512 l 1,19,-1
 640 512 l 1,20,-1
 640 0 l 1,21,-1
 128 0 l 1,12,-1
128 512 m 1,22,-1
 128 640 l 1,23,-1
 512 640 l 1,24,-1
 512 512 l 1,25,-1
 128 512 l 1,22,-1
EndSplineSet
EndChar

StartChar: acircumflex
Encoding: 226 226 164
Width: 768
GlyphClass: 2
Flags: W
LayerCount: 2
Fore
SplineSet
382 770 m 1,0,-1
 382 896 l 1,1,-1
 510 896 l 1,2,-1
 510 770 l 1,3,-1
 382 770 l 1,0,-1
386 1025 m 1,4,-1
 254 1025 l 1,5,-1
 254 896 l 1,6,-1
 386 896 l 1,7,-1
 386 1025 l 1,4,-1
257 898 m 1,8,-1
 128 898 l 1,9,-1
 128 769 l 1,10,-1
 257 769 l 1,11,-1
 257 898 l 1,8,-1
0 128 m 1,12,-1
 0 256 l 1,13,-1
 128 256 l 1,14,-1
 128 128 l 1,15,-1
 0 128 l 1,12,-1
128 0 m 1,16,-1
 128 128 l 1,17,-1
 512 128 l 1,18,-1
 512 256 l 1,19,-1
 128 256 l 1,20,-1
 128 384 l 1,21,-1
 512 384 l 1,22,-1
 512 512 l 1,23,-1
 640 512 l 1,24,-1
 640 0 l 1,25,-1
 128 0 l 1,16,-1
128 512 m 1,26,-1
 128 640 l 1,27,-1
 512 640 l 1,28,-1
 512 512 l 1,29,-1
 128 512 l 1,26,-1
EndSplineSet
EndChar

StartChar: atilde
Encoding: 227 227 165
Width: 768
GlyphClass: 2
Flags: W
LayerCount: 2
Fore
SplineSet
639 1024 m 1,0,-1
 639 898 l 1,1,-1
 510 897 l 1,2,-1
 510 1023 l 1,3,-1
 639 1024 l 1,0,-1
382 770 m 1,4,-1
 382 896 l 1,5,-1
 510 896 l 1,6,-1
 510 770 l 1,7,-1
 382 770 l 1,4,-1
386 1025 m 1,8,-1
 254 1025 l 1,9,-1
 254 896 l 1,10,-1
 386 896 l 1,11,-1
 386 1025 l 1,8,-1
257 898 m 1,12,-1
 128 898 l 1,13,-1
 128 769 l 1,14,-1
 257 769 l 1,15,-1
 257 898 l 1,12,-1
0 128 m 1,16,-1
 0 256 l 1,17,-1
 128 256 l 1,18,-1
 128 128 l 1,19,-1
 0 128 l 1,16,-1
128 0 m 1,20,-1
 128 128 l 1,21,-1
 512 128 l 1,22,-1
 512 256 l 1,23,-1
 128 256 l 1,24,-1
 128 384 l 1,25,-1
 512 384 l 1,26,-1
 512 512 l 1,27,-1
 640 512 l 1,28,-1
 640 0 l 1,29,-1
 128 0 l 1,20,-1
128 512 m 1,30,-1
 128 640 l 1,31,-1
 512 640 l 1,32,-1
 512 512 l 1,33,-1
 128 512 l 1,30,-1
EndSplineSet
EndChar

StartChar: adieresis
Encoding: 228 228 166
Width: 768
GlyphClass: 2
Flags: W
LayerCount: 2
Fore
SplineSet
382 893 m 5,0,-1
 510 893 l 1,1,-1
 510 770 l 1,2,-1
 382 770 l 1,3,-1
 382 893 l 5,0,-1
128 898 m 1,4,-1
 254 898 l 1,5,-1
 254 771 l 1,6,-1
 128 771 l 1,7,-1
 128 898 l 1,4,-1
0 128 m 1,8,-1
 0 256 l 1,9,-1
 128 256 l 1,10,-1
 128 128 l 1,11,-1
 0 128 l 1,8,-1
128 0 m 1,12,-1
 128 128 l 1,13,-1
 512 128 l 1,14,-1
 512 256 l 1,15,-1
 128 256 l 1,16,-1
 128 384 l 1,17,-1
 512 384 l 1,18,-1
 512 512 l 1,19,-1
 640 512 l 1,20,-1
 640 0 l 1,21,-1
 128 0 l 1,12,-1
128 512 m 1,22,-1
 128 640 l 1,23,-1
 512 640 l 1,24,-1
 512 512 l 1,25,-1
 128 512 l 1,22,-1
EndSplineSet
EndChar

StartChar: aring
Encoding: 229 229 167
Width: 768
GlyphClass: 2
Flags: W
LayerCount: 2
Fore
SplineSet
254 895 m 5,0,-1
 384 895 l 1,1,-1
 384 771 l 1,2,-1
 254 771 l 1,3,-1
 254 895 l 5,0,-1
0 128 m 1,4,-1
 0 256 l 1,5,-1
 128 256 l 1,6,-1
 128 128 l 1,7,-1
 0 128 l 1,4,-1
128 0 m 1,8,-1
 128 128 l 1,9,-1
 512 128 l 1,10,-1
 512 256 l 1,11,-1
 128 256 l 1,12,-1
 128 384 l 1,13,-1
 512 384 l 1,14,-1
 512 512 l 1,15,-1
 640 512 l 1,16,-1
 640 0 l 1,17,-1
 128 0 l 1,8,-1
128 512 m 1,18,-1
 128 640 l 1,19,-1
 512 640 l 1,20,-1
 512 512 l 1,21,-1
 128 512 l 1,18,-1
EndSplineSet
EndChar

StartChar: ae
Encoding: 230 230 168
Width: 768
GlyphClass: 2
Flags: W
LayerCount: 2
Fore
SplineSet
1025 1 m 1,0,-1
 640 1 l 1,1,-1
 640 124 l 1,2,-1
 1025 124 l 1,3,-1
 1025 1 l 1,0,-1
896 258 m 1,4,-1
 639 258 l 1,5,-1
 639 383 l 1,6,-1
 896 383 l 1,7,-1
 896 258 l 1,4,-1
1024 511 m 1,8,-1
 1024 383 l 1,9,-1
 896 383 l 1,10,-1
 896 511 l 1,11,-1
 1024 511 l 1,8,-1
638 641 m 1,12,-1
 894 641 l 1,13,-1
 894 514 l 1,14,-1
 638 514 l 1,15,-1
 638 641 l 1,12,-1
0 128 m 1,16,-1
 0 256 l 1,17,-1
 128 256 l 1,18,-1
 128 128 l 1,19,-1
 0 128 l 1,16,-1
128 0 m 1,20,-1
 128 128 l 1,21,-1
 512 128 l 1,22,-1
 512 256 l 1,23,-1
 128 256 l 1,24,-1
 128 384 l 1,25,-1
 512 384 l 1,26,-1
 512 512 l 1,27,-1
 640 512 l 1,28,-1
 640 0 l 1,29,-1
 128 0 l 1,20,-1
128 512 m 1,30,-1
 128 640 l 1,31,-1
 512 640 l 1,32,-1
 512 512 l 1,33,-1
 128 512 l 1,30,-1
EndSplineSet
EndChar

StartChar: ccedilla
Encoding: 231 231 169
Width: 768
GlyphClass: 2
Flags: W
LayerCount: 2
Fore
SplineSet
255 -128 m 1,0,-1
 255 0 l 1,1,-1
 386 0 l 1,2,-1
 386 -128 l 1,3,-1
 255 -128 l 1,0,-1
128 0 m 1,4,-1
 128 128 l 1,5,-1
 512 128 l 1,6,-1
 512 0 l 1,7,-1
 128 0 l 1,4,-1
512 128 m 1025,8,-1
0 128 m 1,9,-1
 0 512 l 1,10,-1
 128 512 l 1,11,-1
 128 128 l 1,12,-1
 0 128 l 1,9,-1
128 512 m 1,13,-1
 128 640 l 1,14,-1
 512 640 l 1,15,-1
 512 512 l 1,16,-1
 128 512 l 1,13,-1
EndSplineSet
EndChar

StartChar: egrave
Encoding: 232 232 170
Width: 768
GlyphClass: 2
Flags: W
LayerCount: 2
Fore
SplineSet
254 1024 m 5,0,-1
 383 1024 l 1,1,-1
 383 896 l 1,2,-1
 254 896 l 1,3,-1
 254 1024 l 5,0,-1
510 768 m 1,4,-1
 383 768 l 1,5,-1
 383 896 l 1,6,-1
 510 896 l 1,7,-1
 510 768 l 1,4,-1
128 0 m 1,8,-1
 128 128 l 1,9,-1
 640 128 l 1,10,-1
 640 0 l 1,11,-1
 128 0 l 1,8,-1
0 128 m 1,12,-1
 0 512 l 1,13,-1
 128 512 l 1,14,-1
 128 384 l 1,15,-1
 512 384 l 1,16,-1
 512 512 l 1,17,-1
 640 512 l 1,18,-1
 640 256 l 1,19,-1
 128 256 l 1,20,-1
 128 128 l 1,21,-1
 0 128 l 1,12,-1
128 512 m 1,22,-1
 128 640 l 1,23,-1
 512 640 l 1,24,-1
 512 512 l 1,25,-1
 128 512 l 1,22,-1
EndSplineSet
EndChar

StartChar: eacute
Encoding: 233 233 171
Width: 768
GlyphClass: 2
Flags: W
LayerCount: 2
Fore
SplineSet
388 1024 m 5,0,-1
 259 1024 l 5,1,-1
 259 896 l 5,2,-1
 388 896 l 5,3,-1
 388 1024 l 5,0,-1
132 768 m 5,4,-1
 259 768 l 5,5,-1
 259 896 l 5,6,-1
 132 896 l 5,7,-1
 132 768 l 5,4,-1
128 0 m 1,8,-1
 128 128 l 1,9,-1
 640 128 l 1,10,-1
 640 0 l 1,11,-1
 128 0 l 1,8,-1
0 128 m 1,12,-1
 0 512 l 1,13,-1
 128 512 l 1,14,-1
 128 384 l 1,15,-1
 512 384 l 1,16,-1
 512 512 l 1,17,-1
 640 512 l 1,18,-1
 640 256 l 1,19,-1
 128 256 l 1,20,-1
 128 128 l 1,21,-1
 0 128 l 1,12,-1
128 512 m 1,22,-1
 128 640 l 1,23,-1
 512 640 l 1,24,-1
 512 512 l 1,25,-1
 128 512 l 1,22,-1
EndSplineSet
EndChar

StartChar: ecircumflex
Encoding: 234 234 172
Width: 768
GlyphClass: 2
Flags: W
LayerCount: 2
Fore
SplineSet
126 897 m 5,0,-1
 254 897 l 1,1,-1
 254 769 l 1,2,-1
 126 769 l 1,3,-1
 126 897 l 5,0,-1
254 1024 m 1,4,-1
 383 1024 l 1,5,-1
 383 896 l 1,6,-1
 254 896 l 1,7,-1
 254 1024 l 1,4,-1
510 768 m 1,8,-1
 383 768 l 1,9,-1
 383 896 l 1,10,-1
 510 896 l 1,11,-1
 510 768 l 1,8,-1
128 0 m 1,12,-1
 128 128 l 1,13,-1
 640 128 l 1,14,-1
 640 0 l 1,15,-1
 128 0 l 1,12,-1
0 128 m 1,16,-1
 0 512 l 1,17,-1
 128 512 l 1,18,-1
 128 384 l 1,19,-1
 512 384 l 1,20,-1
 512 512 l 1,21,-1
 640 512 l 1,22,-1
 640 256 l 1,23,-1
 128 256 l 1,24,-1
 128 128 l 1,25,-1
 0 128 l 1,16,-1
128 512 m 1,26,-1
 128 640 l 1,27,-1
 512 640 l 1,28,-1
 512 512 l 1,29,-1
 128 512 l 1,26,-1
EndSplineSet
EndChar

StartChar: edieresis
Encoding: 235 235 173
Width: 768
GlyphClass: 2
Flags: W
LayerCount: 2
Fore
SplineSet
384 895 m 5,0,-1
 512 895 l 1,1,-1
 512 768 l 1,2,-1
 384 768 l 1,3,-1
 384 895 l 5,0,-1
128 896 m 1,4,-1
 256 896 l 1,5,-1
 256 768 l 1,6,-1
 128 768 l 1,7,-1
 128 896 l 1,4,-1
865 180 m 1,8,-1
 865 200 l 1,9,-1
 868 200 l 1,10,-1
 868 180 l 1,11,-1
 865 180 l 1,8,-1
128 0 m 1,12,-1
 128 128 l 1,13,-1
 640 128 l 1,14,-1
 640 0 l 1,15,-1
 128 0 l 1,12,-1
0 128 m 1,16,-1
 0 512 l 1,17,-1
 128 512 l 1,18,-1
 128 384 l 1,19,-1
 512 384 l 1,20,-1
 512 512 l 1,21,-1
 640 512 l 1,22,-1
 640 256 l 1,23,-1
 128 256 l 1,24,-1
 128 128 l 1,25,-1
 0 128 l 1,16,-1
128 512 m 1,26,-1
 128 640 l 1,27,-1
 512 640 l 1,28,-1
 512 512 l 1,29,-1
 128 512 l 1,26,-1
EndSplineSet
EndChar

StartChar: igrave
Encoding: 236 236 174
Width: 512
GlyphClass: 2
Flags: W
LayerCount: 2
Fore
SplineSet
0 1023 m 5,0,-1
 128 1023 l 1,1,-1
 128 896 l 1,2,-1
 0 896 l 1,3,-1
 0 1023 l 5,0,-1
0 0 m 1,4,-1
 0 128 l 1,5,-1
 128 128 l 1,6,-1
 128 512 l 1,7,-1
 0 512 l 1,8,-1
 0 640 l 1,9,-1
 256 640 l 1,10,-1
 256 128 l 1,11,-1
 384 128 l 1,12,-1
 384 0 l 1,13,-1
 0 0 l 1,4,-1
128 768 m 1,14,-1
 128 896 l 1,15,-1
 256 896 l 1,16,-1
 256 768 l 1,17,-1
 128 768 l 1,14,-1
EndSplineSet
EndChar

StartChar: iacute
Encoding: 237 237 175
Width: 512
GlyphClass: 2
Flags: W
LayerCount: 2
Fore
SplineSet
386 1023 m 5,0,-1
 258 1023 l 5,1,-1
 258 896 l 5,2,-1
 386 896 l 5,3,-1
 386 1023 l 5,0,-1
0 0 m 1,4,-1
 0 128 l 1,5,-1
 128 128 l 1,6,-1
 128 512 l 1,7,-1
 0 512 l 1,8,-1
 0 640 l 1,9,-1
 256 640 l 1,10,-1
 256 128 l 1,11,-1
 384 128 l 1,12,-1
 384 0 l 1,13,-1
 0 0 l 1,4,-1
258 768 m 5,14,-1
 258 896 l 5,15,-1
 130 896 l 5,16,-1
 130 768 l 5,17,-1
 258 768 l 5,14,-1
EndSplineSet
EndChar

StartChar: icircumflex
Encoding: 238 238 176
Width: 512
GlyphClass: 2
Flags: W
LayerCount: 2
Fore
SplineSet
129 1023 m 5,0,-1
 253 1023 l 1,1,-1
 253 897 l 1,2,-1
 129 897 l 1,3,-1
 129 1023 l 5,0,-1
253 897 m 1,4,-1
 383 897 l 1,5,-1
 383 769 l 1,6,-1
 253 769 l 1,7,-1
 253 897 l 1,4,-1
0 0 m 1,8,-1
 0 128 l 1,9,-1
 128 128 l 1,10,-1
 128 512 l 1,11,-1
 0 512 l 1,12,-1
 0 640 l 1,13,-1
 256 640 l 1,14,-1
 256 128 l 1,15,-1
 384 128 l 1,16,-1
 384 0 l 1,17,-1
 0 0 l 1,8,-1
0 768 m 1,18,-1
 0 896 l 1,19,-1
 128 896 l 1,20,-1
 128 768 l 1,21,-1
 0 768 l 1,18,-1
EndSplineSet
EndChar

StartChar: idieresis
Encoding: 239 239 177
Width: 512
GlyphClass: 2
Flags: W
LayerCount: 2
Fore
SplineSet
253 897 m 1,0,-1
 383 897 l 1,1,-1
 383 769 l 1,2,-1
 253 769 l 1,3,-1
 253 897 l 1,0,-1
0 0 m 1,4,-1
 0 128 l 1,5,-1
 128 128 l 1,6,-1
 128 512 l 1,7,-1
 0 512 l 1,8,-1
 0 640 l 1,9,-1
 256 640 l 1,10,-1
 256 128 l 1,11,-1
 384 128 l 1,12,-1
 384 0 l 1,13,-1
 0 0 l 1,4,-1
0 768 m 1,14,-1
 0 896 l 1,15,-1
 128 896 l 1,16,-1
 128 768 l 1,17,-1
 0 768 l 1,14,-1
EndSplineSet
EndChar

StartChar: eth
Encoding: 240 240 178
Width: 768
GlyphClass: 2
Flags: W
LayerCount: 2
Fore
SplineSet
127 1021 m 1,0,-1
 386 1021 l 1,1,-1
 386 896 l 1,2,-1
 127 896 l 1,3,-1
 127 1021 l 1,0,-1
511 1027 m 1,4,-1
 644 1027 l 1,5,-1
 644 896 l 1,6,-1
 511 896 l 1,7,-1
 511 1027 l 1,4,-1
254 768 m 1,8,-1
 385 768 l 1,9,-1
 385 638 l 1,10,-1
 254 638 l 1,11,-1
 254 768 l 1,8,-1
382 894 m 1,12,-1
 514 894 l 1,13,-1
 514 765 l 1,14,-1
 382 765 l 1,15,-1
 382 894 l 1,12,-1
126 512 m 1,16,-1
 509 512 l 1,17,-1
 509 383 l 1,18,-1
 126 383 l 1,19,-1
 126 512 l 1,16,-1
0 385 m 1,20,-1
 128 385 l 1,21,-1
 128 128 l 1,22,-1
 0 128 l 1,23,-1
 0 385 l 1,20,-1
511 772 m 1,24,-1
 640 772 l 1,25,-1
 640 124 l 1,26,-1
 511 124 l 1,27,-1
 511 772 l 1,24,-1
128 0 m 1,28,-1
 128 128 l 1,29,-1
 515 128 l 1,30,-1
 515 0 l 1,31,-1
 128 0 l 1,28,-1
EndSplineSet
EndChar

StartChar: ntilde
Encoding: 241 241 179
Width: 768
GlyphClass: 2
Flags: W
LayerCount: 2
Fore
SplineSet
512 769 m 1,0,-1
 383 769 l 1,1,-1
 383 896 l 1,2,-1
 512 896 l 1,3,-1
 512 769 l 1,0,-1
512 1024 m 1,4,-1
 639 1024 l 1,5,-1
 639 895 l 1,6,-1
 512 895 l 1,7,-1
 512 1024 l 1,4,-1
256 1023 m 1,8,-1
 382 1023 l 1,9,-1
 382 896 l 1,10,-1
 256 896 l 1,11,-1
 256 1023 l 1,8,-1
127 896 m 1,12,-1
 257 896 l 1,13,-1
 257 768 l 1,14,-1
 127 768 l 1,15,-1
 127 896 l 1,12,-1
512 0 m 1,16,-1
 512 512 l 1,17,-1
 640 512 l 1,18,-1
 640 0 l 1,19,-1
 512 0 l 1,16,-1
0 0 m 1,20,-1
 0 640 l 1,21,-1
 128 640 l 1,22,-1
 128 512 l 1,23,-1
 256 512 l 1,24,-1
 256 384 l 1,25,-1
 128 384 l 1,26,-1
 128 0 l 1,27,-1
 0 0 l 1,20,-1
256 512 m 1,28,-1
 256 640 l 1,29,-1
 512 640 l 1,30,-1
 512 512 l 1,31,-1
 256 512 l 1,28,-1
EndSplineSet
EndChar

StartChar: ograve
Encoding: 242 242 180
Width: 768
GlyphClass: 2
Flags: W
LayerCount: 2
Fore
SplineSet
256 1025 m 1,0,-1
 384 1025 l 1,1,-1
 384 896 l 1,2,-1
 256 896 l 1,3,-1
 256 1025 l 1,0,-1
384 896 m 1,4,-1
 511 896 l 1,5,-1
 511 768 l 1,6,-1
 384 768 l 1,7,-1
 384 896 l 1,4,-1
128 0 m 1,8,-1
 128 128 l 1,9,-1
 512 128 l 1,10,-1
 512 0 l 1,11,-1
 128 0 l 1,8,-1
0 128 m 1,12,-1
 0 512 l 1,13,-1
 128 512 l 1,14,-1
 128 128 l 1,15,-1
 0 128 l 1,12,-1
512 128 m 1,16,-1
 512 512 l 1,17,-1
 640 512 l 1,18,-1
 640 128 l 1,19,-1
 512 128 l 1,16,-1
128 512 m 1,20,-1
 128 640 l 1,21,-1
 512 640 l 1,22,-1
 512 512 l 1,23,-1
 128 512 l 1,20,-1
EndSplineSet
EndChar

StartChar: oacute
Encoding: 243 243 181
Width: 768
GlyphClass: 2
Flags: W
LayerCount: 2
Fore
SplineSet
384 1025 m 5,0,-1
 256 1025 l 5,1,-1
 256 896 l 5,2,-1
 384 896 l 5,3,-1
 384 1025 l 5,0,-1
256 896 m 5,4,-1
 129 896 l 5,5,-1
 129 768 l 5,6,-1
 256 768 l 5,7,-1
 256 896 l 5,4,-1
128 0 m 1,8,-1
 128 128 l 1,9,-1
 512 128 l 1,10,-1
 512 0 l 1,11,-1
 128 0 l 1,8,-1
0 128 m 1,12,-1
 0 512 l 1,13,-1
 128 512 l 1,14,-1
 128 128 l 1,15,-1
 0 128 l 1,12,-1
512 128 m 1,16,-1
 512 512 l 1,17,-1
 640 512 l 1,18,-1
 640 128 l 1,19,-1
 512 128 l 1,16,-1
128 512 m 1,20,-1
 128 640 l 1,21,-1
 512 640 l 1,22,-1
 512 512 l 1,23,-1
 128 512 l 1,20,-1
EndSplineSet
EndChar

StartChar: ocircumflex
Encoding: 244 244 182
Width: 768
GlyphClass: 2
Flags: W
LayerCount: 2
Fore
SplineSet
511 770 m 5,0,-1
 384 770 l 1,1,-1
 384 896 l 1,2,-1
 511 896 l 1,3,-1
 511 770 l 5,0,-1
384 1025 m 1,4,-1
 256 1025 l 1,5,-1
 256 896 l 1,6,-1
 384 896 l 1,7,-1
 384 1025 l 1,4,-1
256 896 m 1,8,-1
 129 896 l 1,9,-1
 129 768 l 1,10,-1
 256 768 l 1,11,-1
 256 896 l 1,8,-1
128 0 m 1,12,-1
 128 128 l 1,13,-1
 512 128 l 1,14,-1
 512 0 l 1,15,-1
 128 0 l 1,12,-1
0 128 m 1,16,-1
 0 512 l 1,17,-1
 128 512 l 1,18,-1
 128 128 l 1,19,-1
 0 128 l 1,16,-1
512 128 m 1,20,-1
 512 512 l 1,21,-1
 640 512 l 1,22,-1
 640 128 l 1,23,-1
 512 128 l 1,20,-1
128 512 m 1,24,-1
 128 640 l 1,25,-1
 512 640 l 1,26,-1
 512 512 l 1,27,-1
 128 512 l 1,24,-1
EndSplineSet
EndChar

StartChar: otilde
Encoding: 245 245 183
Width: 768
GlyphClass: 2
Flags: W
LayerCount: 2
Fore
SplineSet
510 1026 m 1,0,-1
 639 1026 l 1,1,-1
 639 898 l 1,2,-1
 510 898 l 1,3,-1
 510 1026 l 1,0,-1
511 770 m 1,4,-1
 384 770 l 1,5,-1
 384 896 l 1,6,-1
 511 896 l 1,7,-1
 511 770 l 1,4,-1
384 1025 m 1,8,-1
 256 1025 l 1,9,-1
 256 896 l 1,10,-1
 384 896 l 1,11,-1
 384 1025 l 1,8,-1
256 896 m 1,12,-1
 129 896 l 1,13,-1
 129 768 l 1,14,-1
 256 768 l 1,15,-1
 256 896 l 1,12,-1
128 0 m 1,16,-1
 128 128 l 1,17,-1
 512 128 l 1,18,-1
 512 0 l 1,19,-1
 128 0 l 1,16,-1
0 128 m 1,20,-1
 0 512 l 1,21,-1
 128 512 l 1,22,-1
 128 128 l 1,23,-1
 0 128 l 1,20,-1
512 128 m 1,24,-1
 512 512 l 1,25,-1
 640 512 l 1,26,-1
 640 128 l 1,27,-1
 512 128 l 1,24,-1
128 512 m 1,28,-1
 128 640 l 1,29,-1
 512 640 l 1,30,-1
 512 512 l 1,31,-1
 128 512 l 1,28,-1
EndSplineSet
EndChar

StartChar: odieresis
Encoding: 246 246 184
Width: 768
GlyphClass: 2
Flags: W
LayerCount: 2
Fore
SplineSet
382 898 m 5,0,-1
 512 898 l 1,1,-1
 512 769 l 1,2,-1
 382 769 l 1,3,-1
 382 898 l 5,0,-1
127 897 m 1,4,-1
 256 897 l 1,5,-1
 256 767 l 1,6,-1
 127 767 l 1,7,-1
 127 897 l 1,4,-1
128 0 m 1,8,-1
 128 128 l 1,9,-1
 512 128 l 1,10,-1
 512 0 l 1,11,-1
 128 0 l 1,8,-1
0 128 m 1,12,-1
 0 512 l 1,13,-1
 128 512 l 1,14,-1
 128 128 l 1,15,-1
 0 128 l 1,12,-1
512 128 m 1,16,-1
 512 512 l 1,17,-1
 640 512 l 1,18,-1
 640 128 l 1,19,-1
 512 128 l 1,16,-1
128 512 m 1,20,-1
 128 640 l 1,21,-1
 512 640 l 1,22,-1
 512 512 l 1,23,-1
 128 512 l 1,20,-1
EndSplineSet
EndChar

StartChar: divide
Encoding: 247 247 185
Width: 768
GlyphClass: 2
Flags: W
LayerCount: 2
Fore
SplineSet
256 128 m 1,0,-1
 256 256 l 1,1,-1
 384 256 l 1,2,-1
 384 128 l 1,3,-1
 256 128 l 1,0,-1
0 384 m 1,4,-1
 0 512 l 1,5,-1
 640 512 l 1,6,-1
 640 384 l 1,7,-1
 0 384 l 1,4,-1
256 640 m 1,8,-1
 256 768 l 1,9,-1
 384 768 l 1,10,-1
 384 640 l 1,11,-1
 256 640 l 1,8,-1
EndSplineSet
EndChar

StartChar: oslash
Encoding: 248 248 186
Width: 768
GlyphClass: 2
Flags: W
LayerCount: 2
Fore
SplineSet
641 511 m 1,0,-1
 768 511 l 1,1,-1
 768 258 l 1,2,-1
 641 258 l 1,3,-1
 641 511 l 1,0,-1
512 644 m 1,4,-1
 257 644 l 1,5,-1
 257 765 l 1,6,-1
 512 765 l 1,7,-1
 512 644 l 1,4,-1
126 641 m 1,8,-1
 255 641 l 1,9,-1
 255 386 l 1,10,-1
 126 386 l 1,11,-1
 126 641 l 1,8,-1
383 257 m 1,12,-1
 640 257 l 1,13,-1
 640 127 l 1,14,-1
 383 127 l 1,15,-1
 383 257 l 1,12,-1
766 898 m 1,16,-1
 894 898 l 1,17,-1
 894 766 l 1,18,-1
 766 766 l 1,19,-1
 766 898 l 1,16,-1
642 768 m 1,20,-1
 770 768 l 1,21,-1
 770 642 l 1,22,-1
 642 642 l 1,23,-1
 642 768 l 1,20,-1
509 642 m 1,24,-1
 641 642 l 1,25,-1
 641 511 l 1,26,-1
 509 511 l 1,27,-1
 509 642 l 1,24,-1
381 509 m 1,28,-1
 512 509 l 1,29,-1
 512 385 l 1,30,-1
 381 385 l 1,31,-1
 381 509 l 1,28,-1
253 386 m 1,32,-1
 383 385 l 1,33,-1
 383 257 l 1,34,-1
 253 258 l 1,35,-1
 253 386 l 1,32,-1
127 258 m 1,36,-1
 258 258 l 1,37,-1
 258 130 l 1,38,-1
 127 130 l 1,39,-1
 127 258 l 1,36,-1
127 0 m 1,40,-1
 0 0 l 1,41,-1
 0 127 l 1,42,-1
 127 127 l 1,43,-1
 127 0 l 1,40,-1
EndSplineSet
EndChar

StartChar: ugrave
Encoding: 249 249 187
Width: 768
GlyphClass: 2
Flags: W
LayerCount: 2
Fore
SplineSet
510 768 m 5,0,-1
 385 768 l 1,1,-1
 385 895 l 1,2,-1
 510 895 l 1,3,-1
 510 768 l 5,0,-1
256 1024 m 1,4,-1
 385 1024 l 1,5,-1
 385 895 l 1,6,-1
 256 895 l 1,7,-1
 256 1024 l 1,4,-1
128 0 m 1,8,-1
 128 128 l 1,9,-1
 512 128 l 1,10,-1
 512 0 l 1,11,-1
 128 0 l 1,8,-1
0 128 m 1,12,-1
 0 640 l 1,13,-1
 128 640 l 1,14,-1
 128 128 l 1,15,-1
 0 128 l 1,12,-1
512 128 m 1,16,-1
 512 640 l 1,17,-1
 640 640 l 1,18,-1
 640 128 l 1,19,-1
 512 128 l 1,16,-1
EndSplineSet
EndChar

StartChar: uacute
Encoding: 250 250 188
Width: 768
GlyphClass: 2
Flags: W
LayerCount: 2
Fore
SplineSet
130 768 m 1,0,-1
 255 768 l 1,1,-1
 255 895 l 1,2,-1
 130 895 l 1,3,-1
 130 768 l 1,0,-1
384 1024 m 1,4,-1
 255 1024 l 1,5,-1
 255 895 l 1,6,-1
 384 895 l 1,7,-1
 384 1024 l 1,4,-1
128 0 m 1,8,-1
 128 128 l 1,9,-1
 512 128 l 1,10,-1
 512 0 l 1,11,-1
 128 0 l 1,8,-1
0 128 m 1,12,-1
 0 640 l 1,13,-1
 128 640 l 1,14,-1
 128 128 l 1,15,-1
 0 128 l 1,12,-1
512 128 m 1,16,-1
 512 640 l 1,17,-1
 640 640 l 1,18,-1
 640 128 l 1,19,-1
 512 128 l 1,16,-1
EndSplineSet
EndChar

StartChar: ucircumflex
Encoding: 251 251 189
Width: 768
GlyphClass: 2
Flags: W
LayerCount: 2
Fore
SplineSet
509 771 m 5,0,-1
 384 771 l 1,1,-1
 384 895 l 1,2,-1
 509 895 l 1,3,-1
 509 771 l 5,0,-1
130 768 m 1,4,-1
 255 768 l 1,5,-1
 255 895 l 1,6,-1
 130 895 l 1,7,-1
 130 768 l 1,4,-1
384 1024 m 1,8,-1
 255 1024 l 1,9,-1
 255 895 l 1,10,-1
 384 895 l 1,11,-1
 384 1024 l 1,8,-1
128 0 m 1,12,-1
 128 128 l 1,13,-1
 512 128 l 1,14,-1
 512 0 l 1,15,-1
 128 0 l 1,12,-1
0 128 m 1,16,-1
 0 640 l 1,17,-1
 128 640 l 1,18,-1
 128 128 l 1,19,-1
 0 128 l 1,16,-1
512 128 m 1,20,-1
 512 640 l 1,21,-1
 640 640 l 1,22,-1
 640 128 l 1,23,-1
 512 128 l 1,20,-1
EndSplineSet
EndChar

StartChar: udieresis
Encoding: 252 252 190
Width: 768
GlyphClass: 2
Flags: W
LayerCount: 2
Fore
SplineSet
384 896 m 5,0,-1
 512 896 l 1,1,-1
 512 768 l 1,2,-1
 384 768 l 1,3,-1
 384 896 l 5,0,-1
127 897 m 1,4,-1
 255 897 l 1,5,-1
 255 767 l 1,6,-1
 127 767 l 1,7,-1
 127 897 l 1,4,-1
128 0 m 1,8,-1
 128 128 l 1,9,-1
 512 128 l 1,10,-1
 512 0 l 1,11,-1
 128 0 l 1,8,-1
0 128 m 1,12,-1
 0 640 l 1,13,-1
 128 640 l 1,14,-1
 128 128 l 1,15,-1
 0 128 l 1,12,-1
512 128 m 1,16,-1
 512 640 l 1,17,-1
 640 640 l 1,18,-1
 640 128 l 1,19,-1
 512 128 l 1,16,-1
EndSplineSet
EndChar

StartChar: yacute
Encoding: 253 253 191
Width: 768
GlyphClass: 2
Flags: W
LayerCount: 2
Fore
SplineSet
257 1025 m 5,0,-1
 384 1025 l 1,1,-1
 384 898 l 1,2,-1
 257 898 l 1,3,-1
 257 1025 l 5,0,-1
130 896 m 1,4,-1
 256 896 l 1,5,-1
 256 766 l 1,6,-1
 130 766 l 1,7,-1
 130 896 l 1,4,-1
128 -127 m 1,8,-1
 128 1 l 1,9,-1
 512 1 l 1,10,-1
 512 -127 l 1,11,-1
 128 -127 l 1,8,-1
0 257 m 1,12,-1
 0 641 l 1,13,-1
 128 641 l 1,14,-1
 128 257 l 1,15,-1
 0 257 l 1,12,-1
512 1 m 1,16,-1
 512 129 l 1,17,-1
 128 129 l 1,18,-1
 128 257 l 1,19,-1
 512 257 l 1,20,-1
 512 641 l 1,21,-1
 640 641 l 1,22,-1
 640 1 l 1,23,-1
 512 1 l 1,16,-1
EndSplineSet
EndChar

StartChar: thorn
Encoding: 254 254 192
Width: 768
GlyphClass: 2
Flags: W
LayerCount: 2
Fore
SplineSet
254 641 m 1,0,-1
 384 641 l 1,1,-1
 384 513 l 1,2,-1
 254 513 l 1,3,-1
 254 641 l 1,0,-1
128 514 m 1,4,-1
 256 514 l 1,5,-1
 256 384 l 1,6,-1
 128 384 l 1,7,-1
 128 514 l 1,4,-1
510 513 m 1,8,-1
 510 254 l 1,9,-1
 384 254 l 1,10,-1
 384 513 l 1,11,-1
 510 513 l 1,8,-1
384 254 m 1,12,-1
 384 130 l 1,13,-1
 126 130 l 1,14,-1
 126 254 l 1,15,-1
 384 254 l 1,12,-1
0 -126 m 1,16,-1
 0 896 l 1,17,-1
 128 896 l 1,18,-1
 128 -126 l 1,19,-1
 0 -126 l 1,16,-1
EndSplineSet
EndChar

StartChar: ydieresis
Encoding: 255 255 193
Width: 768
GlyphClass: 2
Flags: W
LayerCount: 2
Fore
SplineSet
384 893 m 5,0,-1
 510 893 l 1,1,-1
 510 767 l 1,2,-1
 384 767 l 1,3,-1
 384 893 l 5,0,-1
125 895 m 1,4,-1
 254 895 l 1,5,-1
 254 769 l 1,6,-1
 125 769 l 1,7,-1
 125 895 l 1,4,-1
128 -127 m 1,8,-1
 128 1 l 1,9,-1
 512 1 l 1,10,-1
 512 -127 l 1,11,-1
 128 -127 l 1,8,-1
0 257 m 1,12,-1
 0 641 l 1,13,-1
 128 641 l 1,14,-1
 128 257 l 1,15,-1
 0 257 l 1,12,-1
512 1 m 1,16,-1
 512 129 l 1,17,-1
 128 129 l 1,18,-1
 128 257 l 1,19,-1
 512 257 l 1,20,-1
 512 641 l 1,21,-1
 640 641 l 1,22,-1
 640 1 l 1,23,-1
 512 1 l 1,16,-1
EndSplineSet
EndChar

StartChar: Ydieresis
Encoding: 376 376 194
Width: 768
GlyphClass: 2
Flags: W
LayerCount: 2
Fore
SplineSet
0 0 m 1,0,-1
 0 896 l 1,1,-1
 640 896 l 1,2,-1
 640 0 l 1,3,-1
 0 0 l 1,0,-1
EndSplineSet
Validated: 1
EndChar

StartChar: uni0180
Encoding: 384 384 195
Width: 768
GlyphClass: 2
Flags: W
LayerCount: 2
Fore
SplineSet
0 0 m 1,0,-1
 0 896 l 1,1,-1
 640 896 l 1,2,-1
 640 0 l 1,3,-1
 0 0 l 1,0,-1
EndSplineSet
Validated: 1
EndChar

StartChar: uni0181
Encoding: 385 385 196
Width: 768
GlyphClass: 2
Flags: W
LayerCount: 2
Fore
SplineSet
0 0 m 1,0,-1
 0 896 l 1,1,-1
 640 896 l 1,2,-1
 640 0 l 1,3,-1
 0 0 l 1,0,-1
EndSplineSet
Validated: 1
EndChar

StartChar: uni0182
Encoding: 386 386 197
Width: 768
GlyphClass: 2
Flags: W
LayerCount: 2
Fore
SplineSet
0 0 m 1,0,-1
 0 896 l 1,1,-1
 640 896 l 1,2,-1
 640 0 l 1,3,-1
 0 0 l 1,0,-1
EndSplineSet
Validated: 1
EndChar

StartChar: uni0183
Encoding: 387 387 198
Width: 768
GlyphClass: 2
Flags: W
LayerCount: 2
Fore
SplineSet
0 0 m 1,0,-1
 0 896 l 1,1,-1
 640 896 l 1,2,-1
 640 0 l 1,3,-1
 0 0 l 1,0,-1
EndSplineSet
Validated: 1
EndChar

StartChar: uni0184
Encoding: 388 388 199
Width: 768
GlyphClass: 2
Flags: W
LayerCount: 2
Fore
SplineSet
0 0 m 1,0,-1
 0 896 l 1,1,-1
 640 896 l 1,2,-1
 640 0 l 1,3,-1
 0 0 l 1,0,-1
EndSplineSet
Validated: 1
EndChar

StartChar: uni0185
Encoding: 389 389 200
Width: 768
GlyphClass: 2
Flags: W
LayerCount: 2
Fore
SplineSet
0 0 m 1,0,-1
 0 896 l 1,1,-1
 640 896 l 1,2,-1
 640 0 l 1,3,-1
 0 0 l 1,0,-1
EndSplineSet
Validated: 1
EndChar

StartChar: uni0186
Encoding: 390 390 201
Width: 768
GlyphClass: 2
Flags: W
LayerCount: 2
Fore
SplineSet
0 0 m 1,0,-1
 0 896 l 1,1,-1
 640 896 l 1,2,-1
 640 0 l 1,3,-1
 0 0 l 1,0,-1
EndSplineSet
Validated: 1
EndChar

StartChar: uni0187
Encoding: 391 391 202
Width: 768
GlyphClass: 2
Flags: W
LayerCount: 2
Fore
SplineSet
0 0 m 1,0,-1
 0 896 l 1,1,-1
 640 896 l 1,2,-1
 640 0 l 1,3,-1
 0 0 l 1,0,-1
EndSplineSet
Validated: 1
EndChar

StartChar: uni0188
Encoding: 392 392 203
Width: 768
GlyphClass: 2
Flags: W
LayerCount: 2
Fore
SplineSet
0 0 m 1,0,-1
 0 896 l 1,1,-1
 640 896 l 1,2,-1
 640 0 l 1,3,-1
 0 0 l 1,0,-1
EndSplineSet
Validated: 1
EndChar

StartChar: uni0189
Encoding: 393 393 204
Width: 768
GlyphClass: 2
Flags: W
LayerCount: 2
Fore
SplineSet
0 0 m 1,0,-1
 0 896 l 1,1,-1
 640 896 l 1,2,-1
 640 0 l 1,3,-1
 0 0 l 1,0,-1
EndSplineSet
Validated: 1
EndChar

StartChar: uni018A
Encoding: 394 394 205
Width: 768
GlyphClass: 2
Flags: W
LayerCount: 2
Fore
SplineSet
0 0 m 1,0,-1
 0 896 l 1,1,-1
 640 896 l 1,2,-1
 640 0 l 1,3,-1
 0 0 l 1,0,-1
EndSplineSet
Validated: 1
EndChar

StartChar: uni018B
Encoding: 395 395 206
Width: 768
GlyphClass: 2
Flags: W
LayerCount: 2
Fore
SplineSet
0 0 m 1,0,-1
 0 896 l 1,1,-1
 640 896 l 1,2,-1
 640 0 l 1,3,-1
 0 0 l 1,0,-1
EndSplineSet
Validated: 1
EndChar

StartChar: uni018C
Encoding: 396 396 207
Width: 768
GlyphClass: 2
Flags: W
LayerCount: 2
Fore
SplineSet
0 0 m 1,0,-1
 0 896 l 1,1,-1
 640 896 l 1,2,-1
 640 0 l 1,3,-1
 0 0 l 1,0,-1
EndSplineSet
Validated: 1
EndChar

StartChar: uni018D
Encoding: 397 397 208
Width: 768
GlyphClass: 2
Flags: W
LayerCount: 2
Fore
SplineSet
0 0 m 1,0,-1
 0 896 l 1,1,-1
 640 896 l 1,2,-1
 640 0 l 1,3,-1
 0 0 l 1,0,-1
EndSplineSet
Validated: 1
EndChar

StartChar: uni018E
Encoding: 398 398 209
Width: 768
GlyphClass: 2
Flags: W
LayerCount: 2
Fore
SplineSet
0 0 m 1,0,-1
 0 896 l 1,1,-1
 640 896 l 1,2,-1
 640 0 l 1,3,-1
 0 0 l 1,0,-1
EndSplineSet
Validated: 1
EndChar

StartChar: uni018F
Encoding: 399 399 210
Width: 768
GlyphClass: 2
Flags: W
LayerCount: 2
Fore
SplineSet
0 0 m 1,0,-1
 0 896 l 1,1,-1
 640 896 l 1,2,-1
 640 0 l 1,3,-1
 0 0 l 1,0,-1
EndSplineSet
Validated: 1
EndChar

StartChar: uni0190
Encoding: 400 400 211
Width: 768
GlyphClass: 2
Flags: W
LayerCount: 2
Fore
SplineSet
0 0 m 1,0,-1
 0 896 l 1,1,-1
 640 896 l 1,2,-1
 640 0 l 1,3,-1
 0 0 l 1,0,-1
EndSplineSet
Validated: 1
EndChar

StartChar: uni0191
Encoding: 401 401 212
Width: 768
GlyphClass: 2
Flags: W
LayerCount: 2
Fore
SplineSet
0 0 m 1,0,-1
 0 896 l 1,1,-1
 640 896 l 1,2,-1
 640 0 l 1,3,-1
 0 0 l 1,0,-1
EndSplineSet
Validated: 1
EndChar

StartChar: florin
Encoding: 402 402 213
Width: 768
GlyphClass: 2
Flags: W
LayerCount: 2
Fore
SplineSet
0 0 m 1,0,-1
 0 896 l 1,1,-1
 640 896 l 1,2,-1
 640 0 l 1,3,-1
 0 0 l 1,0,-1
EndSplineSet
Validated: 1
EndChar

StartChar: uni0193
Encoding: 403 403 214
Width: 768
GlyphClass: 2
Flags: W
LayerCount: 2
Fore
SplineSet
0 0 m 1,0,-1
 0 896 l 1,1,-1
 640 896 l 1,2,-1
 640 0 l 1,3,-1
 0 0 l 1,0,-1
EndSplineSet
Validated: 1
EndChar

StartChar: uni0194
Encoding: 404 404 215
Width: 768
GlyphClass: 2
Flags: W
LayerCount: 2
Fore
SplineSet
0 0 m 1,0,-1
 0 896 l 1,1,-1
 640 896 l 1,2,-1
 640 0 l 1,3,-1
 0 0 l 1,0,-1
EndSplineSet
Validated: 1
EndChar

StartChar: uni0195
Encoding: 405 405 216
Width: 768
GlyphClass: 2
Flags: W
LayerCount: 2
Fore
SplineSet
0 0 m 1,0,-1
 0 896 l 1,1,-1
 640 896 l 1,2,-1
 640 0 l 1,3,-1
 0 0 l 1,0,-1
EndSplineSet
Validated: 1
EndChar

StartChar: uni0196
Encoding: 406 406 217
Width: 768
GlyphClass: 2
Flags: W
LayerCount: 2
Fore
SplineSet
0 0 m 1,0,-1
 0 896 l 1,1,-1
 640 896 l 1,2,-1
 640 0 l 1,3,-1
 0 0 l 1,0,-1
EndSplineSet
Validated: 1
EndChar

StartChar: uni0197
Encoding: 407 407 218
Width: 768
GlyphClass: 2
Flags: W
LayerCount: 2
Fore
SplineSet
0 0 m 1,0,-1
 0 896 l 1,1,-1
 640 896 l 1,2,-1
 640 0 l 1,3,-1
 0 0 l 1,0,-1
EndSplineSet
Validated: 1
EndChar

StartChar: uni0198
Encoding: 408 408 219
Width: 768
GlyphClass: 2
Flags: W
LayerCount: 2
Fore
SplineSet
0 0 m 1,0,-1
 0 896 l 1,1,-1
 640 896 l 1,2,-1
 640 0 l 1,3,-1
 0 0 l 1,0,-1
EndSplineSet
Validated: 1
EndChar

StartChar: uni0199
Encoding: 409 409 220
Width: 768
GlyphClass: 2
Flags: W
LayerCount: 2
Fore
SplineSet
0 0 m 1,0,-1
 0 896 l 1,1,-1
 640 896 l 1,2,-1
 640 0 l 1,3,-1
 0 0 l 1,0,-1
EndSplineSet
Validated: 1
EndChar

StartChar: uni019A
Encoding: 410 410 221
Width: 768
GlyphClass: 2
Flags: W
LayerCount: 2
Fore
SplineSet
0 0 m 1,0,-1
 0 896 l 1,1,-1
 640 896 l 1,2,-1
 640 0 l 1,3,-1
 0 0 l 1,0,-1
EndSplineSet
Validated: 1
EndChar

StartChar: uni019B
Encoding: 411 411 222
Width: 768
GlyphClass: 2
Flags: W
LayerCount: 2
Fore
SplineSet
0 0 m 1,0,-1
 0 896 l 1,1,-1
 640 896 l 1,2,-1
 640 0 l 1,3,-1
 0 0 l 1,0,-1
EndSplineSet
Validated: 1
EndChar

StartChar: uni019C
Encoding: 412 412 223
Width: 768
GlyphClass: 2
Flags: W
LayerCount: 2
Fore
SplineSet
0 0 m 1,0,-1
 0 896 l 1,1,-1
 640 896 l 1,2,-1
 640 0 l 1,3,-1
 0 0 l 1,0,-1
EndSplineSet
Validated: 1
EndChar

StartChar: uni019D
Encoding: 413 413 224
Width: 768
GlyphClass: 2
Flags: W
LayerCount: 2
Fore
SplineSet
0 0 m 1,0,-1
 0 896 l 1,1,-1
 640 896 l 1,2,-1
 640 0 l 1,3,-1
 0 0 l 1,0,-1
EndSplineSet
Validated: 1
EndChar

StartChar: uni019E
Encoding: 414 414 225
Width: 768
GlyphClass: 2
Flags: W
LayerCount: 2
Fore
SplineSet
0 0 m 1,0,-1
 0 896 l 1,1,-1
 640 896 l 1,2,-1
 640 0 l 1,3,-1
 0 0 l 1,0,-1
EndSplineSet
Validated: 1
EndChar

StartChar: uni019F
Encoding: 415 415 226
Width: 768
GlyphClass: 2
Flags: W
LayerCount: 2
Fore
SplineSet
0 0 m 1,0,-1
 0 896 l 1,1,-1
 640 896 l 1,2,-1
 640 0 l 1,3,-1
 0 0 l 1,0,-1
EndSplineSet
Validated: 1
EndChar

StartChar: Ohorn
Encoding: 416 416 227
Width: 768
GlyphClass: 2
Flags: W
LayerCount: 2
Fore
SplineSet
0 0 m 1,0,-1
 0 896 l 1,1,-1
 640 896 l 1,2,-1
 640 0 l 1,3,-1
 0 0 l 1,0,-1
EndSplineSet
Validated: 1
EndChar

StartChar: ohorn
Encoding: 417 417 228
Width: 768
GlyphClass: 2
Flags: W
LayerCount: 2
Fore
SplineSet
0 0 m 1,0,-1
 0 896 l 1,1,-1
 640 896 l 1,2,-1
 640 0 l 1,3,-1
 0 0 l 1,0,-1
EndSplineSet
Validated: 1
EndChar

StartChar: uni01A2
Encoding: 418 418 229
Width: 768
GlyphClass: 2
Flags: W
LayerCount: 2
Fore
SplineSet
0 0 m 1,0,-1
 0 896 l 1,1,-1
 640 896 l 1,2,-1
 640 0 l 1,3,-1
 0 0 l 1,0,-1
EndSplineSet
Validated: 1
EndChar

StartChar: uni01A3
Encoding: 419 419 230
Width: 768
GlyphClass: 2
Flags: W
LayerCount: 2
Fore
SplineSet
0 0 m 1,0,-1
 0 896 l 1,1,-1
 640 896 l 1,2,-1
 640 0 l 1,3,-1
 0 0 l 1,0,-1
EndSplineSet
Validated: 1
EndChar

StartChar: uni01A4
Encoding: 420 420 231
Width: 768
GlyphClass: 2
Flags: W
LayerCount: 2
Fore
SplineSet
0 0 m 1,0,-1
 0 896 l 1,1,-1
 640 896 l 1,2,-1
 640 0 l 1,3,-1
 0 0 l 1,0,-1
EndSplineSet
Validated: 1
EndChar

StartChar: uni01A5
Encoding: 421 421 232
Width: 768
GlyphClass: 2
Flags: W
LayerCount: 2
Fore
SplineSet
0 0 m 1,0,-1
 0 896 l 1,1,-1
 640 896 l 1,2,-1
 640 0 l 1,3,-1
 0 0 l 1,0,-1
EndSplineSet
Validated: 1
EndChar

StartChar: uni01A6
Encoding: 422 422 233
Width: 768
GlyphClass: 2
Flags: W
LayerCount: 2
Fore
SplineSet
0 0 m 1,0,-1
 0 896 l 1,1,-1
 640 896 l 1,2,-1
 640 0 l 1,3,-1
 0 0 l 1,0,-1
EndSplineSet
Validated: 1
EndChar

StartChar: uni01A7
Encoding: 423 423 234
Width: 768
GlyphClass: 2
Flags: W
LayerCount: 2
Fore
SplineSet
0 0 m 1,0,-1
 0 896 l 1,1,-1
 640 896 l 1,2,-1
 640 0 l 1,3,-1
 0 0 l 1,0,-1
EndSplineSet
Validated: 1
EndChar

StartChar: uni01A8
Encoding: 424 424 235
Width: 768
GlyphClass: 2
Flags: W
LayerCount: 2
Fore
SplineSet
0 0 m 1,0,-1
 0 896 l 1,1,-1
 640 896 l 1,2,-1
 640 0 l 1,3,-1
 0 0 l 1,0,-1
EndSplineSet
Validated: 1
EndChar

StartChar: uni01A9
Encoding: 425 425 236
Width: 768
GlyphClass: 2
Flags: W
LayerCount: 2
Fore
SplineSet
0 0 m 1,0,-1
 0 896 l 1,1,-1
 640 896 l 1,2,-1
 640 0 l 1,3,-1
 0 0 l 1,0,-1
EndSplineSet
Validated: 1
EndChar

StartChar: uni01AA
Encoding: 426 426 237
Width: 768
GlyphClass: 2
Flags: W
LayerCount: 2
Fore
SplineSet
0 0 m 1,0,-1
 0 896 l 1,1,-1
 640 896 l 1,2,-1
 640 0 l 1,3,-1
 0 0 l 1,0,-1
EndSplineSet
Validated: 1
EndChar

StartChar: uni01AB
Encoding: 427 427 238
Width: 768
GlyphClass: 2
Flags: W
LayerCount: 2
Fore
SplineSet
0 0 m 1,0,-1
 0 896 l 1,1,-1
 640 896 l 1,2,-1
 640 0 l 1,3,-1
 0 0 l 1,0,-1
EndSplineSet
Validated: 1
EndChar

StartChar: uni01AC
Encoding: 428 428 239
Width: 768
GlyphClass: 2
Flags: W
LayerCount: 2
Fore
SplineSet
0 0 m 1,0,-1
 0 896 l 1,1,-1
 640 896 l 1,2,-1
 640 0 l 1,3,-1
 0 0 l 1,0,-1
EndSplineSet
Validated: 1
EndChar

StartChar: uni01AD
Encoding: 429 429 240
Width: 768
GlyphClass: 2
Flags: W
LayerCount: 2
Fore
SplineSet
0 0 m 1,0,-1
 0 896 l 1,1,-1
 640 896 l 1,2,-1
 640 0 l 1,3,-1
 0 0 l 1,0,-1
EndSplineSet
Validated: 1
EndChar

StartChar: uni01AE
Encoding: 430 430 241
Width: 768
GlyphClass: 2
Flags: W
LayerCount: 2
Fore
SplineSet
0 0 m 1,0,-1
 0 896 l 1,1,-1
 640 896 l 1,2,-1
 640 0 l 1,3,-1
 0 0 l 1,0,-1
EndSplineSet
Validated: 1
EndChar

StartChar: Uhorn
Encoding: 431 431 242
Width: 768
GlyphClass: 2
Flags: W
LayerCount: 2
Fore
SplineSet
0 0 m 1,0,-1
 0 896 l 1,1,-1
 640 896 l 1,2,-1
 640 0 l 1,3,-1
 0 0 l 1,0,-1
EndSplineSet
Validated: 1
EndChar

StartChar: uhorn
Encoding: 432 432 243
Width: 768
GlyphClass: 2
Flags: W
LayerCount: 2
Fore
SplineSet
0 0 m 1,0,-1
 0 896 l 1,1,-1
 640 896 l 1,2,-1
 640 0 l 1,3,-1
 0 0 l 1,0,-1
EndSplineSet
Validated: 1
EndChar

StartChar: uni01B1
Encoding: 433 433 244
Width: 768
GlyphClass: 2
Flags: W
LayerCount: 2
Fore
SplineSet
0 0 m 1,0,-1
 0 896 l 1,1,-1
 640 896 l 1,2,-1
 640 0 l 1,3,-1
 0 0 l 1,0,-1
EndSplineSet
Validated: 1
EndChar

StartChar: uni01B2
Encoding: 434 434 245
Width: 768
GlyphClass: 2
Flags: W
LayerCount: 2
Fore
SplineSet
0 0 m 1,0,-1
 0 896 l 1,1,-1
 640 896 l 1,2,-1
 640 0 l 1,3,-1
 0 0 l 1,0,-1
EndSplineSet
Validated: 1
EndChar

StartChar: uni01B3
Encoding: 435 435 246
Width: 768
GlyphClass: 2
Flags: W
LayerCount: 2
Fore
SplineSet
0 0 m 1,0,-1
 0 896 l 1,1,-1
 640 896 l 1,2,-1
 640 0 l 1,3,-1
 0 0 l 1,0,-1
EndSplineSet
Validated: 1
EndChar

StartChar: uni01B4
Encoding: 436 436 247
Width: 768
GlyphClass: 2
Flags: W
LayerCount: 2
Fore
SplineSet
0 0 m 1,0,-1
 0 896 l 1,1,-1
 640 896 l 1,2,-1
 640 0 l 1,3,-1
 0 0 l 1,0,-1
EndSplineSet
Validated: 1
EndChar

StartChar: uni01B5
Encoding: 437 437 248
Width: 768
GlyphClass: 2
Flags: W
LayerCount: 2
Fore
SplineSet
0 0 m 1,0,-1
 0 896 l 1,1,-1
 640 896 l 1,2,-1
 640 0 l 1,3,-1
 0 0 l 1,0,-1
EndSplineSet
Validated: 1
EndChar

StartChar: uni01B6
Encoding: 438 438 249
Width: 768
GlyphClass: 2
Flags: W
LayerCount: 2
Fore
SplineSet
0 0 m 1,0,-1
 0 896 l 1,1,-1
 640 896 l 1,2,-1
 640 0 l 1,3,-1
 0 0 l 1,0,-1
EndSplineSet
Validated: 1
EndChar

StartChar: uni01B7
Encoding: 439 439 250
Width: 768
GlyphClass: 2
Flags: W
LayerCount: 2
Fore
SplineSet
0 0 m 1,0,-1
 0 896 l 1,1,-1
 640 896 l 1,2,-1
 640 0 l 1,3,-1
 0 0 l 1,0,-1
EndSplineSet
Validated: 1
EndChar

StartChar: uni01B8
Encoding: 440 440 251
Width: 768
GlyphClass: 2
Flags: W
LayerCount: 2
Fore
SplineSet
0 0 m 1,0,-1
 0 896 l 1,1,-1
 640 896 l 1,2,-1
 640 0 l 1,3,-1
 0 0 l 1,0,-1
EndSplineSet
Validated: 1
EndChar

StartChar: uni01B9
Encoding: 441 441 252
Width: 768
GlyphClass: 2
Flags: W
LayerCount: 2
Fore
SplineSet
0 0 m 1,0,-1
 0 896 l 1,1,-1
 640 896 l 1,2,-1
 640 0 l 1,3,-1
 0 0 l 1,0,-1
EndSplineSet
Validated: 1
EndChar

StartChar: uni01BA
Encoding: 442 442 253
Width: 768
GlyphClass: 2
Flags: W
LayerCount: 2
Fore
SplineSet
0 0 m 1,0,-1
 0 896 l 1,1,-1
 640 896 l 1,2,-1
 640 0 l 1,3,-1
 0 0 l 1,0,-1
EndSplineSet
Validated: 1
EndChar

StartChar: uni01BB
Encoding: 443 443 254
Width: 768
GlyphClass: 2
Flags: W
LayerCount: 2
Fore
SplineSet
0 0 m 1,0,-1
 0 896 l 1,1,-1
 640 896 l 1,2,-1
 640 0 l 1,3,-1
 0 0 l 1,0,-1
EndSplineSet
Validated: 1
EndChar

StartChar: uni01BC
Encoding: 444 444 255
Width: 768
GlyphClass: 2
Flags: W
LayerCount: 2
Fore
SplineSet
0 0 m 1,0,-1
 0 896 l 1,1,-1
 640 896 l 1,2,-1
 640 0 l 1,3,-1
 0 0 l 1,0,-1
EndSplineSet
Validated: 1
EndChar

StartChar: uni01BD
Encoding: 445 445 256
Width: 768
GlyphClass: 2
Flags: W
LayerCount: 2
Fore
SplineSet
0 0 m 1,0,-1
 0 896 l 1,1,-1
 640 896 l 1,2,-1
 640 0 l 1,3,-1
 0 0 l 1,0,-1
EndSplineSet
Validated: 1
EndChar

StartChar: uni01BE
Encoding: 446 446 257
Width: 768
GlyphClass: 2
Flags: W
LayerCount: 2
Fore
SplineSet
0 0 m 1,0,-1
 0 896 l 1,1,-1
 640 896 l 1,2,-1
 640 0 l 1,3,-1
 0 0 l 1,0,-1
EndSplineSet
Validated: 1
EndChar

StartChar: uni01BF
Encoding: 447 447 258
Width: 768
GlyphClass: 2
Flags: W
LayerCount: 2
Fore
SplineSet
0 0 m 1,0,-1
 0 896 l 1,1,-1
 640 896 l 1,2,-1
 640 0 l 1,3,-1
 0 0 l 1,0,-1
EndSplineSet
Validated: 1
EndChar

StartChar: uni01C0
Encoding: 448 448 259
Width: 768
GlyphClass: 2
Flags: W
LayerCount: 2
Fore
SplineSet
0 0 m 1,0,-1
 0 896 l 1,1,-1
 640 896 l 1,2,-1
 640 0 l 1,3,-1
 0 0 l 1,0,-1
EndSplineSet
Validated: 1
EndChar

StartChar: uni01C1
Encoding: 449 449 260
Width: 768
GlyphClass: 2
Flags: W
LayerCount: 2
Fore
SplineSet
0 0 m 1,0,-1
 0 896 l 1,1,-1
 640 896 l 1,2,-1
 640 0 l 1,3,-1
 0 0 l 1,0,-1
EndSplineSet
Validated: 1
EndChar

StartChar: uni01C2
Encoding: 450 450 261
Width: 768
GlyphClass: 2
Flags: W
LayerCount: 2
Fore
SplineSet
0 0 m 1,0,-1
 0 896 l 1,1,-1
 640 896 l 1,2,-1
 640 0 l 1,3,-1
 0 0 l 1,0,-1
EndSplineSet
Validated: 1
EndChar

StartChar: uni01C3
Encoding: 451 451 262
Width: 768
GlyphClass: 2
Flags: W
LayerCount: 2
Fore
SplineSet
0 0 m 1,0,-1
 0 896 l 1,1,-1
 640 896 l 1,2,-1
 640 0 l 1,3,-1
 0 0 l 1,0,-1
EndSplineSet
Validated: 1
EndChar

StartChar: uni01C4
Encoding: 452 452 263
Width: 768
GlyphClass: 2
Flags: W
LayerCount: 2
Fore
SplineSet
0 0 m 1,0,-1
 0 896 l 1,1,-1
 640 896 l 1,2,-1
 640 0 l 1,3,-1
 0 0 l 1,0,-1
EndSplineSet
Validated: 1
EndChar

StartChar: uni01C5
Encoding: 453 453 264
Width: 768
GlyphClass: 2
Flags: W
LayerCount: 2
Fore
SplineSet
0 0 m 1,0,-1
 0 896 l 1,1,-1
 640 896 l 1,2,-1
 640 0 l 1,3,-1
 0 0 l 1,0,-1
EndSplineSet
Validated: 1
EndChar

StartChar: uni01C6
Encoding: 454 454 265
Width: 768
GlyphClass: 2
Flags: W
LayerCount: 2
Fore
SplineSet
0 0 m 1,0,-1
 0 896 l 1,1,-1
 640 896 l 1,2,-1
 640 0 l 1,3,-1
 0 0 l 1,0,-1
EndSplineSet
Validated: 1
EndChar

StartChar: uni01C7
Encoding: 455 455 266
Width: 768
GlyphClass: 2
Flags: W
LayerCount: 2
Fore
SplineSet
0 0 m 1,0,-1
 0 896 l 1,1,-1
 640 896 l 1,2,-1
 640 0 l 1,3,-1
 0 0 l 1,0,-1
EndSplineSet
Validated: 1
EndChar

StartChar: uni01C8
Encoding: 456 456 267
Width: 768
GlyphClass: 2
Flags: W
LayerCount: 2
Fore
SplineSet
0 0 m 1,0,-1
 0 896 l 1,1,-1
 640 896 l 1,2,-1
 640 0 l 1,3,-1
 0 0 l 1,0,-1
EndSplineSet
Validated: 1
EndChar

StartChar: uni01C9
Encoding: 457 457 268
Width: 768
GlyphClass: 2
Flags: W
LayerCount: 2
Fore
SplineSet
0 0 m 1,0,-1
 0 896 l 1,1,-1
 640 896 l 1,2,-1
 640 0 l 1,3,-1
 0 0 l 1,0,-1
EndSplineSet
Validated: 1
EndChar

StartChar: uni01CA
Encoding: 458 458 269
Width: 768
GlyphClass: 2
Flags: W
LayerCount: 2
Fore
SplineSet
0 0 m 1,0,-1
 0 896 l 1,1,-1
 640 896 l 1,2,-1
 640 0 l 1,3,-1
 0 0 l 1,0,-1
EndSplineSet
Validated: 1
EndChar

StartChar: uni01CB
Encoding: 459 459 270
Width: 768
GlyphClass: 2
Flags: W
LayerCount: 2
Fore
SplineSet
0 0 m 1,0,-1
 0 896 l 1,1,-1
 640 896 l 1,2,-1
 640 0 l 1,3,-1
 0 0 l 1,0,-1
EndSplineSet
Validated: 1
EndChar

StartChar: uni01CC
Encoding: 460 460 271
Width: 768
GlyphClass: 2
Flags: W
LayerCount: 2
Fore
SplineSet
0 0 m 1,0,-1
 0 896 l 1,1,-1
 640 896 l 1,2,-1
 640 0 l 1,3,-1
 0 0 l 1,0,-1
EndSplineSet
Validated: 1
EndChar

StartChar: uni01CD
Encoding: 461 461 272
Width: 768
GlyphClass: 2
Flags: W
LayerCount: 2
Fore
SplineSet
0 0 m 1,0,-1
 0 896 l 1,1,-1
 640 896 l 1,2,-1
 640 0 l 1,3,-1
 0 0 l 1,0,-1
EndSplineSet
Validated: 1
EndChar

StartChar: uni01CE
Encoding: 462 462 273
Width: 768
GlyphClass: 2
Flags: W
LayerCount: 2
Fore
SplineSet
0 0 m 1,0,-1
 0 896 l 1,1,-1
 640 896 l 1,2,-1
 640 0 l 1,3,-1
 0 0 l 1,0,-1
EndSplineSet
Validated: 1
EndChar

StartChar: uni01CF
Encoding: 463 463 274
Width: 768
GlyphClass: 2
Flags: W
LayerCount: 2
Fore
SplineSet
0 0 m 1,0,-1
 0 896 l 1,1,-1
 640 896 l 1,2,-1
 640 0 l 1,3,-1
 0 0 l 1,0,-1
EndSplineSet
Validated: 1
EndChar

StartChar: uni01D0
Encoding: 464 464 275
Width: 768
GlyphClass: 2
Flags: W
LayerCount: 2
Fore
SplineSet
0 0 m 1,0,-1
 0 896 l 1,1,-1
 640 896 l 1,2,-1
 640 0 l 1,3,-1
 0 0 l 1,0,-1
EndSplineSet
Validated: 1
EndChar

StartChar: uni01D1
Encoding: 465 465 276
Width: 768
GlyphClass: 2
Flags: W
LayerCount: 2
Fore
SplineSet
0 0 m 1,0,-1
 0 896 l 1,1,-1
 640 896 l 1,2,-1
 640 0 l 1,3,-1
 0 0 l 1,0,-1
EndSplineSet
Validated: 1
EndChar

StartChar: uni01D2
Encoding: 466 466 277
Width: 768
GlyphClass: 2
Flags: W
LayerCount: 2
Fore
SplineSet
0 0 m 1,0,-1
 0 896 l 1,1,-1
 640 896 l 1,2,-1
 640 0 l 1,3,-1
 0 0 l 1,0,-1
EndSplineSet
Validated: 1
EndChar

StartChar: uni01D3
Encoding: 467 467 278
Width: 768
GlyphClass: 2
Flags: W
LayerCount: 2
Fore
SplineSet
0 0 m 1,0,-1
 0 896 l 1,1,-1
 640 896 l 1,2,-1
 640 0 l 1,3,-1
 0 0 l 1,0,-1
EndSplineSet
Validated: 1
EndChar

StartChar: uni01D4
Encoding: 468 468 279
Width: 768
GlyphClass: 2
Flags: W
LayerCount: 2
Fore
SplineSet
0 0 m 1,0,-1
 0 896 l 1,1,-1
 640 896 l 1,2,-1
 640 0 l 1,3,-1
 0 0 l 1,0,-1
EndSplineSet
Validated: 1
EndChar

StartChar: uni01D5
Encoding: 469 469 280
Width: 768
GlyphClass: 2
Flags: W
LayerCount: 2
Fore
SplineSet
0 0 m 1,0,-1
 0 896 l 1,1,-1
 640 896 l 1,2,-1
 640 0 l 1,3,-1
 0 0 l 1,0,-1
EndSplineSet
Validated: 1
EndChar

StartChar: uni01D6
Encoding: 470 470 281
Width: 768
GlyphClass: 2
Flags: W
LayerCount: 2
Fore
SplineSet
0 0 m 1,0,-1
 0 896 l 1,1,-1
 640 896 l 1,2,-1
 640 0 l 1,3,-1
 0 0 l 1,0,-1
EndSplineSet
Validated: 1
EndChar

StartChar: uni01D7
Encoding: 471 471 282
Width: 768
GlyphClass: 2
Flags: W
LayerCount: 2
Fore
SplineSet
0 0 m 1,0,-1
 0 896 l 1,1,-1
 640 896 l 1,2,-1
 640 0 l 1,3,-1
 0 0 l 1,0,-1
EndSplineSet
Validated: 1
EndChar

StartChar: uni01D8
Encoding: 472 472 283
Width: 768
GlyphClass: 2
Flags: W
LayerCount: 2
Fore
SplineSet
0 0 m 1,0,-1
 0 896 l 1,1,-1
 640 896 l 1,2,-1
 640 0 l 1,3,-1
 0 0 l 1,0,-1
EndSplineSet
Validated: 1
EndChar

StartChar: uni01D9
Encoding: 473 473 284
Width: 768
GlyphClass: 2
Flags: W
LayerCount: 2
Fore
SplineSet
0 0 m 1,0,-1
 0 896 l 1,1,-1
 640 896 l 1,2,-1
 640 0 l 1,3,-1
 0 0 l 1,0,-1
EndSplineSet
Validated: 1
EndChar

StartChar: uni01DA
Encoding: 474 474 285
Width: 768
GlyphClass: 2
Flags: W
LayerCount: 2
Fore
SplineSet
0 0 m 1,0,-1
 0 896 l 1,1,-1
 640 896 l 1,2,-1
 640 0 l 1,3,-1
 0 0 l 1,0,-1
EndSplineSet
Validated: 1
EndChar

StartChar: uni01DB
Encoding: 475 475 286
Width: 768
GlyphClass: 2
Flags: W
LayerCount: 2
Fore
SplineSet
0 0 m 1,0,-1
 0 896 l 1,1,-1
 640 896 l 1,2,-1
 640 0 l 1,3,-1
 0 0 l 1,0,-1
EndSplineSet
Validated: 1
EndChar

StartChar: uni01DC
Encoding: 476 476 287
Width: 768
GlyphClass: 2
Flags: W
LayerCount: 2
Fore
SplineSet
0 0 m 1,0,-1
 0 896 l 1,1,-1
 640 896 l 1,2,-1
 640 0 l 1,3,-1
 0 0 l 1,0,-1
EndSplineSet
Validated: 1
EndChar

StartChar: uni01DD
Encoding: 477 477 288
Width: 768
GlyphClass: 2
Flags: W
LayerCount: 2
Fore
SplineSet
0 0 m 1,0,-1
 0 896 l 1,1,-1
 640 896 l 1,2,-1
 640 0 l 1,3,-1
 0 0 l 1,0,-1
EndSplineSet
Validated: 1
EndChar

StartChar: uni01DE
Encoding: 478 478 289
Width: 768
GlyphClass: 2
Flags: W
LayerCount: 2
Fore
SplineSet
0 0 m 1,0,-1
 0 896 l 1,1,-1
 640 896 l 1,2,-1
 640 0 l 1,3,-1
 0 0 l 1,0,-1
EndSplineSet
Validated: 1
EndChar

StartChar: uni01DF
Encoding: 479 479 290
Width: 768
GlyphClass: 2
Flags: W
LayerCount: 2
Fore
SplineSet
0 0 m 1,0,-1
 0 896 l 1,1,-1
 640 896 l 1,2,-1
 640 0 l 1,3,-1
 0 0 l 1,0,-1
EndSplineSet
Validated: 1
EndChar

StartChar: uni01E0
Encoding: 480 480 291
Width: 768
GlyphClass: 2
Flags: W
LayerCount: 2
Fore
SplineSet
0 0 m 1,0,-1
 0 896 l 1,1,-1
 640 896 l 1,2,-1
 640 0 l 1,3,-1
 0 0 l 1,0,-1
EndSplineSet
Validated: 1
EndChar

StartChar: uni01E1
Encoding: 481 481 292
Width: 768
GlyphClass: 2
Flags: W
LayerCount: 2
Fore
SplineSet
0 0 m 1,0,-1
 0 896 l 1,1,-1
 640 896 l 1,2,-1
 640 0 l 1,3,-1
 0 0 l 1,0,-1
EndSplineSet
Validated: 1
EndChar

StartChar: uni01E2
Encoding: 482 482 293
Width: 768
GlyphClass: 2
Flags: W
LayerCount: 2
Fore
SplineSet
0 0 m 1,0,-1
 0 896 l 1,1,-1
 640 896 l 1,2,-1
 640 0 l 1,3,-1
 0 0 l 1,0,-1
EndSplineSet
Validated: 1
EndChar

StartChar: uni01E3
Encoding: 483 483 294
Width: 768
GlyphClass: 2
Flags: W
LayerCount: 2
Fore
SplineSet
0 0 m 1,0,-1
 0 896 l 1,1,-1
 640 896 l 1,2,-1
 640 0 l 1,3,-1
 0 0 l 1,0,-1
EndSplineSet
Validated: 1
EndChar

StartChar: uni01E4
Encoding: 484 484 295
Width: 768
GlyphClass: 2
Flags: W
LayerCount: 2
Fore
SplineSet
0 0 m 1,0,-1
 0 896 l 1,1,-1
 640 896 l 1,2,-1
 640 0 l 1,3,-1
 0 0 l 1,0,-1
EndSplineSet
Validated: 1
EndChar

StartChar: uni01E5
Encoding: 485 485 296
Width: 768
GlyphClass: 2
Flags: W
LayerCount: 2
Fore
SplineSet
0 0 m 1,0,-1
 0 896 l 1,1,-1
 640 896 l 1,2,-1
 640 0 l 1,3,-1
 0 0 l 1,0,-1
EndSplineSet
Validated: 1
EndChar

StartChar: Gcaron
Encoding: 486 486 297
Width: 768
GlyphClass: 2
Flags: W
LayerCount: 2
Fore
SplineSet
0 0 m 1,0,-1
 0 896 l 1,1,-1
 640 896 l 1,2,-1
 640 0 l 1,3,-1
 0 0 l 1,0,-1
EndSplineSet
Validated: 1
EndChar

StartChar: gcaron
Encoding: 487 487 298
Width: 768
GlyphClass: 2
Flags: W
LayerCount: 2
Fore
SplineSet
0 0 m 1,0,-1
 0 896 l 1,1,-1
 640 896 l 1,2,-1
 640 0 l 1,3,-1
 0 0 l 1,0,-1
EndSplineSet
Validated: 1
EndChar

StartChar: uni01E8
Encoding: 488 488 299
Width: 768
GlyphClass: 2
Flags: W
LayerCount: 2
Fore
SplineSet
0 0 m 1,0,-1
 0 896 l 1,1,-1
 640 896 l 1,2,-1
 640 0 l 1,3,-1
 0 0 l 1,0,-1
EndSplineSet
Validated: 1
EndChar

StartChar: uni01E9
Encoding: 489 489 300
Width: 768
GlyphClass: 2
Flags: W
LayerCount: 2
Fore
SplineSet
0 0 m 1,0,-1
 0 896 l 1,1,-1
 640 896 l 1,2,-1
 640 0 l 1,3,-1
 0 0 l 1,0,-1
EndSplineSet
Validated: 1
EndChar

StartChar: uni01EA
Encoding: 490 490 301
Width: 768
GlyphClass: 2
Flags: W
LayerCount: 2
Fore
SplineSet
0 0 m 1,0,-1
 0 896 l 1,1,-1
 640 896 l 1,2,-1
 640 0 l 1,3,-1
 0 0 l 1,0,-1
EndSplineSet
Validated: 1
EndChar

StartChar: uni01EB
Encoding: 491 491 302
Width: 768
GlyphClass: 2
Flags: W
LayerCount: 2
Fore
SplineSet
0 0 m 1,0,-1
 0 896 l 1,1,-1
 640 896 l 1,2,-1
 640 0 l 1,3,-1
 0 0 l 1,0,-1
EndSplineSet
Validated: 1
EndChar

StartChar: uni01EC
Encoding: 492 492 303
Width: 768
GlyphClass: 2
Flags: W
LayerCount: 2
Fore
SplineSet
0 0 m 1,0,-1
 0 896 l 1,1,-1
 640 896 l 1,2,-1
 640 0 l 1,3,-1
 0 0 l 1,0,-1
EndSplineSet
Validated: 1
EndChar

StartChar: uni01ED
Encoding: 493 493 304
Width: 768
GlyphClass: 2
Flags: W
LayerCount: 2
Fore
SplineSet
0 0 m 1,0,-1
 0 896 l 1,1,-1
 640 896 l 1,2,-1
 640 0 l 1,3,-1
 0 0 l 1,0,-1
EndSplineSet
Validated: 1
EndChar

StartChar: uni01EE
Encoding: 494 494 305
Width: 768
GlyphClass: 2
Flags: W
LayerCount: 2
Fore
SplineSet
0 0 m 1,0,-1
 0 896 l 1,1,-1
 640 896 l 1,2,-1
 640 0 l 1,3,-1
 0 0 l 1,0,-1
EndSplineSet
Validated: 1
EndChar

StartChar: uni01EF
Encoding: 495 495 306
Width: 768
GlyphClass: 2
Flags: W
LayerCount: 2
Fore
SplineSet
0 0 m 1,0,-1
 0 896 l 1,1,-1
 640 896 l 1,2,-1
 640 0 l 1,3,-1
 0 0 l 1,0,-1
EndSplineSet
Validated: 1
EndChar

StartChar: uni01F0
Encoding: 496 496 307
Width: 768
GlyphClass: 2
Flags: W
LayerCount: 2
Fore
SplineSet
0 0 m 1,0,-1
 0 896 l 1,1,-1
 640 896 l 1,2,-1
 640 0 l 1,3,-1
 0 0 l 1,0,-1
EndSplineSet
Validated: 1
EndChar

StartChar: uni01F1
Encoding: 497 497 308
Width: 768
GlyphClass: 2
Flags: W
LayerCount: 2
Fore
SplineSet
0 0 m 1,0,-1
 0 896 l 1,1,-1
 640 896 l 1,2,-1
 640 0 l 1,3,-1
 0 0 l 1,0,-1
EndSplineSet
Validated: 1
EndChar

StartChar: uni01F2
Encoding: 498 498 309
Width: 768
GlyphClass: 2
Flags: W
LayerCount: 2
Fore
SplineSet
0 0 m 1,0,-1
 0 896 l 1,1,-1
 640 896 l 1,2,-1
 640 0 l 1,3,-1
 0 0 l 1,0,-1
EndSplineSet
Validated: 1
EndChar

StartChar: uni01F3
Encoding: 499 499 310
Width: 768
GlyphClass: 2
Flags: W
LayerCount: 2
Fore
SplineSet
0 0 m 1,0,-1
 0 896 l 1,1,-1
 640 896 l 1,2,-1
 640 0 l 1,3,-1
 0 0 l 1,0,-1
EndSplineSet
Validated: 1
EndChar

StartChar: uni01F4
Encoding: 500 500 311
Width: 768
GlyphClass: 2
Flags: W
LayerCount: 2
Fore
SplineSet
0 0 m 1,0,-1
 0 896 l 1,1,-1
 640 896 l 1,2,-1
 640 0 l 1,3,-1
 0 0 l 1,0,-1
EndSplineSet
Validated: 1
EndChar

StartChar: uni01F5
Encoding: 501 501 312
Width: 768
GlyphClass: 2
Flags: W
LayerCount: 2
Fore
SplineSet
0 0 m 1,0,-1
 0 896 l 1,1,-1
 640 896 l 1,2,-1
 640 0 l 1,3,-1
 0 0 l 1,0,-1
EndSplineSet
Validated: 1
EndChar

StartChar: uni01F6
Encoding: 502 502 313
Width: 768
GlyphClass: 2
Flags: W
LayerCount: 2
Fore
SplineSet
0 0 m 1,0,-1
 0 896 l 1,1,-1
 640 896 l 1,2,-1
 640 0 l 1,3,-1
 0 0 l 1,0,-1
EndSplineSet
Validated: 1
EndChar

StartChar: uni01F7
Encoding: 503 503 314
Width: 768
GlyphClass: 2
Flags: W
LayerCount: 2
Fore
SplineSet
0 0 m 1,0,-1
 0 896 l 1,1,-1
 640 896 l 1,2,-1
 640 0 l 1,3,-1
 0 0 l 1,0,-1
EndSplineSet
Validated: 1
EndChar

StartChar: uni01F8
Encoding: 504 504 315
Width: 768
GlyphClass: 2
Flags: W
LayerCount: 2
Fore
SplineSet
0 0 m 1,0,-1
 0 896 l 1,1,-1
 640 896 l 1,2,-1
 640 0 l 1,3,-1
 0 0 l 1,0,-1
EndSplineSet
Validated: 1
EndChar

StartChar: uni01F9
Encoding: 505 505 316
Width: 768
GlyphClass: 2
Flags: W
LayerCount: 2
Fore
SplineSet
0 0 m 1,0,-1
 0 896 l 1,1,-1
 640 896 l 1,2,-1
 640 0 l 1,3,-1
 0 0 l 1,0,-1
EndSplineSet
Validated: 1
EndChar

StartChar: Aringacute
Encoding: 506 506 317
Width: 768
GlyphClass: 2
Flags: W
LayerCount: 2
Fore
SplineSet
0 0 m 1,0,-1
 0 896 l 1,1,-1
 640 896 l 1,2,-1
 640 0 l 1,3,-1
 0 0 l 1,0,-1
EndSplineSet
Validated: 1
EndChar

StartChar: aringacute
Encoding: 507 507 318
Width: 768
GlyphClass: 2
Flags: W
LayerCount: 2
Fore
SplineSet
0 0 m 1,0,-1
 0 896 l 1,1,-1
 640 896 l 1,2,-1
 640 0 l 1,3,-1
 0 0 l 1,0,-1
EndSplineSet
Validated: 1
EndChar

StartChar: AEacute
Encoding: 508 508 319
Width: 768
GlyphClass: 2
Flags: W
LayerCount: 2
Fore
SplineSet
0 0 m 1,0,-1
 0 896 l 1,1,-1
 640 896 l 1,2,-1
 640 0 l 1,3,-1
 0 0 l 1,0,-1
EndSplineSet
Validated: 1
EndChar

StartChar: aeacute
Encoding: 509 509 320
Width: 768
GlyphClass: 2
Flags: W
LayerCount: 2
Fore
SplineSet
0 0 m 1,0,-1
 0 896 l 1,1,-1
 640 896 l 1,2,-1
 640 0 l 1,3,-1
 0 0 l 1,0,-1
EndSplineSet
Validated: 1
EndChar

StartChar: Oslashacute
Encoding: 510 510 321
Width: 768
GlyphClass: 2
Flags: W
LayerCount: 2
Fore
SplineSet
0 0 m 1,0,-1
 0 896 l 1,1,-1
 640 896 l 1,2,-1
 640 0 l 1,3,-1
 0 0 l 1,0,-1
EndSplineSet
Validated: 1
EndChar

StartChar: oslashacute
Encoding: 511 511 322
Width: 768
GlyphClass: 2
Flags: W
LayerCount: 2
Fore
SplineSet
0 0 m 1,0,-1
 0 896 l 1,1,-1
 640 896 l 1,2,-1
 640 0 l 1,3,-1
 0 0 l 1,0,-1
EndSplineSet
Validated: 1
EndChar

StartChar: uni0200
Encoding: 512 512 323
Width: 768
GlyphClass: 2
Flags: W
LayerCount: 2
Fore
SplineSet
0 0 m 1,0,-1
 0 896 l 1,1,-1
 640 896 l 1,2,-1
 640 0 l 1,3,-1
 0 0 l 1,0,-1
EndSplineSet
Validated: 1
EndChar

StartChar: uni0201
Encoding: 513 513 324
Width: 768
GlyphClass: 2
Flags: W
LayerCount: 2
Fore
SplineSet
0 0 m 1,0,-1
 0 896 l 1,1,-1
 640 896 l 1,2,-1
 640 0 l 1,3,-1
 0 0 l 1,0,-1
EndSplineSet
Validated: 1
EndChar

StartChar: uni0202
Encoding: 514 514 325
Width: 768
GlyphClass: 2
Flags: W
LayerCount: 2
Fore
SplineSet
0 0 m 1,0,-1
 0 896 l 1,1,-1
 640 896 l 1,2,-1
 640 0 l 1,3,-1
 0 0 l 1,0,-1
EndSplineSet
Validated: 1
EndChar

StartChar: uni0203
Encoding: 515 515 326
Width: 768
GlyphClass: 2
Flags: W
LayerCount: 2
Fore
SplineSet
0 0 m 1,0,-1
 0 896 l 1,1,-1
 640 896 l 1,2,-1
 640 0 l 1,3,-1
 0 0 l 1,0,-1
EndSplineSet
Validated: 1
EndChar

StartChar: uni0204
Encoding: 516 516 327
Width: 768
GlyphClass: 2
Flags: W
LayerCount: 2
Fore
SplineSet
0 0 m 1,0,-1
 0 896 l 1,1,-1
 640 896 l 1,2,-1
 640 0 l 1,3,-1
 0 0 l 1,0,-1
EndSplineSet
Validated: 1
EndChar

StartChar: uni0205
Encoding: 517 517 328
Width: 768
GlyphClass: 2
Flags: W
LayerCount: 2
Fore
SplineSet
0 0 m 1,0,-1
 0 896 l 1,1,-1
 640 896 l 1,2,-1
 640 0 l 1,3,-1
 0 0 l 1,0,-1
EndSplineSet
Validated: 1
EndChar

StartChar: uni0206
Encoding: 518 518 329
Width: 768
GlyphClass: 2
Flags: W
LayerCount: 2
Fore
SplineSet
0 0 m 1,0,-1
 0 896 l 1,1,-1
 640 896 l 1,2,-1
 640 0 l 1,3,-1
 0 0 l 1,0,-1
EndSplineSet
Validated: 1
EndChar

StartChar: uni0207
Encoding: 519 519 330
Width: 768
GlyphClass: 2
Flags: W
LayerCount: 2
Fore
SplineSet
0 0 m 1,0,-1
 0 896 l 1,1,-1
 640 896 l 1,2,-1
 640 0 l 1,3,-1
 0 0 l 1,0,-1
EndSplineSet
Validated: 1
EndChar

StartChar: uni0208
Encoding: 520 520 331
Width: 768
GlyphClass: 2
Flags: W
LayerCount: 2
Fore
SplineSet
0 0 m 1,0,-1
 0 896 l 1,1,-1
 640 896 l 1,2,-1
 640 0 l 1,3,-1
 0 0 l 1,0,-1
EndSplineSet
Validated: 1
EndChar

StartChar: uni0209
Encoding: 521 521 332
Width: 768
GlyphClass: 2
Flags: W
LayerCount: 2
Fore
SplineSet
0 0 m 1,0,-1
 0 896 l 1,1,-1
 640 896 l 1,2,-1
 640 0 l 1,3,-1
 0 0 l 1,0,-1
EndSplineSet
Validated: 1
EndChar

StartChar: uni020A
Encoding: 522 522 333
Width: 768
GlyphClass: 2
Flags: W
LayerCount: 2
Fore
SplineSet
0 0 m 1,0,-1
 0 896 l 1,1,-1
 640 896 l 1,2,-1
 640 0 l 1,3,-1
 0 0 l 1,0,-1
EndSplineSet
Validated: 1
EndChar

StartChar: uni020B
Encoding: 523 523 334
Width: 768
GlyphClass: 2
Flags: W
LayerCount: 2
Fore
SplineSet
0 0 m 1,0,-1
 0 896 l 1,1,-1
 640 896 l 1,2,-1
 640 0 l 1,3,-1
 0 0 l 1,0,-1
EndSplineSet
Validated: 1
EndChar

StartChar: uni020C
Encoding: 524 524 335
Width: 768
GlyphClass: 2
Flags: W
LayerCount: 2
Fore
SplineSet
0 0 m 1,0,-1
 0 896 l 1,1,-1
 640 896 l 1,2,-1
 640 0 l 1,3,-1
 0 0 l 1,0,-1
EndSplineSet
Validated: 1
EndChar

StartChar: uni020D
Encoding: 525 525 336
Width: 768
GlyphClass: 2
Flags: W
LayerCount: 2
Fore
SplineSet
0 0 m 1,0,-1
 0 896 l 1,1,-1
 640 896 l 1,2,-1
 640 0 l 1,3,-1
 0 0 l 1,0,-1
EndSplineSet
Validated: 1
EndChar

StartChar: uni020E
Encoding: 526 526 337
Width: 768
GlyphClass: 2
Flags: W
LayerCount: 2
Fore
SplineSet
0 0 m 1,0,-1
 0 896 l 1,1,-1
 640 896 l 1,2,-1
 640 0 l 1,3,-1
 0 0 l 1,0,-1
EndSplineSet
Validated: 1
EndChar

StartChar: uni020F
Encoding: 527 527 338
Width: 768
GlyphClass: 2
Flags: W
LayerCount: 2
Fore
SplineSet
0 0 m 1,0,-1
 0 896 l 1,1,-1
 640 896 l 1,2,-1
 640 0 l 1,3,-1
 0 0 l 1,0,-1
EndSplineSet
Validated: 1
EndChar

StartChar: uni0210
Encoding: 528 528 339
Width: 768
GlyphClass: 2
Flags: W
LayerCount: 2
Fore
SplineSet
0 0 m 1,0,-1
 0 896 l 1,1,-1
 640 896 l 1,2,-1
 640 0 l 1,3,-1
 0 0 l 1,0,-1
EndSplineSet
Validated: 1
EndChar

StartChar: uni0211
Encoding: 529 529 340
Width: 768
GlyphClass: 2
Flags: W
LayerCount: 2
Fore
SplineSet
0 0 m 1,0,-1
 0 896 l 1,1,-1
 640 896 l 1,2,-1
 640 0 l 1,3,-1
 0 0 l 1,0,-1
EndSplineSet
Validated: 1
EndChar

StartChar: uni0212
Encoding: 530 530 341
Width: 768
GlyphClass: 2
Flags: W
LayerCount: 2
Fore
SplineSet
0 0 m 1,0,-1
 0 896 l 1,1,-1
 640 896 l 1,2,-1
 640 0 l 1,3,-1
 0 0 l 1,0,-1
EndSplineSet
Validated: 1
EndChar

StartChar: uni0213
Encoding: 531 531 342
Width: 768
GlyphClass: 2
Flags: W
LayerCount: 2
Fore
SplineSet
0 0 m 1,0,-1
 0 896 l 1,1,-1
 640 896 l 1,2,-1
 640 0 l 1,3,-1
 0 0 l 1,0,-1
EndSplineSet
Validated: 1
EndChar

StartChar: uni0214
Encoding: 532 532 343
Width: 768
GlyphClass: 2
Flags: W
LayerCount: 2
Fore
SplineSet
0 0 m 1,0,-1
 0 896 l 1,1,-1
 640 896 l 1,2,-1
 640 0 l 1,3,-1
 0 0 l 1,0,-1
EndSplineSet
Validated: 1
EndChar

StartChar: uni0215
Encoding: 533 533 344
Width: 768
GlyphClass: 2
Flags: W
LayerCount: 2
Fore
SplineSet
0 0 m 1,0,-1
 0 896 l 1,1,-1
 640 896 l 1,2,-1
 640 0 l 1,3,-1
 0 0 l 1,0,-1
EndSplineSet
Validated: 1
EndChar

StartChar: uni0216
Encoding: 534 534 345
Width: 768
GlyphClass: 2
Flags: W
LayerCount: 2
Fore
SplineSet
0 0 m 1,0,-1
 0 896 l 1,1,-1
 640 896 l 1,2,-1
 640 0 l 1,3,-1
 0 0 l 1,0,-1
EndSplineSet
Validated: 1
EndChar

StartChar: uni0217
Encoding: 535 535 346
Width: 768
GlyphClass: 2
Flags: W
LayerCount: 2
Fore
SplineSet
0 0 m 1,0,-1
 0 896 l 1,1,-1
 640 896 l 1,2,-1
 640 0 l 1,3,-1
 0 0 l 1,0,-1
EndSplineSet
Validated: 1
EndChar

StartChar: Scommaaccent
Encoding: 536 536 347
Width: 768
GlyphClass: 2
Flags: W
LayerCount: 2
Fore
SplineSet
0 0 m 1,0,-1
 0 896 l 1,1,-1
 640 896 l 1,2,-1
 640 0 l 1,3,-1
 0 0 l 1,0,-1
EndSplineSet
Validated: 1
EndChar

StartChar: scommaaccent
Encoding: 537 537 348
Width: 768
GlyphClass: 2
Flags: W
LayerCount: 2
Fore
SplineSet
0 0 m 1,0,-1
 0 896 l 1,1,-1
 640 896 l 1,2,-1
 640 0 l 1,3,-1
 0 0 l 1,0,-1
EndSplineSet
Validated: 1
EndChar

StartChar: uni021A
Encoding: 538 538 349
Width: 768
GlyphClass: 2
Flags: W
LayerCount: 2
Fore
SplineSet
0 0 m 1,0,-1
 0 896 l 1,1,-1
 640 896 l 1,2,-1
 640 0 l 1,3,-1
 0 0 l 1,0,-1
EndSplineSet
Validated: 1
EndChar

StartChar: uni021B
Encoding: 539 539 350
Width: 768
GlyphClass: 2
Flags: W
LayerCount: 2
Fore
SplineSet
0 0 m 1,0,-1
 0 896 l 1,1,-1
 640 896 l 1,2,-1
 640 0 l 1,3,-1
 0 0 l 1,0,-1
EndSplineSet
Validated: 1
EndChar

StartChar: uni021C
Encoding: 540 540 351
Width: 768
GlyphClass: 2
Flags: W
LayerCount: 2
Fore
SplineSet
0 0 m 1,0,-1
 0 896 l 1,1,-1
 640 896 l 1,2,-1
 640 0 l 1,3,-1
 0 0 l 1,0,-1
EndSplineSet
Validated: 1
EndChar

StartChar: uni021D
Encoding: 541 541 352
Width: 768
GlyphClass: 2
Flags: W
LayerCount: 2
Fore
SplineSet
0 0 m 1,0,-1
 0 896 l 1,1,-1
 640 896 l 1,2,-1
 640 0 l 1,3,-1
 0 0 l 1,0,-1
EndSplineSet
Validated: 1
EndChar

StartChar: uni021E
Encoding: 542 542 353
Width: 768
GlyphClass: 2
Flags: W
LayerCount: 2
Fore
SplineSet
0 0 m 1,0,-1
 0 896 l 1,1,-1
 640 896 l 1,2,-1
 640 0 l 1,3,-1
 0 0 l 1,0,-1
EndSplineSet
Validated: 1
EndChar

StartChar: uni021F
Encoding: 543 543 354
Width: 768
GlyphClass: 2
Flags: W
LayerCount: 2
Fore
SplineSet
0 0 m 1,0,-1
 0 896 l 1,1,-1
 640 896 l 1,2,-1
 640 0 l 1,3,-1
 0 0 l 1,0,-1
EndSplineSet
Validated: 1
EndChar

StartChar: uni0220
Encoding: 544 544 355
Width: 768
GlyphClass: 2
Flags: W
LayerCount: 2
Fore
SplineSet
0 0 m 1,0,-1
 0 896 l 1,1,-1
 640 896 l 1,2,-1
 640 0 l 1,3,-1
 0 0 l 1,0,-1
EndSplineSet
Validated: 1
EndChar

StartChar: uni0221
Encoding: 545 545 356
Width: 768
GlyphClass: 2
Flags: W
LayerCount: 2
Fore
SplineSet
0 0 m 1,0,-1
 0 896 l 1,1,-1
 640 896 l 1,2,-1
 640 0 l 1,3,-1
 0 0 l 1,0,-1
EndSplineSet
Validated: 1
EndChar

StartChar: uni0222
Encoding: 546 546 357
Width: 768
GlyphClass: 2
Flags: W
LayerCount: 2
Fore
SplineSet
0 0 m 1,0,-1
 0 896 l 1,1,-1
 640 896 l 1,2,-1
 640 0 l 1,3,-1
 0 0 l 1,0,-1
EndSplineSet
Validated: 1
EndChar

StartChar: uni0223
Encoding: 547 547 358
Width: 768
GlyphClass: 2
Flags: W
LayerCount: 2
Fore
SplineSet
0 0 m 1,0,-1
 0 896 l 1,1,-1
 640 896 l 1,2,-1
 640 0 l 1,3,-1
 0 0 l 1,0,-1
EndSplineSet
Validated: 1
EndChar

StartChar: uni0224
Encoding: 548 548 359
Width: 768
GlyphClass: 2
Flags: W
LayerCount: 2
Fore
SplineSet
0 0 m 1,0,-1
 0 896 l 1,1,-1
 640 896 l 1,2,-1
 640 0 l 1,3,-1
 0 0 l 1,0,-1
EndSplineSet
Validated: 1
EndChar

StartChar: uni0225
Encoding: 549 549 360
Width: 768
GlyphClass: 2
Flags: W
LayerCount: 2
Fore
SplineSet
0 0 m 1,0,-1
 0 896 l 1,1,-1
 640 896 l 1,2,-1
 640 0 l 1,3,-1
 0 0 l 1,0,-1
EndSplineSet
Validated: 1
EndChar

StartChar: uni0226
Encoding: 550 550 361
Width: 768
GlyphClass: 2
Flags: W
LayerCount: 2
Fore
SplineSet
0 0 m 1,0,-1
 0 896 l 1,1,-1
 640 896 l 1,2,-1
 640 0 l 1,3,-1
 0 0 l 1,0,-1
EndSplineSet
Validated: 1
EndChar

StartChar: uni0227
Encoding: 551 551 362
Width: 768
GlyphClass: 2
Flags: W
LayerCount: 2
Fore
SplineSet
0 0 m 1,0,-1
 0 896 l 1,1,-1
 640 896 l 1,2,-1
 640 0 l 1,3,-1
 0 0 l 1,0,-1
EndSplineSet
Validated: 1
EndChar

StartChar: uni0228
Encoding: 552 552 363
Width: 768
GlyphClass: 2
Flags: W
LayerCount: 2
Fore
SplineSet
0 0 m 1,0,-1
 0 896 l 1,1,-1
 640 896 l 1,2,-1
 640 0 l 1,3,-1
 0 0 l 1,0,-1
EndSplineSet
Validated: 1
EndChar

StartChar: uni0229
Encoding: 553 553 364
Width: 768
GlyphClass: 2
Flags: W
LayerCount: 2
Fore
SplineSet
0 0 m 1,0,-1
 0 896 l 1,1,-1
 640 896 l 1,2,-1
 640 0 l 1,3,-1
 0 0 l 1,0,-1
EndSplineSet
Validated: 1
EndChar

StartChar: uni022A
Encoding: 554 554 365
Width: 768
GlyphClass: 2
Flags: W
LayerCount: 2
Fore
SplineSet
0 0 m 1,0,-1
 0 896 l 1,1,-1
 640 896 l 1,2,-1
 640 0 l 1,3,-1
 0 0 l 1,0,-1
EndSplineSet
Validated: 1
EndChar

StartChar: uni022B
Encoding: 555 555 366
Width: 768
GlyphClass: 2
Flags: W
LayerCount: 2
Fore
SplineSet
0 0 m 1,0,-1
 0 896 l 1,1,-1
 640 896 l 1,2,-1
 640 0 l 1,3,-1
 0 0 l 1,0,-1
EndSplineSet
Validated: 1
EndChar

StartChar: uni022C
Encoding: 556 556 367
Width: 768
GlyphClass: 2
Flags: W
LayerCount: 2
Fore
SplineSet
0 0 m 1,0,-1
 0 896 l 1,1,-1
 640 896 l 1,2,-1
 640 0 l 1,3,-1
 0 0 l 1,0,-1
EndSplineSet
Validated: 1
EndChar

StartChar: uni022D
Encoding: 557 557 368
Width: 768
GlyphClass: 2
Flags: W
LayerCount: 2
Fore
SplineSet
0 0 m 1,0,-1
 0 896 l 1,1,-1
 640 896 l 1,2,-1
 640 0 l 1,3,-1
 0 0 l 1,0,-1
EndSplineSet
Validated: 1
EndChar

StartChar: uni022E
Encoding: 558 558 369
Width: 768
GlyphClass: 2
Flags: W
LayerCount: 2
Fore
SplineSet
0 0 m 1,0,-1
 0 896 l 1,1,-1
 640 896 l 1,2,-1
 640 0 l 1,3,-1
 0 0 l 1,0,-1
EndSplineSet
Validated: 1
EndChar

StartChar: uni022F
Encoding: 559 559 370
Width: 768
GlyphClass: 2
Flags: W
LayerCount: 2
Fore
SplineSet
0 0 m 1,0,-1
 0 896 l 1,1,-1
 640 896 l 1,2,-1
 640 0 l 1,3,-1
 0 0 l 1,0,-1
EndSplineSet
Validated: 1
EndChar

StartChar: uni0230
Encoding: 560 560 371
Width: 768
GlyphClass: 2
Flags: W
LayerCount: 2
Fore
SplineSet
0 0 m 1,0,-1
 0 896 l 1,1,-1
 640 896 l 1,2,-1
 640 0 l 1,3,-1
 0 0 l 1,0,-1
EndSplineSet
Validated: 1
EndChar

StartChar: uni0231
Encoding: 561 561 372
Width: 768
GlyphClass: 2
Flags: W
LayerCount: 2
Fore
SplineSet
0 0 m 1,0,-1
 0 896 l 1,1,-1
 640 896 l 1,2,-1
 640 0 l 1,3,-1
 0 0 l 1,0,-1
EndSplineSet
Validated: 1
EndChar

StartChar: uni0232
Encoding: 562 562 373
Width: 768
GlyphClass: 2
Flags: W
LayerCount: 2
Fore
SplineSet
0 0 m 1,0,-1
 0 896 l 1,1,-1
 640 896 l 1,2,-1
 640 0 l 1,3,-1
 0 0 l 1,0,-1
EndSplineSet
Validated: 1
EndChar

StartChar: uni0233
Encoding: 563 563 374
Width: 768
GlyphClass: 2
Flags: W
LayerCount: 2
Fore
SplineSet
0 0 m 1,0,-1
 0 896 l 1,1,-1
 640 896 l 1,2,-1
 640 0 l 1,3,-1
 0 0 l 1,0,-1
EndSplineSet
Validated: 1
EndChar

StartChar: uni0234
Encoding: 564 564 375
Width: 768
GlyphClass: 2
Flags: W
LayerCount: 2
Fore
SplineSet
0 0 m 1,0,-1
 0 896 l 1,1,-1
 640 896 l 1,2,-1
 640 0 l 1,3,-1
 0 0 l 1,0,-1
EndSplineSet
Validated: 1
EndChar

StartChar: uni0235
Encoding: 565 565 376
Width: 768
GlyphClass: 2
Flags: W
LayerCount: 2
Fore
SplineSet
0 0 m 1,0,-1
 0 896 l 1,1,-1
 640 896 l 1,2,-1
 640 0 l 1,3,-1
 0 0 l 1,0,-1
EndSplineSet
Validated: 1
EndChar

StartChar: uni0236
Encoding: 566 566 377
Width: 768
GlyphClass: 2
Flags: W
LayerCount: 2
Fore
SplineSet
0 0 m 1,0,-1
 0 896 l 1,1,-1
 640 896 l 1,2,-1
 640 0 l 1,3,-1
 0 0 l 1,0,-1
EndSplineSet
Validated: 1
EndChar

StartChar: uni0237
Encoding: 567 567 378
Width: 768
GlyphClass: 2
Flags: W
LayerCount: 2
Fore
SplineSet
0 0 m 1,0,-1
 0 896 l 1,1,-1
 640 896 l 1,2,-1
 640 0 l 1,3,-1
 0 0 l 1,0,-1
EndSplineSet
Validated: 1
EndChar

StartChar: uni0238
Encoding: 568 568 379
Width: 768
GlyphClass: 2
Flags: W
LayerCount: 2
Fore
SplineSet
0 0 m 1,0,-1
 0 896 l 1,1,-1
 640 896 l 1,2,-1
 640 0 l 1,3,-1
 0 0 l 1,0,-1
EndSplineSet
Validated: 1
EndChar

StartChar: uni0239
Encoding: 569 569 380
Width: 768
GlyphClass: 2
Flags: W
LayerCount: 2
Fore
SplineSet
0 0 m 1,0,-1
 0 896 l 1,1,-1
 640 896 l 1,2,-1
 640 0 l 1,3,-1
 0 0 l 1,0,-1
EndSplineSet
Validated: 1
EndChar

StartChar: uni023A
Encoding: 570 570 381
Width: 768
GlyphClass: 2
Flags: W
LayerCount: 2
Fore
SplineSet
0 0 m 1,0,-1
 0 896 l 1,1,-1
 640 896 l 1,2,-1
 640 0 l 1,3,-1
 0 0 l 1,0,-1
EndSplineSet
Validated: 1
EndChar

StartChar: uni023B
Encoding: 571 571 382
Width: 768
GlyphClass: 2
Flags: W
LayerCount: 2
Fore
SplineSet
0 0 m 1,0,-1
 0 896 l 1,1,-1
 640 896 l 1,2,-1
 640 0 l 1,3,-1
 0 0 l 1,0,-1
EndSplineSet
Validated: 1
EndChar

StartChar: uni023C
Encoding: 572 572 383
Width: 768
GlyphClass: 2
Flags: W
LayerCount: 2
Fore
SplineSet
0 0 m 1,0,-1
 0 896 l 1,1,-1
 640 896 l 1,2,-1
 640 0 l 1,3,-1
 0 0 l 1,0,-1
EndSplineSet
Validated: 1
EndChar

StartChar: uni023D
Encoding: 573 573 384
Width: 768
GlyphClass: 2
Flags: W
LayerCount: 2
Fore
SplineSet
0 0 m 1,0,-1
 0 896 l 1,1,-1
 640 896 l 1,2,-1
 640 0 l 1,3,-1
 0 0 l 1,0,-1
EndSplineSet
Validated: 1
EndChar

StartChar: uni023E
Encoding: 574 574 385
Width: 768
GlyphClass: 2
Flags: W
LayerCount: 2
Fore
SplineSet
0 0 m 1,0,-1
 0 896 l 1,1,-1
 640 896 l 1,2,-1
 640 0 l 1,3,-1
 0 0 l 1,0,-1
EndSplineSet
Validated: 1
EndChar

StartChar: uni023F
Encoding: 575 575 386
Width: 768
GlyphClass: 2
Flags: W
LayerCount: 2
Fore
SplineSet
0 0 m 1,0,-1
 0 896 l 1,1,-1
 640 896 l 1,2,-1
 640 0 l 1,3,-1
 0 0 l 1,0,-1
EndSplineSet
Validated: 1
EndChar

StartChar: uni0240
Encoding: 576 576 387
Width: 768
GlyphClass: 2
Flags: W
LayerCount: 2
Fore
SplineSet
0 0 m 1,0,-1
 0 896 l 1,1,-1
 640 896 l 1,2,-1
 640 0 l 1,3,-1
 0 0 l 1,0,-1
EndSplineSet
Validated: 1
EndChar

StartChar: uni0241
Encoding: 577 577 388
Width: 768
GlyphClass: 2
Flags: W
LayerCount: 2
Fore
SplineSet
0 0 m 1,0,-1
 0 896 l 1,1,-1
 640 896 l 1,2,-1
 640 0 l 1,3,-1
 0 0 l 1,0,-1
EndSplineSet
Validated: 1
EndChar

StartChar: uni0242
Encoding: 578 578 389
Width: 768
GlyphClass: 2
Flags: W
LayerCount: 2
Fore
SplineSet
0 0 m 1,0,-1
 0 896 l 1,1,-1
 640 896 l 1,2,-1
 640 0 l 1,3,-1
 0 0 l 1,0,-1
EndSplineSet
Validated: 1
EndChar

StartChar: uni0243
Encoding: 579 579 390
Width: 768
GlyphClass: 2
Flags: W
LayerCount: 2
Fore
SplineSet
0 0 m 1,0,-1
 0 896 l 1,1,-1
 640 896 l 1,2,-1
 640 0 l 1,3,-1
 0 0 l 1,0,-1
EndSplineSet
Validated: 1
EndChar

StartChar: uni0244
Encoding: 580 580 391
Width: 768
GlyphClass: 2
Flags: W
LayerCount: 2
Fore
SplineSet
0 0 m 1,0,-1
 0 896 l 1,1,-1
 640 896 l 1,2,-1
 640 0 l 1,3,-1
 0 0 l 1,0,-1
EndSplineSet
Validated: 1
EndChar

StartChar: uni0245
Encoding: 581 581 392
Width: 768
GlyphClass: 2
Flags: W
LayerCount: 2
Fore
SplineSet
0 0 m 1,0,-1
 0 896 l 1,1,-1
 640 896 l 1,2,-1
 640 0 l 1,3,-1
 0 0 l 1,0,-1
EndSplineSet
Validated: 1
EndChar

StartChar: uni0246
Encoding: 582 582 393
Width: 768
GlyphClass: 2
Flags: W
LayerCount: 2
Fore
SplineSet
0 0 m 1,0,-1
 0 896 l 1,1,-1
 640 896 l 1,2,-1
 640 0 l 1,3,-1
 0 0 l 1,0,-1
EndSplineSet
Validated: 1
EndChar

StartChar: uni0247
Encoding: 583 583 394
Width: 768
GlyphClass: 2
Flags: W
LayerCount: 2
Fore
SplineSet
0 0 m 1,0,-1
 0 896 l 1,1,-1
 640 896 l 1,2,-1
 640 0 l 1,3,-1
 0 0 l 1,0,-1
EndSplineSet
Validated: 1
EndChar

StartChar: uni0248
Encoding: 584 584 395
Width: 768
GlyphClass: 2
Flags: W
LayerCount: 2
Fore
SplineSet
0 0 m 1,0,-1
 0 896 l 1,1,-1
 640 896 l 1,2,-1
 640 0 l 1,3,-1
 0 0 l 1,0,-1
EndSplineSet
Validated: 1
EndChar

StartChar: uni0249
Encoding: 585 585 396
Width: 768
GlyphClass: 2
Flags: W
LayerCount: 2
Fore
SplineSet
0 0 m 1,0,-1
 0 896 l 1,1,-1
 640 896 l 1,2,-1
 640 0 l 1,3,-1
 0 0 l 1,0,-1
EndSplineSet
Validated: 1
EndChar

StartChar: uni024A
Encoding: 586 586 397
Width: 768
GlyphClass: 2
Flags: W
LayerCount: 2
Fore
SplineSet
0 0 m 1,0,-1
 0 896 l 1,1,-1
 640 896 l 1,2,-1
 640 0 l 1,3,-1
 0 0 l 1,0,-1
EndSplineSet
Validated: 1
EndChar

StartChar: uni024B
Encoding: 587 587 398
Width: 768
GlyphClass: 2
Flags: W
LayerCount: 2
Fore
SplineSet
0 0 m 1,0,-1
 0 896 l 1,1,-1
 640 896 l 1,2,-1
 640 0 l 1,3,-1
 0 0 l 1,0,-1
EndSplineSet
Validated: 1
EndChar

StartChar: uni024C
Encoding: 588 588 399
Width: 768
GlyphClass: 2
Flags: W
LayerCount: 2
Fore
SplineSet
0 0 m 1,0,-1
 0 896 l 1,1,-1
 640 896 l 1,2,-1
 640 0 l 1,3,-1
 0 0 l 1,0,-1
EndSplineSet
Validated: 1
EndChar

StartChar: uni024D
Encoding: 589 589 400
Width: 768
GlyphClass: 2
Flags: W
LayerCount: 2
Fore
SplineSet
0 0 m 1,0,-1
 0 896 l 1,1,-1
 640 896 l 1,2,-1
 640 0 l 1,3,-1
 0 0 l 1,0,-1
EndSplineSet
Validated: 1
EndChar

StartChar: uni024E
Encoding: 590 590 401
Width: 768
GlyphClass: 2
Flags: W
LayerCount: 2
Fore
SplineSet
0 0 m 1,0,-1
 0 896 l 1,1,-1
 640 896 l 1,2,-1
 640 0 l 1,3,-1
 0 0 l 1,0,-1
EndSplineSet
Validated: 1
EndChar

StartChar: uni024F
Encoding: 591 591 402
Width: 768
GlyphClass: 2
Flags: W
LayerCount: 2
Fore
SplineSet
0 0 m 1,0,-1
 0 896 l 1,1,-1
 640 896 l 1,2,-1
 640 0 l 1,3,-1
 0 0 l 1,0,-1
EndSplineSet
Validated: 1
EndChar

StartChar: emdash
Encoding: 8212 8212 403
Width: 768
GlyphClass: 2
Flags: W
LayerCount: 2
Fore
SplineSet
0 384 m 1,0,-1
 0 512 l 1,1,-1
 640 512 l 1,2,-1
 640 384 l 1,3,-1
 0 384 l 1,0,-1
EndSplineSet
Validated: 1
EndChar

StartChar: quoteleft
Encoding: 8216 8216 404
Width: 256
GlyphClass: 2
Flags: W
LayerCount: 2
Fore
SplineSet
0 640 m 1,0,-1
 0 896 l 1,1,-1
 128 896 l 1,2,-1
 128 640 l 1,3,-1
 0 640 l 1,0,-1
EndSplineSet
Validated: 1
EndChar

StartChar: quoteright
Encoding: 8217 8217 405
Width: 256
GlyphClass: 2
Flags: W
LayerCount: 2
Fore
SplineSet
0 640 m 1,0,-1
 0 896 l 1,1,-1
 128 896 l 1,2,-1
 128 640 l 1,3,-1
 0 640 l 1,0,-1
EndSplineSet
Validated: 1
EndChar

StartChar: quotesinglbase
Encoding: 8218 8218 406
Width: 768
GlyphClass: 2
Flags: W
LayerCount: 2
Fore
SplineSet
0 0 m 1,0,-1
 0 896 l 1,1,-1
 640 896 l 1,2,-1
 640 0 l 1,3,-1
 0 0 l 1,0,-1
EndSplineSet
Validated: 1
EndChar

StartChar: quotereversed
Encoding: 8219 8219 407
Width: 768
GlyphClass: 2
Flags: W
LayerCount: 2
Fore
SplineSet
0 0 m 1,0,-1
 0 896 l 1,1,-1
 640 896 l 1,2,-1
 640 0 l 1,3,-1
 0 0 l 1,0,-1
EndSplineSet
Validated: 1
EndChar

StartChar: quotedblleft
Encoding: 8220 8220 408
Width: 512
GlyphClass: 2
Flags: W
LayerCount: 2
Fore
SplineSet
0 640 m 1,0,-1
 0 896 l 1,1,-1
 128 896 l 1,2,-1
 128 640 l 1,3,-1
 0 640 l 1,0,-1
256 640 m 1,4,-1
 256 896 l 1,5,-1
 384 896 l 1,6,-1
 384 640 l 1,7,-1
 256 640 l 1,4,-1
EndSplineSet
Validated: 1
EndChar

StartChar: quotedblright
Encoding: 8221 8221 409
Width: 512
GlyphClass: 2
Flags: W
LayerCount: 2
Fore
SplineSet
0 640 m 1,0,-1
 0 896 l 1,1,-1
 128 896 l 1,2,-1
 128 640 l 1,3,-1
 0 640 l 1,0,-1
256 640 m 1,4,-1
 256 896 l 1,5,-1
 384 896 l 1,6,-1
 384 640 l 1,7,-1
 256 640 l 1,4,-1
EndSplineSet
Validated: 1
EndChar

StartChar: quotedblbase
Encoding: 8222 8222 410
Width: 768
GlyphClass: 2
Flags: W
LayerCount: 2
Fore
SplineSet
0 0 m 1,0,-1
 0 896 l 1,1,-1
 640 896 l 1,2,-1
 640 0 l 1,3,-1
 0 0 l 1,0,-1
EndSplineSet
Validated: 1
EndChar

StartChar: dagger
Encoding: 8224 8224 411
Width: 640
GlyphClass: 2
Flags: W
LayerCount: 2
Fore
SplineSet
256 0 m 1,0,-1
 256 512 l 1,1,-1
 0 512 l 1,2,-1
 0 640 l 1,3,-1
 256 640 l 1,4,-1
 256 896 l 1,5,-1
 384 896 l 1,6,-1
 384 640 l 1,7,-1
 640 640 l 1,8,-1
 640 512 l 1,9,-1
 384 512 l 1,10,-1
 384 0 l 1,11,-1
 256 0 l 1,0,-1
EndSplineSet
Validated: 1
EndChar

StartChar: ellipsis
Encoding: 8230 8230 412
Width: 768
GlyphClass: 2
Flags: W
LayerCount: 2
Fore
SplineSet
0 0 m 1,0,-1
 0 128 l 1,1,-1
 128 128 l 1,2,-1
 128 0 l 1,3,-1
 0 0 l 1,0,-1
256 0 m 1,4,-1
 256 128 l 1,5,-1
 384 128 l 1,6,-1
 384 0 l 1,7,-1
 256 0 l 1,4,-1
512 0 m 1,8,-1
 512 128 l 1,9,-1
 640 128 l 1,10,-1
 640 0 l 1,11,-1
 512 0 l 1,8,-1
EndSplineSet
Validated: 1
EndChar

StartChar: guilsinglleft
Encoding: 8249 8249 413
Width: 512
GlyphClass: 2
Flags: W
LayerCount: 2
Fore
SplineSet
256 0 m 1,0,-1
 256 128 l 1,1,-1
 384 128 l 1,2,-1
 384 0 l 1,3,-1
 256 0 l 1,0,-1
128 128 m 1,4,-1
 128 256 l 1,5,-1
 256 256 l 1,6,-1
 256 128 l 1,7,-1
 128 128 l 1,4,-1
0 256 m 1,8,-1
 0 384 l 1,9,-1
 128 384 l 1,10,-1
 128 256 l 1,11,-1
 0 256 l 1,8,-1
128 384 m 1,12,-1
 128 512 l 1,13,-1
 256 512 l 1,14,-1
 256 384 l 1,15,-1
 128 384 l 1,12,-1
256 512 m 1,16,-1
 256 640 l 1,17,-1
 384 640 l 1,18,-1
 384 512 l 1,19,-1
 256 512 l 1,16,-1
EndSplineSet
Validated: 5
EndChar

StartChar: guilsinglright
Encoding: 8250 8250 414
Width: 512
GlyphClass: 2
Flags: W
LayerCount: 2
Fore
SplineSet
0 0 m 1,0,-1
 0 128 l 1,1,-1
 128 128 l 1,2,-1
 128 0 l 1,3,-1
 0 0 l 1,0,-1
128 128 m 1,4,-1
 128 256 l 1,5,-1
 256 256 l 1,6,-1
 256 128 l 1,7,-1
 128 128 l 1,4,-1
256 256 m 1,8,-1
 256 384 l 1,9,-1
 384 384 l 1,10,-1
 384 256 l 1,11,-1
 256 256 l 1,8,-1
128 384 m 1,12,-1
 128 512 l 1,13,-1
 256 512 l 1,14,-1
 256 384 l 1,15,-1
 128 384 l 1,12,-1
0 512 m 1,16,-1
 0 640 l 1,17,-1
 128 640 l 1,18,-1
 128 512 l 1,19,-1
 0 512 l 1,16,-1
EndSplineSet
Validated: 5
EndChar

StartChar: Euro
Encoding: 8364 8364 415
Width: 768
GlyphClass: 2
Flags: W
LayerCount: 2
Fore
SplineSet
0 0 m 1,0,-1
 0 896 l 1,1,-1
 640 896 l 1,2,-1
 640 0 l 1,3,-1
 0 0 l 1,0,-1
EndSplineSet
Validated: 1
EndChar

StartChar: trademark
Encoding: 8482 8482 416
Width: 768
GlyphClass: 2
Flags: W
LayerCount: 2
Fore
SplineSet
0 0 m 1,0,-1
 0 896 l 1,1,-1
 640 896 l 1,2,-1
 640 0 l 1,3,-1
 0 0 l 1,0,-1
EndSplineSet
Validated: 1
EndChar

StartChar: uniFB01
Encoding: 64257 64257 417
Width: 768
GlyphClass: 2
Flags: W
LayerCount: 2
Fore
SplineSet
0 0 m 1,0,-1
 0 896 l 1,1,-1
 640 896 l 1,2,-1
 640 0 l 1,3,-1
 0 0 l 1,0,-1
EndSplineSet
Validated: 1
EndChar

StartChar: uniFB02
Encoding: 64258 64258 418
Width: 768
GlyphClass: 2
Flags: W
LayerCount: 2
Fore
SplineSet
0 0 m 1,0,-1
 0 896 l 1,1,-1
 640 896 l 1,2,-1
 640 0 l 1,3,-1
 0 0 l 1,0,-1
EndSplineSet
Validated: 1
EndChar
